<?xml version="1.0" standalone="no"?>
<!DOCTYPE svg PUBLIC "-//W3C//DTD SVG 1.1//EN" "http://www.w3.org/Graphics/SVG/1.1/DTD/svg11.dtd" >
<svg xmlns="http://www.w3.org/2000/svg" xmlns:xlink="http://www.w3.org/1999/xlink" version="1.1">
<metadata>
Created by FontForge 20200427 at Wed Jan 30 03:28:52 2013
 By www
Copyright (c) 1992-2011 by Apple Inc. All rights reserved.
</metadata>
<defs>
<font id="Ayuthaya" horiz-adv-x="1260" >
  <font-face 
    font-family="Ayuthaya"
    font-weight="400"
    font-stretch="normal"
    units-per-em="2100"
    panose-1="0 0 4 0 0 0 0 0 0 0"
    ascent="1680"
    descent="-420"
    x-height="1145"
    cap-height="1591"
    bbox="-1392 -1034 2487 2516"
    underline-thickness="101"
    underline-position="-250"
    unicode-range="U+0008-FEFF"
  />
<missing-glyph horiz-adv-x="1050" 
d="M131 0v2241h788v-2241h-788zM263 131h525v1979h-525v-1979z" />
    <glyph glyph-name="fi" unicode="fi" 
d="M280 0v891h-254v159h254v53q0 227 51 335.5t158.5 178.5t283.5 70q133 0 271 -28v-181q-149 49 -264 49q-91 0 -160.5 -34t-109 -110.5t-39.5 -258.5v-74h668v-1050h-191v891h-477v-891h-191z" />
    <glyph glyph-name="fl" unicode="fl" 
d="M225 0v891h-223v159h223v53q0 227 51 335.5t158 178.5t282 70q68 0 136.5 -8t135.5 -24h191v-1655h-191v1478q-73 24 -139.5 36.5t-123.5 12.5q-91 0 -161 -34t-109.5 -110.5t-39.5 -258.5v-74h423v-159h-423v-891h-190z" />
    <glyph glyph-name=".notdef" horiz-adv-x="1050" 
d="M131 0v2241h788v-2241h-788zM263 131h525v1979h-525v-1979z" />
    <glyph glyph-name=".null" horiz-adv-x="0" 
 />
    <glyph glyph-name=".null" horiz-adv-x="0" 
 />
    <glyph glyph-name=".null" horiz-adv-x="0" 
 />
    <glyph glyph-name="nonmarkingreturn" unicode="&#x9;" horiz-adv-x="1247" 
 />
    <glyph glyph-name="nonmarkingreturn" unicode="&#xd;" horiz-adv-x="1247" 
 />
    <glyph glyph-name="space" unicode=" " horiz-adv-x="1247" 
 />
    <glyph glyph-name="exclam" unicode="!" 
d="M542 453l-47 1138h255l-49 -1138h-159zM631 -48q-61 0 -104.5 43.5t-43.5 103.5q0 61 43.5 104t104.5 43q59 0 102.5 -42.5t43.5 -104.5q0 -61 -44 -104t-102 -43z" />
    <glyph glyph-name="quotedbl" unicode="&#x22;" 
d="M477 1082h-131l-66 573h255zM919 1082h-130l-59 573h250z" />
    <glyph glyph-name="numbersign" unicode="#" 
d="M73 430v143h201l113 422h-314v142h349l120 454h150l-120 -454h290l125 454h150l-123 -454h172v-142h-212l-112 -422h324v-143h-364l-117 -430h-151l119 430h-286l-113 -430h-152l114 430h-163zM425 573h287l115 422h-293z" />
    <glyph glyph-name="dollar" unicode="$" 
d="M595 -159v161q-69 0 -143 7t-138.5 22t-148.5 53v197q68 -35 133 -59.5t137.5 -39t159.5 -20.5v571l-110 60q-312 167 -312 404q0 126 103.5 245.5t318.5 137.5v170h143v-170q121 0 286 -42v-177l-36 10q-154 43 -250 52v-558l115 -65q162 -94 222 -184t60 -191
q0 -92 -45.5 -177.5t-130.5 -147t-221 -85.5v-174h-143zM595 952v473q-104 -23 -160 -77.5t-56 -127.5q0 -68 48 -131.5t168 -136.5zM738 648v-472q112 40 151.5 98t39.5 130q0 70 -39 119.5t-152 124.5z" />
    <glyph glyph-name="percent" unicode="%" 
d="M322 1591q149 0 233.5 -110.5t84.5 -286.5q0 -178 -84.5 -288t-233.5 -110t-234 110t-85 288q0 176 85 286.5t234 110.5zM322 1463q-83 0 -121 -79.5t-38 -189.5q0 -112 38 -191.5t121 -79.5q82 0 120.5 79.5t38.5 191.5q0 110 -38.5 189.5t-120.5 79.5zM170 -48h-168
l1088 1687h169zM935 796q143 0 232 -107t89 -275q0 -194 -94.5 -304t-228.5 -110q-131 0 -222.5 105t-91.5 293q0 178 86.5 288t229.5 110zM938 669q-81 0 -120 -78t-39 -199q0 -135 47.5 -200t110.5 -65q68 0 114 71t46 204q0 105 -38.5 186t-120.5 81z" />
    <glyph glyph-name="ampersand" unicode="&#x26;" 
d="M903 133q-101 -106 -200 -143.5t-214 -37.5q-219 0 -353 124t-134 317q0 269 281 503q-84 106 -126.5 197.5t-42.5 170.5q0 96 50 186t138.5 139.5t194.5 49.5q142 0 237.5 -76t95.5 -218q0 -103 -58 -206.5t-241 -242.5l363 -447q16 51 20.5 84t7.5 120t3 108v50h191
v-48q0 -68 -14.5 -194.5t-86.5 -269.5l244 -299h-244zM432 1017q103 73 163.5 159.5t60.5 156.5q0 67 -42.5 114.5t-132.5 47.5q-78 0 -127 -57.5t-49 -140.5q0 -46 12 -93.5t92 -155.5q7 -10 23 -31zM798 260l-416 511q-194 -168 -194 -363q0 -133 89 -215t216 -82
q68 0 136.5 23.5t168.5 125.5z" />
    <glyph glyph-name="quotesingle" unicode="'" 
d="M700 1018h-137l-108 637h350z" />
    <glyph glyph-name="parenleft" unicode="(" 
d="M1099 -381q-284 17 -478.5 160t-311 386t-116.5 487t116.5 487t311 386t478.5 162v-160q-214 -20 -368.5 -144.5t-242.5 -317t-88 -413.5q0 -220 88 -413t242.5 -317t368.5 -145v-158z" />
    <glyph glyph-name="parenright" unicode=")" 
d="M161 1687q284 -19 479 -162t311 -386t116 -487t-116 -487t-311 -386t-479 -160v158q214 21 368.5 145t243 317t88.5 413q0 221 -88.5 413.5t-243 317t-368.5 144.5v160z" />
    <glyph glyph-name="asterisk" unicode="*" 
d="M532 676l22 356l-290 -195l-96 166l315 154l-315 156l96 163l290 -194l-22 357h193l-27 -357l297 194l96 -163l-316 -156l316 -154l-96 -166l-297 195l27 -356h-193z" />
    <glyph glyph-name="plus" unicode="+" 
d="M1186 637v-160h-476v-477h-160v477h-477v160h477v477h160v-477h476z" />
    <glyph glyph-name="comma" unicode="," 
d="M435 -445v127q74 20 112 56t61.5 92t23.5 135q-96 0 -141 54t-45 115q0 71 50.5 119.5t116.5 48.5q86 0 148.5 -74t62.5 -203q0 -113 -49 -213t-133.5 -171t-206.5 -86z" />
    <glyph glyph-name="hyphen" unicode="-" 
d="M233 565v159h795v-159h-795z" />
    <glyph glyph-name="hyphen" unicode="&#xad;" 
d="M233 565v159h795v-159h-795z" />
    <glyph glyph-name="period" unicode="." 
d="M630 -48q-69 0 -118.5 49t-49.5 118q0 70 50 118.5t118 48.5q67 0 117 -48.5t50 -118.5q0 -69 -49.5 -118t-117.5 -49z" />
    <glyph glyph-name="slash" unicode="/" 
d="M221 -48h-187l1012 1687h181z" />
    <glyph glyph-name="zero" unicode="0" 
d="M630 1639q271 0 413.5 -228.5t142.5 -614.5q0 -388 -142.5 -616t-413.5 -228t-414 228t-143 616q0 386 143 614.5t414 228.5zM319 455l551 863q-53 95 -114 128.5t-126 33.5q-172 0 -261 -190.5t-89 -482.5q0 -67 4 -143.5t35 -208.5zM938 1128l-546 -868
q44 -74 101.5 -111.5t127.5 -37.5q195 0 277 218t82 483q0 164 -42 316z" />
    <glyph glyph-name="one" unicode="1" 
d="M582 159v1228q-86 -68 -167 -116.5t-222 -98.5v172q224 96 389 247h191v-1432h383v-159h-963v159h389z" />
    <glyph glyph-name="two" unicode="2" 
d="M1116 0h-963v175q0 68 27.5 145.5t105.5 174t165 185.5l109 111q33 33 143.5 156.5t146 189t35.5 128.5q0 103 -82 159t-185 56q-58 0 -130.5 -13.5t-126.5 -31.5t-176 -73v169q129 61 258.5 84.5t213.5 23.5q124 0 228.5 -40.5t155 -126t50.5 -181.5q0 -108 -65 -220.5
t-246 -290.5l-117 -116l-98 -96q-93 -94 -150.5 -182.5t-63.5 -210.5h765v-175z" />
    <glyph glyph-name="three" unicode="3" 
d="M149 29v201q234 -119 407 -119q158 0 261 95.5t103 246.5q0 152 -113.5 247.5t-385.5 95.5h-105v159h146q200 0 289.5 89.5t89.5 199.5q0 99 -73 167.5t-224 68.5q-169 0 -364 -96v182q195 73 357 73q290 0 400.5 -114.5t110.5 -261.5q0 -108 -58.5 -203.5t-215.5 -170.5
q139 -41 209.5 -100.5t107 -140.5t36.5 -181q0 -224 -165.5 -369.5t-428.5 -145.5q-76 0 -165.5 11t-218.5 66z" />
    <glyph glyph-name="four" unicode="4" 
d="M725 0v445h-676v160l676 986h192v-986h294v-160h-294v-445h-192zM725 605v697l-473 -697h473z" />
    <glyph glyph-name="five" unicode="5" 
d="M193 827v764h891v-183h-701v-390h33q344 0 529.5 -143.5t185.5 -386.5q0 -154 -75 -276t-211 -191t-290 -69t-394 75v208q87 -47 194.5 -77.5t199.5 -30.5q91 0 178 44t135.5 129t48.5 173q0 148 -132 251t-468 103h-124z" />
    <glyph glyph-name="six" unicode="6" 
d="M299 746q74 110 183.5 179.5t240.5 69.5q124 0 235 -60.5t169.5 -169t58.5 -251.5q0 -227 -145 -394.5t-382 -167.5q-279 0 -416.5 233t-137.5 593q0 398 175 629.5t475 231.5q161 0 312 -48v-192q-170 81 -321 81q-213 0 -330 -196t-117 -496v-42zM674 111
q77 0 154.5 45.5t122.5 140.5t45 206q0 146 -75.5 239.5t-215.5 93.5q-144 0 -237 -108.5t-93 -262.5q0 -156 91 -255t208 -99z" />
    <glyph glyph-name="seven" unicode="7" 
d="M327 0v143q0 167 38 280.5t133.5 253t152.5 215.5l166 220l60 76q67 92 117 212h-826v191h1010v-127q0 -76 -30 -140.5t-183 -275.5q-37 -50 -73 -101l-107 -149q-102 -145 -151.5 -231t-74.5 -179.5t-25 -244.5v-143h-207z" />
    <glyph glyph-name="eight" unicode="8" 
d="M471 858l-35 26q-73 51 -142.5 151t-69.5 220q0 159 125 271.5t318 112.5q117 0 211.5 -43t146 -126t51.5 -181q0 -68 -24 -131t-70.5 -125t-184.5 -175l86 -68q151 -123 203 -212.5t52 -200.5q0 -172 -125 -298.5t-375 -126.5q-251 0 -376.5 118.5t-125.5 293.5
q0 261 335 494zM667 956q144 109 180.5 183t36.5 138q0 77 -67.5 140t-174.5 63q-115 0 -175 -69t-60 -143q0 -71 50.5 -135t160.5 -142zM614 757q-270 -208 -270 -390q0 -108 89 -181.5t211 -73.5q112 0 200 70.5t88 176.5q0 103 -107 210t-149 140z" />
    <glyph glyph-name="nine" unicode="9" 
d="M960 845q-74 -110 -183 -179t-241 -69q-124 0 -235 60t-169.5 168.5t-58.5 252.5q0 225 145 393t382 168q279 0 417 -233.5t138 -593.5q0 -398 -175.5 -629t-475.5 -231q-160 0 -312 48v192q170 -80 321 -80q213 0 330 195.5t117 496.5v41zM585 1480q-76 0 -154 -46
t-122.5 -140t-44.5 -207q0 -145 75 -238t215 -93q144 0 237 108t93 262q0 156 -91 255t-208 99z" />
    <glyph glyph-name="colon" unicode=":" 
d="M630 -48q-69 0 -118.5 49t-49.5 118q0 70 50 118.5t118 48.5q67 0 117 -48.5t50 -118.5q0 -69 -49.5 -118t-117.5 -49zM630 843q-69 0 -118.5 49t-49.5 118q0 70 50 118.5t118 48.5q67 0 117 -48.5t50 -118.5q0 -69 -49.5 -118t-117.5 -49z" />
    <glyph glyph-name="semicolon" unicode=";" 
d="M435 -445v127q74 20 112 56t61.5 92t23.5 135q-96 0 -141 54t-45 115q0 71 50.5 119.5t116.5 48.5q86 0 148.5 -74t62.5 -203q0 -113 -49 -213t-133.5 -171t-206.5 -86zM613 843q-69 0 -118 49t-49 118q0 70 50 118.5t117 48.5q68 0 117.5 -48.5t49.5 -118.5
q0 -69 -49 -118t-118 -49z" />
    <glyph glyph-name="less" unicode="&#x3c;" 
d="M73 557l1113 557v-178l-760 -378l760 -383v-175z" />
    <glyph glyph-name="equal" unicode="=" 
d="M1186 811v-159h-1113v159h1113zM1186 453v-159h-1113v159h1113z" />
    <glyph glyph-name="greater" unicode="&#x3e;" 
d="M1186 557l-1113 -557v177l762 379l-762 382v176z" />
    <glyph glyph-name="question" unicode="?" 
d="M411 453v36q0 85 14.5 142t55 118t121.5 147l63 68q19 19 54 63l67 86q87 106 87 184q0 72 -61.5 127.5t-200.5 55.5q-89 0 -182 -24.5t-217 -93.5v184q190 93 397 93q230 0 350.5 -94t120.5 -244q0 -147 -156 -306l-68 -70l-80 -83l-73 -75q-40 -45 -70.5 -103.5
t-30.5 -163.5v-47h-191zM516 -48q-60 0 -103.5 43.5t-43.5 103.5q0 61 43.5 104t103.5 43t103.5 -42.5t43.5 -104.5q0 -61 -44 -104t-103 -43z" />
    <glyph glyph-name="at" unicode="@" 
d="M944 205v-161q-86 -56 -152.5 -74t-143.5 -18q-213 0 -349 104t-216.5 290t-80.5 455q0 373 171.5 605.5t462.5 232.5q288 0 455.5 -205.5t167.5 -539.5q0 -148 -43 -242.5t-113.5 -150.5t-171.5 -56q-78 0 -127 34.5t-74 158.5q-29 -67 -88.5 -130t-160.5 -63
q-106 0 -175 96t-69 235q0 171 99 318t357 147h196v-449q0 -90 6.5 -127t27.5 -56.5t46 -19.5q40 0 80.5 38t61.5 108.5t21 152.5q0 171 -62.5 332.5t-185.5 230.5t-257 69q-143 0 -251 -86t-177.5 -257t-69.5 -378q0 -208 69 -385.5t185.5 -259.5t260.5 -82q163 0 300 133z
M730 830v275h-37q-121 0 -174 -38t-84 -119t-31 -178q0 -79 24.5 -122t67.5 -43q61 0 124 70t110 155z" />
    <glyph glyph-name="A" unicode="A" 
d="M233 0h-199l490 1591h210l493 -1591h-218l-109 350h-560zM390 509h464l-192 604l-45 160l-40 -160z" />
    <glyph glyph-name="B" unicode="B" 
d="M176 0v1591h311q280 0 375 -42.5t142 -125.5t47 -189q0 -85 -27.5 -160t-82 -137t-158.5 -118q190 -76 257 -186.5t67 -221.5q0 -105 -56.5 -204.5t-159 -153t-328.5 -53.5h-387zM383 875h218q105 44 154 92.5t73 108.5t24 132q0 113 -66 168t-258 55h-145v-556zM383 159
h196q164 0 242.5 77.5t78.5 185.5q0 80 -43 147.5t-133 107t-283 39.5h-58v-557z" />
    <glyph glyph-name="C" unicode="C" 
d="M1116 18q-179 -66 -320 -66q-187 0 -344 100t-244 297.5t-87 446.5q0 247 86 444t243 298.5t346 101.5q141 0 320 -67v-189q-165 96 -328 96q-124 0 -226 -84.5t-164.5 -247t-62.5 -352.5q0 -194 65 -358t165 -245.5t223 -81.5q162 0 328 95v-188z" />
    <glyph glyph-name="D" unicode="D" 
d="M159 0v1591h377q261 0 387.5 -90.5t190 -274t63.5 -434.5q0 -238 -67 -418t-190 -277t-384 -97h-377zM366 175h138q211 0 300.5 75t128 208t38.5 366q0 229 -45 352t-129 189t-276 66h-155v-1256z" />
    <glyph glyph-name="E" unicode="E" 
d="M1067 175v-175h-859v1591h843v-160h-636v-540h572v-159h-572v-557h652z" />
    <glyph glyph-name="F" unicode="F" 
d="M233 0v1591h874v-160h-667v-540h604v-159h-604v-732h-207z" />
    <glyph glyph-name="G" unicode="G" 
d="M1116 1q-169 -49 -309 -49q-199 0 -354.5 98.5t-243.5 297t-88 448.5q0 247 86 444t243 298.5t345 101.5q141 0 320 -67v-189q-165 96 -329 96q-123 0 -225 -84.5t-164 -247t-62 -354.5q0 -259 118 -471t372 -212q33 0 83 5v513h-158v159h366v-787z" />
    <glyph glyph-name="H" unicode="H" 
d="M129 0v1591h207v-685h589v685h206v-1591h-206v748h-589v-748h-207z" />
    <glyph glyph-name="I" unicode="I" 
d="M176 0v159h350v1272h-350v160h907v-160h-350v-1272h350v-159h-907z" />
    <glyph glyph-name="J" unicode="J" 
d="M113 35v195q223 -118 374 -118q79 0 144 30.5t103.5 103t38.5 309.5v876h-358v160h565v-1041q0 -255 -58 -366.5t-162.5 -171.5t-267.5 -60q-182 0 -379 83z" />
    <glyph glyph-name="K" unicode="K" 
d="M161 0v1591h207v-780l592 780h219l-571 -755l651 -836h-259l-632 811v-811h-207z" />
    <glyph glyph-name="L" unicode="L" 
d="M1084 175v-175h-859v1591h207v-1416h652z" />
    <glyph glyph-name="M" unicode="M" 
d="M225 0h-168v1591h209l367 -1048l367 1048h203v-1591h-191v1014l5 140h-5l-45 -140l-246 -696h-207l-249 696l-40 140h-6l6 -140v-1014z" />
    <glyph glyph-name="N" unicode="N" 
d="M320 0h-191v1591h187l563 -1059l61 -158h5l-5 158v1059h191v-1591h-191l-547 1042l-77 167l4 -165v-1044z" />
    <glyph glyph-name="O" unicode="O" 
d="M630 -48q-271 0 -414 228t-143 616q0 386 143 614.5t414 228.5t413.5 -228.5t142.5 -614.5q0 -388 -142.5 -616t-413.5 -228zM630 112q149 0 249 169.5t100 514.5q0 344 -100 514t-249 170q-150 0 -250 -170t-100 -514q0 -345 100 -514.5t250 -169.5z" />
    <glyph glyph-name="P" unicode="P" 
d="M388 580v-580h-208v1591h396q244 0 356 -54.5t171.5 -160.5t59.5 -236q0 -153 -80 -285t-223 -203.5t-388 -71.5h-84zM388 739h89q192 0 285 50t143.5 143t50.5 202q0 137 -90 217t-354 80h-124v-692z" />
    <glyph glyph-name="Q" unicode="Q" 
d="M765 -30q72 -119 128.5 -165t146.5 -68.5t200 -22.5h18v-159h-48q-198 0 -288 41t-170 126t-146 232q-188 20 -297 118.5t-172.5 304.5t-63.5 443q0 347 138.5 583t418.5 236q270 0 413 -228t143 -616q0 -185 -37 -353.5t-129 -296.5t-255 -175zM630 1480
q-150 0 -250 -170t-100 -514q0 -345 100 -514.5t250 -169.5q149 0 249 169.5t100 514.5q0 344 -100 514t-249 170z" />
    <glyph glyph-name="R" unicode="R" 
d="M360 676v-676h-207v1591h425q208 0 306.5 -42.5t152.5 -128.5t54 -185q0 -93 -36 -186t-99 -166.5t-182 -139.5l461 -743h-247l-421 676h-207zM360 836h290q98 53 145.5 108.5t72 118t24.5 124.5q0 112 -81.5 178t-295.5 66h-155v-595z" />
    <glyph glyph-name="S" unicode="S" 
d="M161 34v195q246 -117 447 -117q84 0 161 32t116.5 92.5t39.5 131.5q0 83 -54.5 155.5t-203.5 159.5l-105 60l-106 61q-279 165 -279 410q0 180 125 302.5t389 122.5q170 0 329 -50v-177q-175 68 -341 68q-132 0 -214 -70t-82 -168t63 -162.5t160 -118.5l80 -48l99 -61
l85 -49q261 -160 261 -402q0 -185 -134.5 -317t-430.5 -132q-94 0 -180 16t-225 66z" />
    <glyph glyph-name="T" unicode="T" 
d="M526 0v1416h-477v175h1162v-175h-478v-1416h-207z" />
    <glyph glyph-name="U" unicode="U" 
d="M129 1591h207v-1044q0 -207 34.5 -282t106 -114.5t158.5 -39.5q92 0 164.5 42.5t106.5 133t34 341.5v963h191v-1038q0 -223 -66 -348.5t-173 -189t-269 -63.5q-149 0 -263 55.5t-172.5 166t-58.5 399.5v1018z" />
    <glyph glyph-name="V" unicode="V" 
d="M1028 1591h199l-490 -1591h-210l-493 1591h218l346 -1111l45 -162l40 161z" />
    <glyph glyph-name="W" unicode="W" 
d="M213 0l-184 1591h188l109 -969l14 -161h6l20 161l167 969h189l191 -1008l19 -153h5l13 154l119 1007h162l-192 -1591h-196l-205 1079l-22 162h-5l-19 -162l-185 -1079h-194z" />
    <glyph glyph-name="X" unicode="X" 
d="M265 0h-216l466 832l-421 759h235l305 -548l311 548h217l-421 -744l470 -847h-239l-350 635z" />
    <glyph glyph-name="Y" unicode="Y" 
d="M527 0v736l-474 855h235l354 -631l353 631h212l-473 -855v-736h-207z" />
    <glyph glyph-name="Z" unicode="Z" 
d="M125 0v175l756 1256h-732v160h971v-160l-755 -1256h770v-175h-1010z" />
    <glyph glyph-name="bracketleft" unicode="[" 
d="M364 -381v2068h828v-160h-637v-1750h637v-158h-828z" />
    <glyph glyph-name="backslash" unicode="\" 
d="M1040 -48l-1006 1687h181l1012 -1687h-187z" />
    <glyph glyph-name="bracketright" unicode="]" 
d="M896 1687v-2068h-827v158h636v1750h-636v160h827z" />
    <glyph glyph-name="asciicircum" unicode="^" 
d="M630 1591l556 -1114h-175l-381 766l-382 -766h-175z" />
    <glyph glyph-name="underscore" unicode="_" 
d="M73 -159v159h1113v-159h-1113z" />
    <glyph glyph-name="grave" unicode="`" 
d="M853 1321h-174l-351 334h222z" />
    <glyph glyph-name="a" unicode="a" 
d="M912 257q-88 -143 -210.5 -216t-224.5 -73q-144 0 -258 124t-114 377q0 199 75.5 355t203 247t314.5 91q55 0 164 -12q17 -2 50 -5h191v-809q0 -207 43 -336h-199q-22 94 -35 257zM912 484v491q-102 27 -189 27q-176 0 -293.5 -136.5t-117.5 -371.5q0 -170 64 -256.5
t146 -86.5q89 0 196.5 90t193.5 243z" />
    <glyph glyph-name="b" unicode="b" 
d="M335 888q88 144 210.5 216.5t224.5 72.5q144 0 258.5 -124t114.5 -376q0 -199 -76 -355.5t-203.5 -247t-314.5 -90.5q-54 0 -164 11q-17 2 -50 5h-190v1655h190v-767zM335 661v-491q104 -26 191 -26q173 0 291.5 135.5t118.5 371.5q0 171 -64.5 257.5t-146.5 86.5
q-89 0 -196.5 -90.5t-193.5 -243.5z" />
    <glyph glyph-name="c" unicode="c" 
d="M1123 33q-192 -65 -365 -65t-306.5 79.5t-208.5 215.5t-75 309q0 261 170 433t410 172q177 0 375 -67v-183q-200 91 -358 91q-105 0 -197 -51.5t-142.5 -161.5t-50.5 -226q0 -154 97 -294.5t304 -140.5q63 0 123.5 8.5t223.5 63.5v-183z" />
    <glyph glyph-name="d" unicode="d" 
d="M924 257q-87 -143 -209.5 -216t-225.5 -73q-143 0 -257.5 124t-114.5 377q0 199 76 355t203 247t315 91q54 0 164 -12q16 -2 49 -5v510h192v-1655h-192v257zM924 484v491q-102 27 -189 27q-176 0 -293.5 -136.5t-117.5 -371.5q0 -170 64 -256.5t146 -86.5q89 0 197 90
t193 243z" />
    <glyph glyph-name="e" unicode="e" 
d="M1112 76q-229 -109 -433 -109q-155 0 -277 77t-195.5 220t-73.5 306q0 157 70 301.5t195 225t279 80.5q204 0 327.5 -145.5t123.5 -449.5v-41h-790q0 -119 50 -217t131 -147.5t184 -49.5q185 0 409 123v-174zM350 684h571v28q0 140 -69 223t-183 83q-116 0 -201 -84.5
t-118 -249.5z" />
    <glyph glyph-name="f" unicode="f" 
d="M426 0v891h-255v159h255v53q0 227 51 335.5t158 178.5t284 70q133 0 270 -28v-181q-148 49 -263 49q-91 0 -161 -34t-109.5 -110.5t-39.5 -258.5v-74h455v-159h-455v-891h-190z" />
    <glyph glyph-name="g" unicode="g" 
d="M924 257q-87 -143 -209.5 -216t-225.5 -73q-143 0 -257.5 124t-114.5 377q0 199 76 355t203 247t315 91q54 0 164 -12q16 -2 49 -5h192v-810q0 -289 -8 -353t-25 -130q-41 -152 -187 -240.5t-354 -88.5t-421 107v193q81 -56 199.5 -98.5t229.5 -42.5q87 0 165 27.5
t126 80.5q48 52 65.5 121.5t17.5 183.5v162zM924 484v491q-102 27 -189 27q-176 0 -293.5 -136.5t-117.5 -371.5q0 -170 64 -256.5t146 -86.5q89 0 197 90t193 243z" />
    <glyph glyph-name="h" unicode="h" 
d="M159 0v1655h191v-760q82 132 197.5 207t231.5 75q98 0 178.5 -49.5t111.5 -120.5q26 -54 35.5 -115t9.5 -252v-640h-191v663q0 166 -16 218.5t-58.5 86.5t-92.5 34q-101 0 -216 -95.5t-190 -238.5v-668h-191z" />
    <glyph glyph-name="i" unicode="i" 
d="M480 0v986h-318v159h509v-986h319v-159h-510zM448 1559q0 64 44 96t83 32q40 0 84 -32t44 -96t-44 -96t-84 -32q-39 0 -83 32t-44 96z" />
    <glyph glyph-name="j" unicode="j" 
d="M176 -449v178q160 -47 270 -47q95 0 162 33.5t104.5 112.5t37.5 275v883h-486v159h676v-1007q0 -291 -68.5 -404t-166 -162.5t-266.5 -49.5q-122 0 -263 29zM718 1559q0 64 43.5 96t83.5 32t83.5 -32t43.5 -96t-43.5 -96t-83.5 -32t-83.5 32t-43.5 96z" />
    <glyph glyph-name="k" unicode="k" 
d="M210 0v1655h191v-1040l551 530h254l-550 -530l564 -615h-262l-557 615v-615h-191z" />
    <glyph glyph-name="l" unicode="l" 
d="M467 0v1495h-343v160h533v-1496h358v-159h-548z" />
    <glyph glyph-name="m" unicode="m" 
d="M73 0v1145h167v-262q79 167 147 230.5t138 63.5q83 0 134 -65t51 -185v-62q33 105 81 170t99 103.5t118 38.5q74 0 126 -62.5t52 -249.5v-865h-167v782q0 97 -6 132.5t-24.5 53.5t-40.5 18q-53 0 -114 -81.5t-124 -269.5v-635h-160v781q0 152 -30 178.5t-53 26.5
q-53 0 -113 -91t-114 -234v-661h-167z" />
    <glyph glyph-name="n" unicode="n" 
d="M159 0v1145h191v-250q82 132 197.5 207t231.5 75q102 0 185 -54t116.5 -141t33.5 -342v-640h-191v663q0 166 -16 218.5t-58.5 86.5t-92.5 34q-101 0 -216 -95.5t-190 -238.5v-668h-191z" />
    <glyph glyph-name="o" unicode="o" 
d="M631 -32q-246 0 -394 172t-148 433q0 262 148 433t394 171q245 0 392.5 -171t147.5 -433q0 -261 -147.5 -433t-392.5 -172zM631 127q152 0 242.5 119t90.5 327q0 207 -90.5 326t-242.5 119q-154 0 -244.5 -119t-90.5 -326q0 -208 90.5 -327t244.5 -119z" />
    <glyph glyph-name="p" unicode="p" 
d="M335 888q88 144 210.5 216.5t224.5 72.5q144 0 258.5 -124t114.5 -376q0 -199 -76 -355.5t-203.5 -247t-314.5 -90.5q-54 0 -164 11q-17 2 -50 5v-445h-190v1590h190v-257zM335 661v-491q104 -26 191 -26q173 0 291.5 135.5t118.5 371.5q0 171 -64.5 257.5t-146.5 86.5
q-89 0 -196.5 -90.5t-193.5 -243.5z" />
    <glyph glyph-name="q" unicode="q" 
d="M924 257q-87 -143 -209.5 -216t-225.5 -73q-143 0 -257.5 124t-114.5 377q0 199 76 355t203 247t315 91q54 0 164 -12q16 -2 49 -5h192v-1590h-192v702zM924 484v491q-102 27 -189 27q-176 0 -293.5 -136.5t-117.5 -371.5q0 -170 64 -256.5t146 -86.5q89 0 197 90
t193 243z" />
    <glyph glyph-name="r" unicode="r" 
d="M256 0v1145h191v-250q89 142 204.5 212t256.5 70q104 0 208 -32v-413h-184v262q-48 8 -76 8q-106 0 -209 -84t-200 -253v-665h-191z" />
    <glyph glyph-name="s" unicode="s" 
d="M172 60v203q115 -75 243 -105.5t218 -30.5q144 0 207.5 46.5t63.5 116.5q0 46 -29 79q-30 33 -148 81l-66 27l-132 52q-213 83 -269 154q-56 70 -56 170q0 142 109 233t355 91q183 0 347 -53v-173q-189 67 -355 67q-121 0 -189 -42.5t-68 -105.5q0 -62 59 -99t191 -85
l129 -47q178 -65 250 -141q71 -76 71 -189q0 -149 -114 -245t-366 -96q-219 0 -451 92z" />
    <glyph glyph-name="t" unicode="t" 
d="M1117 46q-135 -56 -195.5 -67t-116.5 -11q-120 0 -219.5 46t-150 136.5t-50.5 279.5v461h-287v159h287v461h190v-461h510v-159h-510v-458q0 -139 33 -196t88 -83.5t129 -26.5q139 0 292 87v-168z" />
    <glyph glyph-name="u" unicode="u" 
d="M1101 1145v-1145h-190v251q-93 -141 -205.5 -212t-225.5 -71q-101 0 -184.5 54t-116 141.5t-32.5 342.5v639h190v-663q0 -165 16 -218t58.5 -86.5t91.5 -33.5q101 0 216.5 94.5t191.5 239.5v667h190z" />
    <glyph glyph-name="v" unicode="v" 
d="M531 0l-497 1145h209l393 -906l401 906h190l-501 -1145h-195z" />
    <glyph glyph-name="w" unicode="w" 
d="M207 0l-186 1145h177l109 -697l28 -162l28 162l183 697h171l206 -697l36 -162l23 162l110 697h147l-186 -1145h-178l-220 737l-35 162h-5l-32 -161l-190 -738h-186z" />
    <glyph glyph-name="x" unicode="x" 
d="M278 0h-221l451 600l-421 545h244l299 -384l290 384h216l-398 -527l473 -618h-245l-349 456z" />
    <glyph glyph-name="y" unicode="y" 
d="M580 46l-529 1099h210l422 -859l353 859h191l-444 -1064q-140 -337 -266.5 -448t-327.5 -111q-87 0 -156 16v168q79 -25 151 -25q92 0 163.5 36t131 127t84.5 158z" />
    <glyph glyph-name="z" unicode="z" 
d="M136 0v175l703 811h-686v159h938v-159l-708 -811h732v-175h-979z" />
    <glyph glyph-name="braceleft" unicode="{" 
d="M561 652q95 -50 139.5 -98t67 -99t22.5 -117q0 -58 -21 -152l-26 -117q-20 -96 -20 -142q0 -62 48.5 -106t200.5 -44h159v-158h-161q-281 0 -362 90t-81 204q0 60 15 130l19 82l17 89l13 55q7 38 7 73q0 96 -64 163.5t-226 67.5h-92v159h92q160 0 225 66.5t65 166.5
q0 37 -7 72l-13 53l-17 89l-19 82q-15 71 -15 131q0 113 81 204t362 91h161v-160h-159q-151 0 -200 -43.5t-49 -107.5q0 -45 20 -140l26 -117q21 -95 21 -153q0 -66 -22.5 -116.5t-67 -99t-139.5 -98.5z" />
    <glyph glyph-name="bar" unicode="|" 
d="M547 -48v1687h167v-1687h-167z" />
    <glyph glyph-name="braceright" unicode="}" 
d="M699 652q-95 50 -139.5 98.5t-66 99t-21.5 116.5q0 58 19 153l26 117q20 95 20 141q0 63 -48.5 106.5t-200.5 43.5h-159v160h161q281 0 362.5 -91t81.5 -204q0 -61 -16 -131l-19 -82l-17 -89l-12 -53q-8 -39 -8 -75q0 -95 64.5 -162.5t226.5 -67.5h91v-159h-91
q-160 0 -225.5 -67t-65.5 -167q0 -35 8 -70l12 -55l17 -89l19 -82q16 -71 16 -131q0 -114 -81.5 -203.5t-362.5 -89.5h-161v158h159q152 0 200.5 44t48.5 107q0 45 -20 141l-26 117q-19 94 -19 152q0 66 21.5 117t66 99t139.5 98z" />
    <glyph glyph-name="asciitilde" unicode="~" 
d="M57 413v19q0 134 79.5 233t214.5 99q34 0 66 -6.5t73 -22.5t123 -62l124 -69q114 -63 186 -63q76 0 112.5 55t36.5 120v16h131v-16q0 -172 -97 -253.5t-206 -81.5q-101 0 -268 96l-105 60q-119 68 -192 68q-41 0 -76 -21.5t-57 -68.5t-22 -83v-19h-123z" />
    <glyph glyph-name="nonbreakingspace" unicode="&#xa0;" 
 />
    <glyph glyph-name="exclamdown" unicode="&#xa1;" 
d="M718 676l47 -1137h-254l48 1137h159zM631 1177q57 0 101.5 -44t44.5 -102q0 -60 -44.5 -104t-101.5 -44q-59 0 -103.5 44t-44.5 104q0 58 44.5 102t103.5 44z" />
    <glyph glyph-name="cent" unicode="&#xa2;" 
d="M622 -159v355q-152 18 -261.5 98t-174.5 205.5t-65 285.5t60.5 284.5t167.5 206.5t273 111v363h159v-363q171 -19 295 -57v-184q-37 22 -82.5 38.5t-95.5 29.5t-117 20v-888q82 9 126.5 21t133.5 53q12 7 35 17v-185q-153 -50 -295 -56v-355h-159zM622 354v871
q-157 -49 -225.5 -169t-68.5 -272q0 -129 61.5 -255.5t232.5 -174.5z" />
    <glyph glyph-name="sterling" unicode="&#xa3;" 
d="M145 0v175q95 22 139.5 64.5t67.5 124t23 207.5v217h-230v158h230v71q0 273 52.5 390t149 174.5t230.5 57.5q127 0 269 -60v-184q-162 85 -292 85q-58 0 -112 -38.5t-80 -117.5t-26 -297v-81h334v-158h-334v-120q0 -192 -22.5 -292t-131.5 -201h727v-175h-994z" />
    <glyph glyph-name="currency" unicode="&#xa4;" 
d="M1068 1416l118 -103l-188 -218q75 -104 91 -168.5t16 -132.5q0 -70 -16 -135t-91 -170l188 -216l-118 -98l-189 212q-94 -50 -146.5 -59.5t-102.5 -9.5q-51 0 -103.5 9.5t-146.5 59.5l-189 -212l-118 98l188 216q-74 105 -90.5 170t-16.5 135q0 68 16.5 132.5t90.5 168.5
l-188 218l118 103l189 -216q91 55 147.5 64t102.5 9q45 0 102 -9t147 -64zM630 477q122 0 218.5 88.5t96.5 224.5q0 88 -42.5 164.5t-119.5 118t-153 41.5q-77 0 -154 -41.5t-119.5 -118t-42.5 -164.5q0 -136 97 -224.5t219 -88.5z" />
    <glyph glyph-name="yen" unicode="&#xa5;" 
d="M535 0v254h-334v144h334v199h-334v142h325l-473 852h211l376 -658l377 658h190l-481 -852h326v-142h-326v-199h326v-144h-326v-254h-191z" />
    <glyph glyph-name="brokenbar" unicode="&#xa6;" 
d="M547 -48v748h167v-748h-167zM547 891v748h167v-748h-167z" />
    <glyph glyph-name="section" unicode="&#xa7;" 
d="M153 -309v206q104 -56 223.5 -88t216.5 -32q152 0 233.5 63t81.5 134q0 60 -39 105q-42 44 -176 120l-151 85q-201 113 -283.5 214.5t-82.5 213.5q0 167 149 303q-66 49 -99 112t-33 140q0 100 57 185t160.5 136t264.5 51q151 0 345 -59v-182q-62 32 -168.5 57t-186.5 25
q-139 0 -202.5 -55.5t-63.5 -123.5q0 -36 18 -67.5t54 -60.5q70 -56 129 -91l64 -36l153 -90q198 -117 257 -205q57 -90 57 -196q0 -168 -148 -305q95 -78 114 -139.5t19 -108.5q0 -96 -68.5 -192t-183 -143.5t-279.5 -47.5q-225 0 -432 72zM854 327q103 82 103 191
q0 74 -66.5 144t-152.5 119l-96 55l-189 107q-59 -67 -72.5 -108.5t-13.5 -79.5q0 -83 56.5 -147.5t259.5 -180.5z" />
    <glyph glyph-name="dieresis" unicode="&#xa8;" 
d="M407 1321q-52 0 -89.5 37t-37.5 90t38 90t89 37t89 -37t38 -90t-37.5 -90t-89.5 -37zM853 1321q-52 0 -90 37t-38 90t38.5 90t89.5 37t89 -37t38 -90t-38 -90t-89 -37z" />
    <glyph glyph-name="copyright" unicode="&#xa9;" 
d="M631 -48q-199 0 -331.5 103.5t-215 298.5t-82.5 442q0 238 76.5 428.5t211.5 302.5t341 112q199 0 331.5 -105t214.5 -298.5t82 -439.5q0 -247 -82.5 -442t-214.5 -298.5t-331 -103.5zM631 80q131 0 246 82.5t185 259t70 374.5q0 197 -70.5 374t-185.5 259t-245 82
q-134 0 -250 -85.5t-184 -261.5t-68 -368q0 -200 72 -378.5t185.5 -258t244.5 -79.5zM917 444v-156q-93 -34 -220 -34q-134 0 -238 72.5t-165 195t-61 273.5q0 149 59 275.5t154.5 196t235.5 69.5q104 0 235 -33v-163q-39 13 -85.5 21t-81.5 12.5t-59 4.5
q-130 0 -206.5 -105.5t-76.5 -279.5q0 -192 90 -293.5t220 -101.5q84 0 199 46z" />
    <glyph glyph-name="ordfeminine" unicode="&#xaa;" 
d="M861 1087q-59 -78 -158.5 -125t-188.5 -47q-115 0 -206.5 75t-91.5 230q0 121 60 215t161 149t254 55q46 0 132 -6l37 -3h144v-488q0 -50 5.5 -96.5t42.5 -114.5h-159q-20 60 -32 156zM860 1239l-1 261q-80 11 -150 11q-140 0 -237 -73.5t-97 -206.5q0 -91 51.5 -136
t121.5 -45q73 0 162.5 53.5t149.5 135.5z" />
    <glyph glyph-name="guillemotleft" unicode="&#xab;" 
d="M642 493v159l394 430l116 -112l-320 -397l320 -409l-116 -100zM157 493v159l394 430l114 -112l-318 -397l318 -409l-114 -100z" />
    <glyph glyph-name="logicalnot" unicode="&#xac;" 
d="M1186 637v-478h-159v318h-954v160h1113z" />
    <glyph glyph-name="registered" unicode="&#xae;" 
d="M631 -48q-199 0 -331.5 103.5t-215 298.5t-82.5 442q0 238 76.5 428.5t211.5 302.5t341 112q199 0 331.5 -105t214.5 -298.5t82 -439.5q0 -247 -82.5 -442t-214.5 -298.5t-331 -103.5zM631 80q131 0 246 82.5t185 259t70 374.5q0 197 -70.5 374t-185.5 259t-245 82
q-134 0 -250 -85.5t-184 -261.5t-68 -368q0 -200 72 -378.5t185.5 -258t244.5 -79.5zM507 736v-388h-143v937h226q180 0 244 -66t64 -151q0 -76 -43 -154.5t-135 -131.5l242 -434h-170l-201 388h-84zM507 850h118q66 37 98.5 84.5t32.5 107.5t-42.5 95t-160.5 35h-46v-322z
" />
    <glyph glyph-name="macron" unicode="&#xaf;" 
d="M344 1321v127h573v-127h-573z" />
    <glyph glyph-name="degree" unicode="&#xb0;" 
d="M631 1082q-117 0 -198 82.5t-81 195.5q0 116 82.5 197.5t196.5 81.5q113 0 195 -81.5t82 -197.5q0 -113 -81 -195.5t-196 -82.5zM631 1177q77 0 129.5 55.5t52.5 127.5q0 75 -54 129t-128 54q-76 0 -130 -54t-54 -129q0 -72 53 -127.5t131 -55.5z" />
    <glyph glyph-name="plusminus" unicode="&#xb1;" 
d="M1186 955v-159h-476v-478h-160v478h-477v159h477v476h160v-476h476zM1186 159v-159h-1113v159h1113z" />
    <glyph glyph-name="twosuperior" unicode="&#xb2;" 
d="M1015 660h-771v119q0 61 50.5 130t187.5 172l86 63q149 112 211 167t62 99q0 51 -71.5 76t-142.5 25q-55 0 -125 -7t-226 -51v128q181 58 375 58q183 0 266 -60t83 -152q0 -67 -50 -134q-51 -68 -194 -171l-94 -67l-78 -55q-73 -55 -120.5 -102.5t-54.5 -101.5h606v-136z
" />
    <glyph glyph-name="threesuperior" unicode="&#xb3;" 
d="M268 678v146q183 -60 328 -60q133 0 216.5 51.5t83.5 124.5q0 87 -102 130.5t-306 43.5h-85v127h117q158 0 235.5 49t77.5 109q0 49 -63.5 80.5t-181.5 31.5q-136 0 -297 -44v136q162 36 292 36q218 0 317 -69q41 -28 66.5 -71.5t25.5 -86.5q0 -54 -39 -113.5
t-135 -100.5q114 -30 175.5 -94t61.5 -154q0 -141 -131.5 -227t-348.5 -86q-164 0 -307 41z" />
    <glyph glyph-name="acute" unicode="&#xb4;" 
d="M328 1321l304 334h221l-351 -334h-174z" />
    <glyph glyph-name="mu" unicode="&#xb5;" 
d="M1103 1145v-1145h-190v248q-78 -145 -179.5 -212.5t-201.5 -67.5q-35 0 -73.5 8.5t-67 21t-75.5 50.5v-429h-191v1526h191v-665q0 -194 60.5 -270t150.5 -76t174.5 67.5t211.5 268.5v675h190z" />
    <glyph glyph-name="paragraph" unicode="&#xb6;" 
d="M566 -381v1081q-241 25 -359 154.5t-118 298.5q0 114 57.5 220t160.5 162t353 56h551v-160h-167v-1812h-159v1812h-159v-1812h-160z" />
    <glyph glyph-name="periodcentered" unicode="&#xb7;" 
d="M630 724q71 0 119 -52t48 -115q0 -64 -48 -115.5t-119 -51.5q-72 0 -120 51.5t-48 115.5q0 63 48 115t120 52z" />
    <glyph glyph-name="cedilla" unicode="&#xb8;" 
d="M702 0l-74 -134q109 -22 143 -67.5t34 -94.5q0 -57 -45 -103.5t-142 -46.5q-85 0 -163 29v91q60 -32 122 -32q36 0 65 21.5t29 45.5q0 70 -191 89l112 202h110z" />
    <glyph glyph-name="onesuperior" unicode="&#xb9;" 
d="M594 788v679q-149 -83 -318 -125v129q186 56 322 144h139v-827h310v-128h-771v128h318z" />
    <glyph glyph-name="ordmasculine" unicode="&#xba;" 
d="M630 906q-224 0 -334.5 110t-110.5 257t110.5 256.5t334.5 109.5t335 -109.5t111 -256.5t-111 -257t-335 -110zM630 1034q127 0 207 61.5t80 177.5q0 115 -80 176.5t-207 61.5t-206.5 -61.5t-79.5 -176.5q0 -116 79.5 -177.5t206.5 -61.5z" />
    <glyph glyph-name="guillemotright" unicode="&#xbb;" 
d="M617 652v-159l-392 -429l-116 111l320 398l-320 408l116 101zM1103 652v-159l-393 -429l-116 111l320 398l-320 408l116 101z" />
    <glyph glyph-name="onequarter" unicode="&#xbc;" 
d="M2 796v127h239v510l-239 -158v158l239 158h167v-668h119v-127h-525zM170 -48h-168l1084 1687h173zM1107 0h-159v159h-421v127l421 502h159v-502h152v-127h-152v-159zM948 286v301l-251 -301h251z" />
    <glyph glyph-name="onehalf" unicode="&#xbd;" 
d="M2 796v127h239v510l-239 -158v158l239 158h167v-668h119v-127h-525zM166 -48h-164l1085 1687h172zM1211 0h-565v127q0 31 50 96t174 152l61 43q88 63 105 90q16 25 16 59q0 52 -42 72.5t-93 20.5q-84 0 -199 -61v133q137 56 235 56q122 0 190 -60t68 -153q0 -75 -54 -134
q-55 -61 -148 -121l-46 -31q-57 -37 -93 -72q-19 -17 -32 -34t-25 -56h398v-127z" />
    <glyph glyph-name="threequarters" unicode="&#xbe;" 
d="M129 1130v127h83q142 0 173 37.5t31 71.5t-30 65.5t-100 31.5q-71 0 -204 -41v125q135 44 247 44q133 0 189.5 -64.5t56.5 -135.5q0 -56 -29.5 -102.5t-90.5 -83.5q72 -29 108 -72.5t36 -103.5q0 -86 -77 -159.5t-229 -73.5q-105 0 -211 34v141q147 -48 222 -48
q55 0 95.5 27t40.5 70q0 47 -45.5 78.5t-190.5 31.5h-75zM170 -48h-168l1084 1687h173zM1107 0h-159v159h-421v127l421 502h159v-502h152v-127h-152v-159zM948 286v301l-251 -301h251z" />
    <glyph glyph-name="questiondown" unicode="&#xbf;" 
d="M849 676v-36q0 -84 -14.5 -141t-55.5 -118t-122 -147l-63 -69q-18 -18 -54 -62l-67 -86q-85 -106 -85 -184q0 -72 61.5 -127.5t198.5 -55.5q89 0 182.5 24t217.5 93v-183q-191 -94 -398 -94q-230 0 -350 94.5t-120 243.5q0 147 155 307l69 70l79 82l74 75q40 46 70 104
t30 163v47h192zM743 875q-60 0 -103 43.5t-43 103.5q0 61 43 104t103 43t104 -42.5t44 -104.5q0 -61 -44 -104t-104 -43z" />
    <glyph glyph-name="Agrave" unicode="&#xc0;" 
d="M233 0h-199l490 1591h210l493 -1591h-218l-109 350h-560zM390 509h464l-192 604l-45 160l-40 -160zM890 1766h-174l-351 334h222z" />
    <glyph glyph-name="Aacute" unicode="&#xc1;" 
d="M233 0h-199l490 1591h210l493 -1591h-218l-109 350h-560zM390 509h464l-192 604l-45 160l-40 -160zM365 1766l304 334h221l-351 -334h-174z" />
    <glyph glyph-name="Acircumflex" unicode="&#xc2;" 
d="M233 0h-199l490 1591h210l493 -1591h-218l-109 350h-560zM390 509h464l-192 604l-45 160l-40 -160zM631 1938l-144 -172h-159l239 334h127l239 -334h-160z" />
    <glyph glyph-name="Atilde" unicode="&#xc3;" 
d="M233 0h-199l490 1591h210l493 -1591h-218l-109 350h-560zM390 509h464l-192 604l-45 160l-40 -160zM434 1766h-128q0 135 52.5 198.5t132.5 63.5q64 0 129 -41l43 -25q86 -54 119 -54q62 0 62 120h130q-6 -104 -27.5 -152.5t-66 -79.5t-98.5 -31q-66 0 -144 50l-45 29
l-25 17q-35 24 -67 24q-22 0 -44.5 -23.5t-22.5 -95.5z" />
    <glyph glyph-name="Adieresis" unicode="&#xc4;" 
d="M233 0h-199l490 1591h210l493 -1591h-218l-109 350h-560zM390 509h464l-192 604l-45 160l-40 -160zM407 1766q-52 0 -89.5 37t-37.5 90t38 90t89 37t89 -37t38 -90t-37.5 -90t-89.5 -37zM853 1766q-52 0 -90 37t-38 90t38.5 90t89.5 37t89 -37t38 -90t-38 -90t-89 -37z
" />
    <glyph glyph-name="Aring" unicode="&#xc5;" 
d="M734 1591l493 -1591h-218l-109 350h-560l-107 -350h-199l490 1591q-43 32 -64.5 71.5t-21.5 87.5q0 77 56 134t135 57t134.5 -56.5t55.5 -134.5q0 -47 -21 -87t-64 -72zM390 509h464l-192 604l-45 160l-40 -160zM533 1750q0 -39 28.5 -67t67.5 -28t67 28t28 67t-28 67.5
t-67 28.5t-67.5 -29t-28.5 -67z" />
    <glyph glyph-name="AE" unicode="&#xc6;" 
d="M654 0v381h-322l-156 -381h-174l652 1591h557v-160h-366v-548h351v-159h-351v-549h366v-175h-557zM391 525h263v638z" />
    <glyph glyph-name="Ccedilla" unicode="&#xc7;" 
d="M1116 1573v-189q-165 96 -328 96q-124 0 -226 -84.5t-164.5 -247t-62.5 -352.5q0 -194 65 -358t165 -245.5t223 -81.5q162 0 328 95v-188q-132 -47 -197.5 -57.5t-147.5 -10.5l-46 -84q110 -22 143.5 -67.5t33.5 -94.5q0 -57 -45 -103.5t-141 -46.5q-85 0 -163 29v91
q59 -32 122 -32q36 0 64.5 21.5t28.5 45.5q0 70 -191 89l91 164q-199 50 -317.5 168.5t-174 276t-55.5 366.5q0 413 192.5 640t482.5 227q141 0 320 -67z" />
    <glyph glyph-name="Egrave" unicode="&#xc8;" 
d="M1067 175v-175h-859v1591h843v-160h-636v-540h572v-159h-572v-557h652zM901 1766h-174l-351 334h222z" />
    <glyph glyph-name="Eacute" unicode="&#xc9;" 
d="M1067 175v-175h-859v1591h843v-160h-636v-540h572v-159h-572v-557h652zM376 1766l304 334h221l-350 -334h-175z" />
    <glyph glyph-name="Ecircumflex" unicode="&#xca;" 
d="M1067 175v-175h-859v1591h843v-160h-636v-540h572v-159h-572v-557h652zM631 1938l-144 -172h-159l239 334h127l239 -334h-160z" />
    <glyph glyph-name="Edieresis" unicode="&#xcb;" 
d="M1067 175v-175h-859v1591h843v-160h-636v-540h572v-159h-572v-557h652zM415 1766q-52 0 -89.5 37t-37.5 90t38 90t89 37q52 0 89.5 -37t37.5 -90t-37 -90t-90 -37zM861 1766q-52 0 -90 37t-38 90t38.5 90t89.5 37q52 0 89.5 -37t37.5 -90t-37.5 -90t-89.5 -37z" />
    <glyph glyph-name="Igrave" unicode="&#xcc;" 
d="M176 0v159h350v1272h-350v160h907v-160h-350v-1272h350v-159h-907zM893 1766h-174l-351 334h222z" />
    <glyph glyph-name="Iacute" unicode="&#xcd;" 
d="M176 0v159h350v1272h-350v160h907v-160h-350v-1272h350v-159h-907zM368 1766l304 334h221l-351 -334h-174z" />
    <glyph glyph-name="Icircumflex" unicode="&#xce;" 
d="M176 0v159h350v1272h-350v160h907v-160h-350v-1272h350v-159h-907zM631 1938l-144 -172h-159l239 334h127l239 -334h-160z" />
    <glyph glyph-name="Idieresis" unicode="&#xcf;" 
d="M176 0v159h350v1272h-350v160h907v-160h-350v-1272h350v-159h-907zM407 1766q-52 0 -89.5 37t-37.5 90t38 90t89 37t89 -37t38 -90t-37.5 -90t-89.5 -37zM853 1766q-52 0 -90 37t-38 90t38.5 90t89.5 37t89 -37t38 -90t-38 -90t-89 -37z" />
    <glyph glyph-name="Eth" unicode="&#xd0;" 
d="M161 0v732h-159v159h159v700h377q280 0 392 -79t180.5 -274t68.5 -446q0 -238 -68.5 -425t-180.5 -277t-349 -90h-420zM368 175h139q224 0 302.5 65.5t121 208t42.5 375.5q0 229 -42.5 359t-117 189t-290.5 59h-155v-540h254v-159h-254v-557z" />
    <glyph glyph-name="Ntilde" unicode="&#xd1;" 
d="M320 0h-191v1591h187l563 -1059l61 -158h5l-5 158v1059h191v-1591h-191l-547 1042l-77 167l4 -165v-1044zM434 1766h-128q0 135 52.5 198.5t132.5 63.5q64 0 129 -41l43 -25q86 -54 119 -54q62 0 62 120h130q-6 -104 -27.5 -152.5t-66 -79.5t-98.5 -31q-66 0 -144 50
l-45 29l-25 17q-35 24 -67 24q-22 0 -44.5 -23.5t-22.5 -95.5z" />
    <glyph glyph-name="Ograve" unicode="&#xd2;" 
d="M630 -48q-271 0 -414 228t-143 616q0 386 143 614.5t414 228.5t413.5 -228.5t142.5 -614.5q0 -388 -142.5 -616t-413.5 -228zM630 112q149 0 249 169.5t100 514.5q0 344 -100 514t-249 170q-150 0 -250 -170t-100 -514q0 -345 100 -514.5t250 -169.5zM893 1766h-174
l-351 334h222z" />
    <glyph glyph-name="Oacute" unicode="&#xd3;" 
d="M630 -48q-271 0 -414 228t-143 616q0 386 143 614.5t414 228.5t413.5 -228.5t142.5 -614.5q0 -388 -142.5 -616t-413.5 -228zM630 112q149 0 249 169.5t100 514.5q0 344 -100 514t-249 170q-150 0 -250 -170t-100 -514q0 -345 100 -514.5t250 -169.5zM368 1766l304 334
h221l-351 -334h-174z" />
    <glyph glyph-name="Ocircumflex" unicode="&#xd4;" 
d="M630 -48q-271 0 -414 228t-143 616q0 386 143 614.5t414 228.5t413.5 -228.5t142.5 -614.5q0 -388 -142.5 -616t-413.5 -228zM630 112q149 0 249 169.5t100 514.5q0 344 -100 514t-249 170q-150 0 -250 -170t-100 -514q0 -345 100 -514.5t250 -169.5zM631 1938l-144 -172
h-159l239 334h127l239 -334h-160z" />
    <glyph glyph-name="Otilde" unicode="&#xd5;" 
d="M630 -48q-271 0 -414 228t-143 616q0 386 143 614.5t414 228.5t413.5 -228.5t142.5 -614.5q0 -388 -142.5 -616t-413.5 -228zM630 112q149 0 249 169.5t100 514.5q0 344 -100 514t-249 170q-150 0 -250 -170t-100 -514q0 -345 100 -514.5t250 -169.5zM425 1766h-129
q0 135 53 198.5t133 63.5q64 0 129 -41l43 -25q85 -54 119 -54q62 0 62 120h130q-6 -104 -27.5 -152.5t-66.5 -79.5t-98 -31q-67 0 -144 50l-46 29l-24 17q-35 24 -67 24q-22 0 -44.5 -23.5t-22.5 -95.5z" />
    <glyph glyph-name="Odieresis" unicode="&#xd6;" 
d="M630 -48q-271 0 -414 228t-143 616q0 386 143 614.5t414 228.5t413.5 -228.5t142.5 -614.5q0 -388 -142.5 -616t-413.5 -228zM630 112q149 0 249 169.5t100 514.5q0 344 -100 514t-249 170q-150 0 -250 -170t-100 -514q0 -345 100 -514.5t250 -169.5zM407 1766
q-52 0 -89.5 37t-37.5 90t38 90t89 37t89 -37t38 -90t-37.5 -90t-89.5 -37zM853 1766q-52 0 -90 37t-38 90t38.5 90t89.5 37t89 -37t38 -90t-38 -90t-89 -37z" />
    <glyph glyph-name="multiply" unicode="&#xd7;" 
d="M1071 0l-440 447l-442 -447l-116 115l446 440l-446 449l116 110l442 -441l440 441l115 -110l-443 -449l443 -440z" />
    <glyph glyph-name="Oslash" unicode="&#xd8;" 
d="M214 -112h-141l152 283q-65 103 -92.5 194.5t-43.5 203.5t-16 236q0 408 151 621t400 213q56 0 115 -12t105 -31.5t111 -69.5l95 176h136l-145 -280q62 -105 89 -189.5t41.5 -207t14.5 -241.5q0 -255 -68 -446.5t-184.5 -288.5t-314.5 -97q-84 0 -147 19.5t-158 99.5z
M329 369l538 994q-63 75 -122 96t-115 21q-158 0 -254 -179t-96 -492q0 -49 3 -150t12 -153.5t34 -136.5zM934 1225l-534 -994q54 -68 111 -93.5t113 -25.5q179 0 267 189t88 496q0 53 -3 141t-10.5 144t-31.5 143z" />
    <glyph glyph-name="Ugrave" unicode="&#xd9;" 
d="M129 1591h207v-1044q0 -207 34.5 -282t106 -114.5t158.5 -39.5q92 0 164.5 42.5t106.5 133t34 341.5v963h191v-1038q0 -223 -66 -348.5t-173 -189t-269 -63.5q-149 0 -263 55.5t-172.5 166t-58.5 399.5v1018zM893 1766h-174l-351 334h222z" />
    <glyph glyph-name="Uacute" unicode="&#xda;" 
d="M129 1591h207v-1044q0 -207 34.5 -282t106 -114.5t158.5 -39.5q92 0 164.5 42.5t106.5 133t34 341.5v963h191v-1038q0 -223 -66 -348.5t-173 -189t-269 -63.5q-149 0 -263 55.5t-172.5 166t-58.5 399.5v1018zM368 1766l304 334h221l-351 -334h-174z" />
    <glyph glyph-name="Ucircumflex" unicode="&#xdb;" 
d="M129 1591h207v-1044q0 -207 34.5 -282t106 -114.5t158.5 -39.5q92 0 164.5 42.5t106.5 133t34 341.5v963h191v-1038q0 -223 -66 -348.5t-173 -189t-269 -63.5q-149 0 -263 55.5t-172.5 166t-58.5 399.5v1018zM631 1938l-144 -172h-159l239 334h127l239 -334h-160z" />
    <glyph glyph-name="Udieresis" unicode="&#xdc;" 
d="M129 1591h207v-1044q0 -207 34.5 -282t106 -114.5t158.5 -39.5q92 0 164.5 42.5t106.5 133t34 341.5v963h191v-1038q0 -223 -66 -348.5t-173 -189t-269 -63.5q-149 0 -263 55.5t-172.5 166t-58.5 399.5v1018zM407 1766q-52 0 -89.5 37t-37.5 90t38 90t89 37t89 -37
t38 -90t-37.5 -90t-89.5 -37zM853 1766q-52 0 -90 37t-38 90t38.5 90t89.5 37t89 -37t38 -90t-38 -90t-89 -37z" />
    <glyph glyph-name="Yacute" unicode="&#xdd;" 
d="M527 0v736l-474 855h235l354 -631l353 631h212l-473 -855v-736h-207zM368 1766l304 334h221l-351 -334h-174z" />
    <glyph glyph-name="Thorn" unicode="&#xde;" 
d="M388 311v-311h-208v1591h208v-270h188q244 0 356 -55t171.5 -160.5t59.5 -234.5q0 -154 -80 -286.5t-223 -203t-388 -70.5h-84zM388 470h89q192 0 285 49t143.5 143t50.5 201q0 138 -90 218.5t-354 80.5h-124v-692z" />
    <glyph glyph-name="germandbls" unicode="&#xdf;" 
d="M133 0v1150q0 204 59 312t165 166.5t256 58.5q196 0 283.5 -92t87.5 -192q0 -64 -35.5 -125t-141.5 -152l-70 -60q-20 -17 -61 -56.5t-41 -80.5q0 -29 12 -49.5t73 -64.5l65 -48l130 -89q108 -74 181 -161q72 -87 72 -205q0 -150 -116 -247t-296 -97q-39 0 -93.5 3.5
t-84.5 8t-87 20.5v190q62 -27 105 -37.5t86 -18t72 -7.5q51 0 107.5 18.5t85.5 60t29 84.5q0 64 -49 125q-50 62 -167 140l-123 82q-95 63 -148 124t-53 137q0 57 30 111t134 150l60 56q50 45 83.5 89.5t33.5 93.5q0 66 -63.5 97.5t-124.5 31.5q-71 0 -131 -34.5t-97 -104.5
t-37 -238v-1150h-191z" />
    <glyph glyph-name="agrave" unicode="&#xe0;" 
d="M912 257q-88 -143 -210.5 -216t-224.5 -73q-144 0 -258 124t-114 377q0 199 75.5 355t203 247t314.5 91q55 0 164 -12q17 -2 50 -5h191v-809q0 -207 43 -336h-199q-22 94 -35 257zM912 484v491q-102 27 -189 27q-176 0 -293.5 -136.5t-117.5 -371.5q0 -170 64 -256.5
t146 -86.5q89 0 196.5 90t193.5 243zM921 1321h-175l-350 334h221z" />
    <glyph glyph-name="aacute" unicode="&#xe1;" 
d="M912 257q-88 -143 -210.5 -216t-224.5 -73q-144 0 -258 124t-114 377q0 199 75.5 355t203 247t314.5 91q55 0 164 -12q17 -2 50 -5h191v-809q0 -207 43 -336h-199q-22 94 -35 257zM912 484v491q-102 27 -189 27q-176 0 -293.5 -136.5t-117.5 -371.5q0 -170 64 -256.5
t146 -86.5q89 0 196.5 90t193.5 243zM491 1321l304 334h221l-351 -334h-174z" />
    <glyph glyph-name="acircumflex" unicode="&#xe2;" 
d="M912 257q-88 -143 -210.5 -216t-224.5 -73q-144 0 -258 124t-114 377q0 199 75.5 355t203 247t314.5 91q55 0 164 -12q17 -2 50 -5h191v-809q0 -207 43 -336h-199q-22 94 -35 257zM912 484v491q-102 27 -189 27q-176 0 -293.5 -136.5t-117.5 -371.5q0 -170 64 -256.5
t146 -86.5q89 0 196.5 90t193.5 243zM722 1493l-144 -172h-159l239 334h127l239 -334h-160z" />
    <glyph glyph-name="atilde" unicode="&#xe3;" 
d="M912 257q-88 -143 -210.5 -216t-224.5 -73q-144 0 -258 124t-114 377q0 199 75.5 355t203 247t314.5 91q55 0 164 -12q17 -2 50 -5h191v-809q0 -207 43 -336h-199q-22 94 -35 257zM912 484v491q-102 27 -189 27q-176 0 -293.5 -136.5t-117.5 -371.5q0 -170 64 -256.5
t146 -86.5q89 0 196.5 90t193.5 243zM469 1321h-129q0 135 53 198.5t133 63.5q64 0 129 -41l43 -25q85 -54 119 -54q62 0 62 120h130q-6 -104 -27.5 -152.5t-66 -79.5t-98.5 -31q-66 0 -144 50l-45 29l-25 17q-35 24 -67 24q-22 0 -44.5 -24t-22.5 -95z" />
    <glyph glyph-name="adieresis" unicode="&#xe4;" 
d="M912 257q-88 -143 -210.5 -216t-224.5 -73q-144 0 -258 124t-114 377q0 199 75.5 355t203 247t314.5 91q55 0 164 -12q17 -2 50 -5h191v-809q0 -207 43 -336h-199q-22 94 -35 257zM912 484v491q-102 27 -189 27q-176 0 -293.5 -136.5t-117.5 -371.5q0 -170 64 -256.5
t146 -86.5q89 0 196.5 90t193.5 243zM467 1321q-53 0 -90.5 37t-37.5 90t38 90t90 37q51 0 89 -37t38 -90t-37.5 -90t-89.5 -37zM913 1321q-53 0 -91 37t-38 90t38.5 90t90.5 37q51 0 89 -37t38 -90t-38 -90t-89 -37z" />
    <glyph glyph-name="aring" unicode="&#xe5;" 
d="M912 257q-88 -143 -210.5 -216t-224.5 -73q-144 0 -258 124t-114 377q0 199 75.5 355t203 247t314.5 91q55 0 164 -12q17 -2 50 -5h191v-809q0 -207 43 -336h-199q-22 94 -35 257zM912 484v491q-102 27 -189 27q-176 0 -293.5 -136.5t-117.5 -371.5q0 -170 64 -256.5
t146 -86.5q89 0 196.5 90t193.5 243zM674 1416q40 0 67.5 28t27.5 67t-27.5 67.5t-67.5 28.5q-39 0 -67.5 -28.5t-28.5 -67.5t28.5 -67t67.5 -28zM674 1321q-80 0 -135.5 57.5t-55.5 132.5q0 77 56 134t135 57q80 0 135 -57t55 -134q0 -75 -55 -132.5t-135 -57.5z" />
    <glyph glyph-name="ae" unicode="&#xe6;" 
d="M607 232q-53 -134 -123 -199t-135 -65q-115 0 -199 148t-84 379q0 205 56.5 358.5t151.5 238.5t204 85q36 0 76.5 -7.5t72.5 -19.5t82 -46q74 56 115 64.5t73 8.5q130 0 214.5 -116.5t84.5 -460.5v-51h-415v-86q0 -151 23 -213t66.5 -92.5t96.5 -30.5q104 0 229 81v-174
q-145 -66 -261 -66q-76 0 -139.5 26.5t-110 78.5t-78.5 159zM591 482v501q-25 18 -48.5 26.5t-46.5 8.5q-120 0 -180 -169t-60 -374q0 -121 34 -208q34 -88 86 -84q108 7 215 299zM781 684h223v33q0 180 -28 240.5t-81 60.5q-56 0 -85 -75.5t-29 -225.5v-33z" />
    <glyph glyph-name="ccedilla" unicode="&#xe7;" 
d="M720 -134q111 -22 144.5 -67.5t33.5 -94.5q0 -57 -45.5 -103.5t-140.5 -46.5q-85 0 -163 29v91q59 -32 121 -32q36 0 64.5 21.5t28.5 45.5q0 70 -190 89l96 173q-170 29 -279.5 115t-165.5 201.5t-56 273.5q0 279 173.5 447.5t406.5 168.5q177 0 375 -67v-183
q-200 91 -358 91q-105 0 -197 -51.5t-142.5 -161.5t-50.5 -226q0 -154 97 -294.5t304 -140.5q63 0 123.5 8.5t223.5 63.5v-183q-160 -58 -347 -68z" />
    <glyph glyph-name="egrave" unicode="&#xe8;" 
d="M1112 76q-229 -109 -433 -109q-155 0 -277 77t-195.5 220t-73.5 306q0 157 70 301.5t195 225t279 80.5q204 0 327.5 -145.5t123.5 -449.5v-41h-790q0 -119 50 -217t131 -147.5t184 -49.5q185 0 409 123v-174zM350 684h571v28q0 140 -69 223t-183 83q-116 0 -201 -84.5
t-118 -249.5zM933 1321h-174l-351 334h222z" />
    <glyph glyph-name="eacute" unicode="&#xe9;" 
d="M1112 76q-229 -109 -433 -109q-155 0 -277 77t-195.5 220t-73.5 306q0 157 70 301.5t195 225t279 80.5q204 0 327.5 -145.5t123.5 -449.5v-41h-790q0 -119 50 -217t131 -147.5t184 -49.5q185 0 409 123v-174zM350 684h571v28q0 140 -69 223t-183 83q-116 0 -201 -84.5
t-118 -249.5zM455 1321l304 334h221l-350 -334h-175z" />
    <glyph glyph-name="ecircumflex" unicode="&#xea;" 
d="M1112 76q-229 -109 -433 -109q-155 0 -277 77t-195.5 220t-73.5 306q0 157 70 301.5t195 225t279 80.5q204 0 327.5 -145.5t123.5 -449.5v-41h-790q0 -119 50 -217t131 -147.5t184 -49.5q185 0 409 123v-174zM350 684h571v28q0 140 -69 223t-183 83q-116 0 -201 -84.5
t-118 -249.5zM671 1493l-144 -172h-159l239 334h127l239 -334h-160z" />
    <glyph glyph-name="edieresis" unicode="&#xeb;" 
d="M1112 76q-229 -109 -433 -109q-155 0 -277 77t-195.5 220t-73.5 306q0 157 70 301.5t195 225t279 80.5q204 0 327.5 -145.5t123.5 -449.5v-41h-790q0 -119 50 -217t131 -147.5t184 -49.5q185 0 409 123v-174zM350 684h571v28q0 140 -69 223t-183 83q-116 0 -201 -84.5
t-118 -249.5zM462 1321q-52 0 -89.5 37t-37.5 90t38 90t89 37q52 0 90 -37t38 -90t-37.5 -90t-90.5 -37zM908 1321q-52 0 -90 37t-38 90t38.5 90t89.5 37q52 0 90 -37t38 -90t-38 -90t-90 -37z" />
    <glyph glyph-name="igrave" unicode="&#xec;" 
d="M479 0v986h-318v159h509v-986h318v-159h-509zM837 1321h-175l-350 334h221z" />
    <glyph glyph-name="iacute" unicode="&#xed;" 
d="M479 0v986h-318v159h509v-986h318v-159h-509zM312 1321l303 334h222l-351 -334h-174z" />
    <glyph glyph-name="icircumflex" unicode="&#xee;" 
d="M479 0v986h-318v159h509v-986h318v-159h-509zM575 1493l-143 -172h-159l239 334h127l239 -334h-160z" />
    <glyph glyph-name="idieresis" unicode="&#xef;" 
d="M479 0v986h-318v159h509v-986h318v-159h-509zM352 1321q-53 0 -90 37t-37 90t37.5 90t89.5 37q51 0 89 -37t38 -90t-37.5 -90t-89.5 -37zM798 1321q-53 0 -90.5 37t-37.5 90t38 90t90 37q51 0 89 -37t38 -90t-38 -90t-89 -37z" />
    <glyph glyph-name="eth" unicode="&#xf0;" 
d="M908 1016q-38 100 -98 185t-185 177l-230 -209l-106 120l186 165q-131 41 -273 41h-26v160h35q122 0 216.5 -11.5t197.5 -55.5l221 200l106 -119l-183 -164q154 -124 235.5 -253.5t124 -295t42.5 -327.5q0 -302 -141.5 -481.5t-401.5 -179.5q-243 0 -391 162.5
t-148 419.5q0 171 68 297t193 196.5t262 70.5q58 0 122.5 -14t173.5 -84zM631 127q150 0 245.5 116.5t95.5 297.5t-95.5 297.5t-245.5 116.5q-152 0 -247.5 -116.5t-95.5 -297.5t95.5 -297.5t247.5 -116.5z" />
    <glyph glyph-name="ntilde" unicode="&#xf1;" 
d="M161 0v1145h191v-250q82 132 197.5 207t231.5 75q102 0 185 -54t116.5 -141t33.5 -342v-640h-191v663q0 166 -16 218.5t-58.5 86.5t-92.5 34q-101 0 -216 -95.5t-190 -238.5v-668h-191zM441 1321h-128q0 135 52.5 198.5t132.5 63.5q64 0 130 -41l43 -25q85 -54 119 -54
q61 0 61 120h130q-6 -104 -27.5 -152.5t-66 -79.5t-97.5 -31q-67 0 -145 50l-45 29l-25 17q-35 24 -66 24q-23 0 -45.5 -24t-22.5 -95z" />
    <glyph glyph-name="ograve" unicode="&#xf2;" 
d="M631 -32q-246 0 -394 172t-148 433q0 262 148 433t394 171q245 0 392.5 -171t147.5 -433q0 -261 -147.5 -433t-392.5 -172zM631 127q152 0 242.5 119t90.5 327q0 207 -90.5 326t-242.5 119q-154 0 -244.5 -119t-90.5 -326q0 -208 90.5 -327t244.5 -119zM893 1321h-174
l-351 334h222z" />
    <glyph glyph-name="oacute" unicode="&#xf3;" 
d="M631 -32q-246 0 -394 172t-148 433q0 262 148 433t394 171q245 0 392.5 -171t147.5 -433q0 -261 -147.5 -433t-392.5 -172zM631 127q152 0 242.5 119t90.5 327q0 207 -90.5 326t-242.5 119q-154 0 -244.5 -119t-90.5 -326q0 -208 90.5 -327t244.5 -119zM368 1321l304 334
h221l-351 -334h-174z" />
    <glyph glyph-name="ocircumflex" unicode="&#xf4;" 
d="M631 -32q-246 0 -394 172t-148 433q0 262 148 433t394 171q245 0 392.5 -171t147.5 -433q0 -261 -147.5 -433t-392.5 -172zM631 127q152 0 242.5 119t90.5 327q0 207 -90.5 326t-242.5 119q-154 0 -244.5 -119t-90.5 -326q0 -208 90.5 -327t244.5 -119zM631 1493
l-144 -172h-159l239 334h127l239 -334h-160z" />
    <glyph glyph-name="otilde" unicode="&#xf5;" 
d="M631 -32q-246 0 -394 172t-148 433q0 262 148 433t394 171q245 0 392.5 -171t147.5 -433q0 -261 -147.5 -433t-392.5 -172zM631 127q152 0 242.5 119t90.5 327q0 207 -90.5 326t-242.5 119q-154 0 -244.5 -119t-90.5 -326q0 -208 90.5 -327t244.5 -119zM425 1321h-129
q0 135 53 198.5t133 63.5q64 0 129 -41l43 -25q85 -54 119 -54q62 0 62 120h130q-6 -104 -27.5 -152.5t-66.5 -79.5t-98 -31q-67 0 -144 50l-46 29l-24 17q-35 24 -67 24q-22 0 -44.5 -24t-22.5 -95z" />
    <glyph glyph-name="odieresis" unicode="&#xf6;" 
d="M631 -32q-246 0 -394 172t-148 433q0 262 148 433t394 171q245 0 392.5 -171t147.5 -433q0 -261 -147.5 -433t-392.5 -172zM631 127q152 0 242.5 119t90.5 327q0 207 -90.5 326t-242.5 119q-154 0 -244.5 -119t-90.5 -326q0 -208 90.5 -327t244.5 -119zM407 1321
q-52 0 -89.5 37t-37.5 90t38 90t89 37t89 -37t38 -90t-37.5 -90t-89.5 -37zM853 1321q-52 0 -90 37t-38 90t38.5 90t89.5 37t89 -37t38 -90t-38 -90t-89 -37z" />
    <glyph glyph-name="divide" unicode="&#xf7;" 
d="M630 796q-59 0 -103 44t-44 102q0 60 44 104t103 44q58 0 102.5 -44t44.5 -104q0 -58 -44.5 -102t-102.5 -44zM1186 637v-160h-1113v160h1113zM630 24q-59 0 -103 44t-44 103q0 60 44 103.5t103 43.5q58 0 102.5 -43.5t44.5 -103.5q0 -59 -44.5 -103t-102.5 -44z" />
    <glyph glyph-name="oslash" unicode="&#xf8;" 
d="M242 -95h-153l154 226q-154 194 -154 447q0 249 138.5 424t401.5 175q51 0 102 -7t91.5 -20.5t98.5 -47.5l96 139h154l-153 -221q153 -198 153 -447q0 -243 -135.5 -424t-405.5 -181q-65 0 -127 11t-163 66zM350 287l475 680q-91 51 -194 51q-163 0 -249 -118.5
t-86 -321.5q0 -153 54 -291zM912 866l-477 -685q98 -54 185 -54q188 0 266 125.5t78 315.5q0 164 -52 298z" />
    <glyph glyph-name="ugrave" unicode="&#xf9;" 
d="M1101 1145v-1145h-190v251q-93 -141 -205.5 -212t-225.5 -71q-101 0 -184.5 54t-116 141.5t-32.5 342.5v639h190v-663q0 -165 16 -218t58.5 -86.5t91.5 -33.5q101 0 216.5 94.5t191.5 239.5v667h190zM894 1321h-174l-351 334h222z" />
    <glyph glyph-name="uacute" unicode="&#xfa;" 
d="M1101 1145v-1145h-190v251q-93 -141 -205.5 -212t-225.5 -71q-101 0 -184.5 54t-116 141.5t-32.5 342.5v639h190v-663q0 -165 16 -218t58.5 -86.5t91.5 -33.5q101 0 216.5 94.5t191.5 239.5v667h190zM417 1321l304 334h221l-350 -334h-175z" />
    <glyph glyph-name="ucircumflex" unicode="&#xfb;" 
d="M1101 1145v-1145h-190v251q-93 -141 -205.5 -212t-225.5 -71q-101 0 -184.5 54t-116 141.5t-32.5 342.5v639h190v-663q0 -165 16 -218t58.5 -86.5t91.5 -33.5q101 0 216.5 94.5t191.5 239.5v667h190zM633 1493l-144 -172h-159l239 334h127l239 -334h-160z" />
    <glyph glyph-name="udieresis" unicode="&#xfc;" 
d="M1101 1145v-1145h-190v251q-93 -141 -205.5 -212t-225.5 -71q-101 0 -184.5 54t-116 141.5t-32.5 342.5v639h190v-663q0 -165 16 -218t58.5 -86.5t91.5 -33.5q101 0 216.5 94.5t191.5 239.5v667h190zM409 1321q-52 0 -89.5 37t-37.5 90t38 90t89 37t89 -37t38 -90
t-37.5 -90t-89.5 -37zM855 1321q-52 0 -90 37t-38 90t38.5 90t89.5 37t89 -37t38 -90t-38 -90t-89 -37z" />
    <glyph glyph-name="yacute" unicode="&#xfd;" 
d="M598 46l-529 1099h210l421 -859l353 859h192l-444 -1064q-141 -337 -267.5 -448t-327.5 -111q-87 0 -156 16v168q79 -25 151 -25q92 0 164 36t131.5 127t83.5 158zM465 1321l303 334h222l-351 -334h-174z" />
    <glyph glyph-name="thorn" unicode="&#xfe;" 
d="M331 888q88 144 210 216.5t225 72.5q144 0 258.5 -124t114.5 -376q0 -298 -170 -501q-80 -94 -179.5 -143t-245.5 -49q-53 0 -164 11q-16 2 -49 5v-445h-191v2036h191v-703zM331 661v-491q104 -26 191 -26q173 0 291.5 135.5t118.5 371.5q0 171 -64.5 257.5t-146.5 86.5
q-89 0 -196.5 -90.5t-193.5 -243.5z" />
    <glyph glyph-name="ydieresis" unicode="&#xff;" 
d="M598 46l-529 1099h210l421 -859l353 859h192l-444 -1064q-141 -337 -267.5 -448t-327.5 -111q-87 0 -156 16v168q79 -25 151 -25q92 0 164 36t131.5 127t83.5 158zM456 1321q-52 0 -89.5 37t-37.5 90t38 90t89 37q52 0 89.5 -37t37.5 -90t-37 -90t-90 -37zM902 1321
q-52 0 -90 37t-38 90t38.5 90t89.5 37q52 0 89.5 -37t37.5 -90t-37.5 -90t-89.5 -37z" />
    <glyph glyph-name="Amacron" unicode="&#x100;" 
d="M233 0h-199l490 1591h210l493 -1591h-218l-109 350h-560zM390 509h464l-192 604l-45 160l-40 -160zM345 1696v127h573v-127h-573z" />
    <glyph glyph-name="amacron" unicode="&#x101;" 
d="M912 257q-88 -143 -210.5 -216t-224.5 -73q-144 0 -258 124t-114 377q0 199 75.5 355t203 247t314.5 91q55 0 164 -12q17 -2 50 -5h191v-809q0 -207 43 -336h-199q-22 94 -35 257zM912 484v491q-102 27 -189 27q-176 0 -293.5 -136.5t-117.5 -371.5q0 -170 64 -256.5
t146 -86.5q89 0 196.5 90t193.5 243zM339 1266v128h574v-128h-574z" />
    <glyph glyph-name="Abreve" unicode="&#x102;" 
d="M233 0h-199l490 1591h210l493 -1591h-218l-109 350h-560zM390 509h464l-192 604l-45 160l-40 -160zM459 2030q10 -79 60 -139t113 -60q62 0 111.5 61t58.5 138h131q-12 -114 -57.5 -184t-110.5 -110t-133 -40q-69 0 -134 40t-111 110t-59 184h131z" />
    <glyph glyph-name="abreve" unicode="&#x103;" 
d="M912 257q-88 -143 -210.5 -216t-224.5 -73q-144 0 -258 124t-114 377q0 199 75.5 355t203 247t314.5 91q55 0 164 -12q17 -2 50 -5h191v-809q0 -207 43 -336h-199q-22 94 -35 257zM912 484v491q-102 27 -189 27q-176 0 -293.5 -136.5t-117.5 -371.5q0 -170 64 -256.5
t146 -86.5q89 0 196.5 90t193.5 243zM454 1601q9 -79 59.5 -139t113.5 -60q62 0 111.5 61t58.5 138h131q-12 -114 -58 -184.5t-110.5 -110.5t-132.5 -40q-69 0 -134 40t-111 110.5t-59 184.5h131z" />
    <glyph glyph-name="Aogonek" unicode="&#x104;" 
d="M233 0h-199l490 1591h210l493 -1591h-218l-109 350h-560zM390 509h464l-192 604l-45 160l-40 -160zM1227 10q-92 -43 -149 -120t-57 -126q0 -32 29 -60.5t95 -28.5q36 0 82 19v-99q-67 -30 -130 -30q-95 0 -157 51.5t-62 130.5q0 124 151 263h198z" />
    <glyph glyph-name="aogonek" unicode="&#x105;" 
d="M912 257q-88 -143 -210.5 -216t-224.5 -73q-144 0 -258 124t-114 377q0 199 75.5 355t203 247t314.5 91q55 0 164 -12q17 -2 50 -5h191v-809q0 -207 43 -336h-199q-22 94 -35 257zM912 484v491q-102 27 -189 27q-176 0 -293.5 -136.5t-117.5 -371.5q0 -170 64 -256.5
t146 -86.5q89 0 196.5 90t193.5 243zM1146 9q-92 -43 -149 -120t-57 -126q0 -32 29 -60.5t95 -28.5q36 0 82 19v-99q-67 -30 -130 -30q-95 0 -157 51.5t-62 130.5q0 124 151 263h198z" />
    <glyph glyph-name="Cacute" unicode="&#x106;" 
d="M1116 18q-179 -66 -320 -66q-187 0 -344 100t-244 297.5t-87 446.5q0 247 86 444t243 298.5t346 101.5q141 0 320 -67v-189q-165 96 -328 96q-124 0 -226 -84.5t-164.5 -247t-62.5 -352.5q0 -194 65 -358t165 -245.5t223 -81.5q162 0 328 95v-188zM555 1766l303 334h222
l-351 -334h-174z" />
    <glyph glyph-name="cacute" unicode="&#x107;" 
d="M1123 33q-192 -65 -365 -65t-306.5 79.5t-208.5 215.5t-75 309q0 261 170 433t410 172q177 0 375 -67v-183q-200 91 -358 91q-105 0 -197 -51.5t-142.5 -161.5t-50.5 -226q0 -154 97 -294.5t304 -140.5q63 0 123.5 8.5t223.5 63.5v-183zM507 1321l303 334h222l-351 -334
h-174z" />
    <glyph glyph-name="Ccircumflex" unicode="&#x108;" 
d="M1116 18q-179 -66 -320 -66q-187 0 -344 100t-244 297.5t-87 446.5q0 247 86 444t243 298.5t346 101.5q141 0 320 -67v-189q-165 96 -328 96q-124 0 -226 -84.5t-164.5 -247t-62.5 -352.5q0 -194 65 -358t165 -245.5t223 -81.5q162 0 328 95v-188zM731 1916l-143 -172
h-159l239 334h127l239 -334h-160z" />
    <glyph glyph-name="ccircumflex" unicode="&#x109;" 
d="M1123 33q-192 -65 -365 -65t-306.5 79.5t-208.5 215.5t-75 309q0 261 170 433t410 172q177 0 375 -67v-183q-200 91 -358 91q-105 0 -197 -51.5t-142.5 -161.5t-50.5 -226q0 -154 97 -294.5t304 -140.5q63 0 123.5 8.5t223.5 63.5v-183zM696 1454l-143 -172h-159l239 334
h127l239 -334h-160z" />
    <glyph glyph-name="Cdotaccent" unicode="&#x10a;" 
d="M1116 18q-179 -66 -320 -66q-187 0 -344 100t-244 297.5t-87 446.5q0 247 86 444t243 298.5t346 101.5q141 0 320 -67v-189q-165 96 -328 96q-124 0 -226 -84.5t-164.5 -247t-62.5 -352.5q0 -194 65 -358t165 -245.5t223 -81.5q162 0 328 95v-188zM721 1744
q-69 0 -118 49t-49 118q0 70 49.5 118.5t117.5 48.5t117.5 -48.5t49.5 -118.5q0 -69 -49 -118t-118 -49z" />
    <glyph glyph-name="cdotaccent" unicode="&#x10b;" 
d="M1123 33q-192 -65 -365 -65t-306.5 79.5t-208.5 215.5t-75 309q0 261 170 433t410 172q177 0 375 -67v-183q-200 91 -358 91q-105 0 -197 -51.5t-142.5 -161.5t-50.5 -226q0 -154 97 -294.5t304 -140.5q63 0 123.5 8.5t223.5 63.5v-183zM696 1282q-68 0 -117.5 48.5
t-49.5 118.5t50 118.5t117 48.5q68 0 117.5 -48.5t49.5 -118.5t-49 -118.5t-118 -48.5z" />
    <glyph glyph-name="Ccaron" unicode="&#x10c;" 
d="M1116 18q-179 -66 -320 -66q-187 0 -344 100t-244 297.5t-87 446.5q0 247 86 444t243 298.5t346 101.5q141 0 320 -67v-189q-165 96 -328 96q-124 0 -226 -84.5t-164.5 -247t-62.5 -352.5q0 -194 65 -358t165 -245.5t223 -81.5q162 0 328 95v-188zM769 1928l143 172h160
l-239 -334h-128l-238 334h158z" />
    <glyph glyph-name="ccaron" unicode="&#x10d;" 
d="M1123 33q-192 -65 -365 -65t-306.5 79.5t-208.5 215.5t-75 309q0 261 170 433t410 172q177 0 375 -67v-183q-200 91 -358 91q-105 0 -197 -51.5t-142.5 -161.5t-50.5 -226q0 -154 97 -294.5t304 -140.5q63 0 123.5 8.5t223.5 63.5v-183zM769 1483l143 172h160l-239 -334
h-128l-238 334h158z" />
    <glyph glyph-name="Dcaron" unicode="&#x10e;" 
d="M159 0v1591h377q261 0 387.5 -90.5t190 -274t63.5 -434.5q0 -238 -67 -418t-190 -277t-384 -97h-377zM366 175h138q211 0 300.5 75t128 208t38.5 366q0 229 -45 352t-129 189t-276 66h-155v-1256zM616 1858l143 172h160l-239 -334h-127l-239 334h159z" />
    <glyph glyph-name="dcaron" unicode="&#x10f;" 
d="M924 257q-87 -143 -209.5 -216t-225.5 -73q-143 0 -257.5 124t-114.5 377q0 199 76 355t203 247t315 91q54 0 164 -12q16 -2 49 -5v510h192v-1655h-192v257zM924 484v491q-102 27 -189 27q-176 0 -293.5 -136.5t-117.5 -371.5q0 -170 64 -256.5t146 -86.5q89 0 197 90
t193 243zM1220 1333v127q74 20 112.5 56t61.5 92t23 135q-95 0 -140.5 54t-45.5 115q0 71 50.5 120t117.5 49q86 0 148.5 -74.5t62.5 -203.5q0 -113 -49.5 -213t-134 -171t-206.5 -86z" />
    <glyph glyph-name="Dcroat" unicode="&#x110;" 
d="M161 0v732h-159v159h159v700h377q280 0 392 -79t180.5 -274t68.5 -446q0 -238 -68.5 -425t-180.5 -277t-349 -90h-420zM368 175h139q224 0 302.5 65.5t121 208t42.5 375.5q0 229 -42.5 359t-117 189t-290.5 59h-155v-540h254v-159h-254v-557z" />
    <glyph glyph-name="dcroat" unicode="&#x111;" 
d="M928 257q-87 -143 -209.5 -216t-225.5 -73q-143 0 -257.5 124t-114.5 377q0 199 76 355t203 247t315 91q54 0 164 -12q16 -2 49 -5v144h-191v142h191v224h192v-224h190v-142h-190v-1289h-192v257zM928 484v491q-102 27 -189 27q-176 0 -293.5 -136.5t-117.5 -371.5
q0 -170 64 -256.5t146 -86.5q90 0 197.5 90t192.5 243z" />
    <glyph glyph-name="Emacron" unicode="&#x112;" 
d="M1067 175v-175h-859v1591h843v-160h-636v-540h572v-159h-572v-557h652zM352 1696v127h573v-127h-573z" />
    <glyph glyph-name="emacron" unicode="&#x113;" 
d="M1112 76q-229 -109 -433 -109q-155 0 -277 77t-195.5 220t-73.5 306q0 157 70 301.5t195 225t279 80.5q204 0 327.5 -145.5t123.5 -449.5v-41h-790q0 -119 50 -217t131 -147.5t184 -49.5q185 0 409 123v-174zM350 684h571v28q0 140 -69 223t-183 83q-116 0 -201 -84.5
t-118 -249.5zM386 1282v127h573v-127h-573z" />
    <glyph glyph-name="Ebreve" unicode="&#x114;" 
d="M1067 175v-175h-859v1591h843v-160h-636v-540h572v-159h-572v-557h652zM467 2030q9 -79 59 -139t113 -60q62 0 111.5 61t58.5 138h131q-12 -114 -57.5 -184t-110 -110t-133.5 -40t-134 40t-110.5 110t-59.5 184h132z" />
    <glyph glyph-name="ebreve" unicode="&#x115;" 
d="M1112 76q-229 -109 -433 -109q-155 0 -277 77t-195.5 220t-73.5 306q0 157 70 301.5t195 225t279 80.5q204 0 327.5 -145.5t123.5 -449.5v-41h-790q0 -119 50 -217t131 -147.5t184 -49.5q185 0 409 123v-174zM350 684h571v28q0 140 -69 223t-183 83q-116 0 -201 -84.5
t-118 -249.5zM511 1616q9 -79 59 -139t113 -60q62 0 111.5 61t58.5 138h131q-12 -114 -57.5 -184t-110 -110t-133.5 -40t-134 40t-110.5 110t-59.5 184h132z" />
    <glyph glyph-name="Edotaccent" unicode="&#x116;" 
d="M1067 175v-175h-859v1591h843v-160h-636v-540h572v-159h-572v-557h652zM638 1696q-69 0 -118 48.5t-49 118.5t49.5 118.5t117.5 48.5q67 0 117 -48.5t50 -118.5t-49.5 -118.5t-117.5 -48.5z" />
    <glyph glyph-name="edotaccent" unicode="&#x117;" 
d="M1112 76q-229 -109 -433 -109q-155 0 -277 77t-195.5 220t-73.5 306q0 157 70 301.5t195 225t279 80.5q204 0 327.5 -145.5t123.5 -449.5v-41h-790q0 -119 50 -217t131 -147.5t184 -49.5q185 0 409 123v-174zM350 684h571v28q0 140 -69 223t-183 83q-116 0 -201 -84.5
t-118 -249.5zM682 1282q-69 0 -118 48.5t-49 118.5t49.5 118.5t117.5 48.5t117.5 -48.5t49.5 -118.5t-49 -118.5t-118 -48.5z" />
    <glyph glyph-name="Eogonek" unicode="&#x118;" 
d="M1067 175v-175h-859v1591h843v-160h-636v-540h572v-159h-572v-557h652zM813 10q-92 -43 -149 -120t-57 -126q0 -32 28.5 -60.5t95.5 -28.5q36 0 82 19v-99q-68 -30 -130 -30q-95 0 -157.5 51.5t-62.5 130.5q0 124 152 263h198z" />
    <glyph glyph-name="eogonek" unicode="&#x119;" 
d="M1112 76q-229 -109 -433 -109q-155 0 -277 77t-195.5 220t-73.5 306q0 157 70 301.5t195 225t279 80.5q204 0 327.5 -145.5t123.5 -449.5v-41h-790q0 -119 50 -217t131 -147.5t184 -49.5q185 0 409 123v-174zM350 684h571v28q0 140 -69 223t-183 83q-116 0 -201 -84.5
t-118 -249.5zM823 -2q-92 -43 -149 -120t-57 -126q0 -32 29 -60.5t95 -28.5q36 0 82 19v-99q-67 -30 -130 -30q-95 0 -157 51t-62 130q0 124 151 264h198z" />
    <glyph glyph-name="Ecaron" unicode="&#x11a;" 
d="M1067 175v-175h-859v1591h843v-160h-636v-540h572v-159h-572v-557h652zM638 1858l142 172h160l-239 -334h-127l-239 334h159z" />
    <glyph glyph-name="ecaron" unicode="&#x11b;" 
d="M1112 76q-229 -109 -433 -109q-155 0 -277 77t-195.5 220t-73.5 306q0 157 70 301.5t195 225t279 80.5q204 0 327.5 -145.5t123.5 -449.5v-41h-790q0 -119 50 -217t131 -147.5t184 -49.5q185 0 409 123v-174zM350 684h571v28q0 140 -69 223t-183 83q-116 0 -201 -84.5
t-118 -249.5zM682 1444l142 172h160l-239 -334h-127l-239 334h159z" />
    <glyph glyph-name="Gcircumflex" unicode="&#x11c;" 
d="M1116 1q-169 -49 -309 -49q-199 0 -354.5 98.5t-243.5 297t-88 448.5q0 247 86 444t243 298.5t345 101.5q141 0 320 -67v-189q-165 96 -329 96q-123 0 -225 -84.5t-164 -247t-62 -354.5q0 -259 118 -471t372 -212q33 0 83 5v513h-158v159h366v-787zM721 1916l-144 -172
h-159l239 334h127l239 -334h-160z" />
    <glyph glyph-name="gcircumflex" unicode="&#x11d;" 
d="M924 257q-87 -143 -209.5 -216t-225.5 -73q-143 0 -257.5 124t-114.5 377q0 199 76 355t203 247t315 91q54 0 164 -12q16 -2 49 -5h192v-810q0 -289 -8 -353t-25 -130q-41 -152 -187 -240.5t-354 -88.5t-421 107v193q81 -56 199.5 -98.5t229.5 -42.5q87 0 165 27.5
t126 80.5q48 52 65.5 121.5t17.5 183.5v162zM924 484v491q-102 27 -189 27q-176 0 -293.5 -136.5t-117.5 -371.5q0 -170 64 -256.5t146 -86.5q89 0 197 90t193 243zM616 1439l-143 -173h-159l239 335h127l239 -335h-160z" />
    <glyph glyph-name="Gbreve" unicode="&#x11e;" 
d="M1116 1q-169 -49 -309 -49q-199 0 -354.5 98.5t-243.5 297t-88 448.5q0 247 86 444t243 298.5t345 101.5q141 0 320 -67v-189q-165 96 -329 96q-123 0 -225 -84.5t-164 -247t-62 -354.5q0 -259 118 -471t372 -212q33 0 83 5v513h-158v159h366v-787zM606 2100
q9 -79 59.5 -139t112.5 -60q63 0 112 61t58 138h132q-13 -114 -58.5 -184t-110 -110t-133.5 -40q-68 0 -133.5 40t-111 110t-58.5 184h131z" />
    <glyph glyph-name="gbreve" unicode="&#x11f;" 
d="M928 257q-87 -143 -209.5 -216t-225.5 -73q-143 0 -257.5 124t-114.5 377q0 199 76 355t203 247t315 91q54 0 164 -12q16 -2 49 -5h192v-810q0 -289 -8 -353t-25 -130q-41 -152 -187 -240.5t-353 -88.5q-209 0 -422 107v193q81 -56 199.5 -98.5t229.5 -42.5
q87 0 165 27.5t126 80.5q48 52 65.5 121.5t17.5 183.5v162zM928 484v491q-102 27 -189 27q-176 0 -293.5 -136.5t-117.5 -371.5q0 -170 64 -256.5t146 -86.5q90 0 197.5 90t192.5 243zM528 1655q9 -79 59.5 -139t112.5 -60q63 0 112 61t59 138h131q-12 -114 -58 -184
t-110.5 -110t-133.5 -40q-68 0 -133.5 40t-111 110t-58.5 184h131z" />
    <glyph glyph-name="Gdotaccent" unicode="&#x120;" 
d="M1116 1q-169 -49 -309 -49q-199 0 -354.5 98.5t-243.5 297t-88 448.5q0 247 86 444t243 298.5t345 101.5q141 0 320 -67v-189q-165 96 -329 96q-123 0 -225 -84.5t-164 -247t-62 -354.5q0 -259 118 -471t372 -212q33 0 83 5v513h-158v159h366v-787zM721 1744
q-69 0 -118 49t-49 118q0 70 49.5 118.5t117.5 48.5t117.5 -48.5t49.5 -118.5q0 -69 -49 -118t-118 -49z" />
    <glyph glyph-name="gdotaccent" unicode="&#x121;" 
d="M924 257q-87 -143 -209.5 -216t-225.5 -73q-143 0 -257.5 124t-114.5 377q0 199 76 355t203 247t315 91q54 0 164 -12q16 -2 49 -5h192v-810q0 -289 -8 -353t-25 -130q-41 -152 -187 -240.5t-354 -88.5t-421 107v193q81 -56 199.5 -98.5t229.5 -42.5q87 0 165 27.5
t126 80.5q48 52 65.5 121.5t17.5 183.5v162zM924 484v491q-102 27 -189 27q-176 0 -293.5 -136.5t-117.5 -371.5q0 -170 64 -256.5t146 -86.5q89 0 197 90t193 243zM688 1266q-69 0 -118 49t-49 118q0 70 49.5 119t117.5 49t117.5 -49t49.5 -119q0 -69 -49 -118t-118 -49z
" />
    <glyph glyph-name="Gcommaaccent" unicode="&#x122;" 
d="M1116 1q-169 -49 -309 -49q-199 0 -354.5 98.5t-243.5 297t-88 448.5q0 247 86 444t243 298.5t345 101.5q141 0 320 -67v-189q-165 96 -329 96q-123 0 -225 -84.5t-164 -247t-62 -354.5q0 -259 118 -471t372 -212q33 0 83 5v513h-158v159h366v-787zM692 -744v83
q47 12 72.5 35.5t40 60t14.5 87.5q-61 0 -90.5 35t-29.5 75q0 46 32.5 78t76.5 32q55 0 96 -49t41 -132q0 -74 -32 -139t-87 -110.5t-134 -55.5z" />
    <glyph glyph-name="gcommaaccent" unicode="&#x123;" 
d="M924 257q-87 -143 -209.5 -216t-225.5 -73q-143 0 -257.5 124t-114.5 377q0 199 76 355t203 247t315 91q54 0 164 -12q16 -2 49 -5h192v-810q0 -289 -8 -353t-25 -130q-41 -152 -187 -240.5t-354 -88.5t-421 107v193q81 -56 199.5 -98.5t229.5 -42.5q87 0 165 27.5
t126 80.5q48 52 65.5 121.5t17.5 183.5v162zM924 484v491q-102 27 -189 27q-176 0 -293.5 -136.5t-117.5 -371.5q0 -170 64 -256.5t146 -86.5q89 0 197 90t193 243zM824 2046v-129q-73 -19 -111.5 -55t-61.5 -92t-23 -136q95 0 140 -53.5t45 -114.5q0 -71 -50 -120t-117 -49
q-86 0 -148.5 74.5t-62.5 203.5q0 114 49 213.5t133.5 170t206.5 87.5z" />
    <glyph glyph-name="Hcircumflex" unicode="&#x124;" 
d="M129 0v1591h207v-685h589v685h206v-1591h-206v748h-589v-748h-207zM630 1868l-144 -172h-159l239 334h127l239 -334h-160z" />
    <glyph glyph-name="hcircumflex" unicode="&#x125;" 
d="M159 0v1655h191v-760q82 132 197.5 207t231.5 75q98 0 178.5 -49.5t111.5 -120.5q26 -54 35.5 -115t9.5 -252v-640h-191v663q0 166 -16 218.5t-58.5 86.5t-92.5 34q-101 0 -216 -95.5t-190 -238.5v-668h-191zM549 1932l-144 -172h-159l239 334h127l239 -334h-160z" />
    <glyph glyph-name="Hbar" unicode="&#x126;" 
d="M129 0v1591h207v-685h589v685h206v-1591h-206v748h-589v-748h-207zM73 1075v159h1113v-159h-1113z" />
    <glyph glyph-name="hbar" unicode="&#x127;" 
d="M159 0v1655h191v-760q82 132 197.5 207t231.5 75q98 0 178.5 -49.5t111.5 -120.5q26 -54 35.5 -115t9.5 -252v-640h-191v663q0 166 -16 218.5t-58.5 86.5t-92.5 34q-101 0 -216 -95.5t-190 -238.5v-668h-191zM40 1260v127h573v-127h-573z" />
    <glyph glyph-name="Itilde" unicode="&#x128;" 
d="M176 0v159h350v1272h-350v160h907v-160h-350v-1272h350v-159h-907zM423 1697h-128q0 135 53 199t133 64q63 0 129 -41l43 -26q85 -53 119 -53q62 0 62 120h130q-6 -105 -27.5 -153t-66.5 -79.5t-98 -31.5q-67 0 -144 50l-46 29l-24 17q-35 24 -67 24q-22 0 -45 -23.5
t-23 -95.5z" />
    <glyph glyph-name="itilde" unicode="&#x129;" 
d="M479 0v986h-318v159h509v-986h318v-159h-509zM368 1251h-128q0 135 53 198.5t133 63.5q63 0 129 -41l43 -25q85 -53 119 -53q61 0 61 119h130q-6 -104 -27.5 -152t-66 -79.5t-97.5 -31.5q-67 0 -145 50l-45 29l-25 17q-34 24 -66 24q-23 0 -45.5 -23.5t-22.5 -95.5z" />
    <glyph glyph-name="Imacron" unicode="&#x12a;" 
d="M176 0v159h350v1272h-350v160h907v-160h-350v-1272h350v-159h-907zM344 1696v127h573v-127h-573z" />
    <glyph glyph-name="imacron" unicode="&#x12b;" 
d="M479 0v986h-318v159h509v-986h318v-159h-509zM288 1250v127h573v-127h-573z" />
    <glyph glyph-name="Ibreve" unicode="&#x12c;" 
d="M176 0v159h350v1272h-350v160h907v-160h-350v-1272h350v-159h-907zM458 2030q10 -79 60 -139t113 -60q62 0 111.5 61t58.5 138h131q-12 -114 -57.5 -184t-110.5 -110t-133 -40q-69 0 -134 40t-111 110t-59 184h131z" />
    <glyph glyph-name="ibreve" unicode="&#x12d;" 
d="M479 0v986h-318v159h509v-986h318v-159h-509zM403 1584q9 -79 59.5 -139t112.5 -60q63 0 112 61t58 138h132q-13 -114 -58.5 -184t-110 -110t-133.5 -40q-68 0 -133.5 40t-111 110t-58.5 184h131z" />
    <glyph glyph-name="Iogonek" unicode="&#x12e;" 
d="M176 0v159h350v1272h-350v160h907v-160h-350v-1272h350v-159h-907zM805 10q-92 -43 -149 -120t-57 -126q0 -32 28.5 -60.5t95.5 -28.5q36 0 82 19v-99q-68 -30 -130 -30q-96 0 -158 51.5t-62 130.5q0 124 152 263h198z" />
    <glyph glyph-name="iogonek" unicode="&#x12f;" 
d="M480 0v986h-318v159h509v-986h319v-159h-510zM448 1559q0 64 44 96t83 32q40 0 84 -32t44 -96t-44 -96t-84 -32q-39 0 -83 32t-44 96zM751 10q-93 -43 -150 -120t-57 -126q0 -32 29 -60.5t96 -28.5q35 0 82 19v-99q-68 -30 -131 -30q-95 0 -157 51.5t-62 130.5
q0 124 152 263h198z" />
    <glyph glyph-name="Idotaccent" unicode="&#x130;" 
d="M176 0v159h350v1272h-350v160h907v-160h-350v-1272h350v-159h-907zM630 1766q-69 0 -118.5 48.5t-49.5 118.5t50 118.5t118 48.5q67 0 117 -48.5t50 -118.5t-49.5 -118.5t-117.5 -48.5z" />
    <glyph glyph-name="dotlessi" unicode="&#x131;" 
d="M479 0v986h-318v159h509v-986h318v-159h-509z" />
    <glyph glyph-name="Jcircumflex" unicode="&#x134;" 
d="M113 35v195q223 -118 374 -118q79 0 144 30.5t103.5 103t38.5 309.5v876h-358v160h565v-1041q0 -255 -58 -366.5t-162.5 -171.5t-267.5 -60q-182 0 -379 83zM678 1868l-144 -172h-159l239 334h127l239 -334h-160z" />
    <glyph glyph-name="jcircumflex" unicode="&#x135;" 
d="M176 -449v178q160 -47 270 -47q95 0 162 33.5t104.5 112.5t37.5 275v883h-486v159h676v-1007q0 -291 -68.5 -404t-166 -162.5t-266.5 -49.5q-122 0 -263 29zM574 1964l-143 -173h-159l239 335h127l239 -335h-160z" />
    <glyph glyph-name="Kcommaaccent" unicode="&#x136;" 
d="M161 0v1591h207v-780l592 780h219l-571 -755l651 -836h-259l-632 811v-811h-207zM671 -696v83q47 12 72 35.5t40 60t15 87.5q-62 0 -91 35t-29 75q0 46 32 78t76 32q56 0 97 -49t41 -132q0 -74 -32.5 -139t-87 -110.5t-133.5 -55.5z" />
    <glyph glyph-name="kcommaaccent" unicode="&#x137;" 
d="M210 0v1655h191v-1040l551 530h254l-550 -530l564 -615h-262l-557 615v-615h-191zM591 -696v83q47 12 72 35.5t40 60t15 87.5q-62 0 -91 35t-29 75q0 46 32 78t76 32q56 0 97 -49t41 -132q0 -74 -32.5 -139t-87 -110.5t-133.5 -55.5z" />
    <glyph glyph-name="kgreenlandic" unicode="&#x138;" 
d="M210 0v1145h191v-530l551 530h254l-550 -530l564 -615h-262l-557 615v-615h-191z" />
    <glyph glyph-name="Lacute" unicode="&#x139;" 
d="M1084 175v-175h-859v1591h207v-1416h652zM225 1696l303 334h222l-351 -334h-174z" />
    <glyph glyph-name="lacute" unicode="&#x13a;" 
d="M467 0v1495h-343v160h533v-1496h358v-159h-548zM307 1760l303 334h222l-351 -334h-174z" />
    <glyph glyph-name="Lcommaaccent" unicode="&#x13b;" 
d="M1084 175v-175h-859v1591h207v-1416h652zM591 -696v83q47 12 72 35.5t40 60t15 87.5q-62 0 -91 35t-29 75q0 46 32 78t76 32q56 0 97 -49t41 -132q0 -74 -32.5 -139t-87 -110.5t-133.5 -55.5z" />
    <glyph glyph-name="lcommaaccent" unicode="&#x13c;" 
d="M467 0v1495h-343v160h533v-1496h358v-159h-548zM591 -696v83q47 12 72 35.5t40 60t15 87.5q-62 0 -91 35t-29 75q0 46 32 78t76 32q56 0 97 -49t41 -132q0 -74 -32.5 -139t-87 -110.5t-133.5 -55.5z" />
    <glyph glyph-name="Lcaron" unicode="&#x13d;" 
d="M1084 175v-175h-859v1591h207v-1416h652zM694 844v127q74 20 112.5 56t61.5 92t23 135q-95 0 -140.5 54t-45.5 115q0 71 50.5 119.5t117.5 48.5q86 0 148.5 -74t62.5 -203q0 -113 -49.5 -213t-134 -171t-206.5 -86z" />
    <glyph glyph-name="lcaron" unicode="&#x13e;" 
d="M467 0v1495h-343v160h533v-1496h358v-159h-548zM771 907v128q74 19 112.5 55.5t61.5 92.5t23 135q-95 0 -140.5 53.5t-45.5 115.5q0 71 50.5 119.5t117.5 48.5q86 0 148.5 -74.5t62.5 -203.5q0 -113 -49.5 -213t-134 -170.5t-206.5 -86.5z" />
    <glyph glyph-name="Ldotaccent" unicode="&#x13f;" 
d="M1084 175v-175h-859v1591h207v-1416h652zM762 731q-69 0 -118 49t-49 118q0 70 49.5 118.5t117.5 48.5t117.5 -48.5t49.5 -118.5q0 -69 -49 -118t-118 -49z" />
    <glyph glyph-name="ldotaccent" unicode="&#x140;" 
d="M467 0v1495h-343v160h533v-1496h358v-159h-548zM959 660q-69 0 -118 49t-49 118q0 70 49.5 119t117.5 49q67 0 117 -49t50 -119q0 -69 -49.5 -118t-117.5 -49z" />
    <glyph glyph-name="Lslash" unicode="&#x141;" 
d="M1084 175v-175h-859v715l-223 -80v164l223 83v709h207v-632l230 81v-168l-230 -81v-616h652z" />
    <glyph glyph-name="lslash" unicode="&#x142;" 
d="M463 0v713l-342 -133v173l342 132v610h-342v160h533v-696l358 136v-172l-358 -138v-626h358v-159h-549z" />
    <glyph glyph-name="Nacute" unicode="&#x143;" 
d="M320 0h-191v1591h187l563 -1059l61 -158h5l-5 158v1059h191v-1591h-191l-547 1042l-77 167l4 -165v-1044zM367 1696l304 334h221l-351 -334h-174z" />
    <glyph glyph-name="nacute" unicode="&#x144;" 
d="M159 0v1145h191v-250q82 132 197.5 207t231.5 75q102 0 185 -54t116.5 -141t33.5 -342v-640h-191v663q0 166 -16 218.5t-58.5 86.5t-92.5 34q-101 0 -216 -95.5t-190 -238.5v-668h-191zM373 1282l304 334h221l-350 -334h-175z" />
    <glyph glyph-name="Ncommaaccent" unicode="&#x145;" 
d="M320 0h-191v1591h187l563 -1059l61 -158h5l-5 158v1059h191v-1591h-191l-547 1042l-77 167l4 -165v-1044zM591 -696v83q47 12 72 35.5t40 60t15 87.5q-62 0 -91 35t-29 75q0 46 32 78t76 32q56 0 97 -49t41 -132q0 -74 -32.5 -139t-87 -110.5t-133.5 -55.5z" />
    <glyph glyph-name="ncommaaccent" unicode="&#x146;" 
d="M159 0v1145h191v-250q82 132 197.5 207t231.5 75q102 0 185 -54t116.5 -141t33.5 -342v-640h-191v663q0 166 -16 218.5t-58.5 86.5t-92.5 34q-101 0 -216 -95.5t-190 -238.5v-668h-191zM456 -884v127q74 20 112.5 56.5t61.5 92t23 134.5q-95 0 -140 54t-45 115
q0 71 50 120t117 49q86 0 148.5 -74.5t62.5 -203.5q0 -113 -49 -213t-134 -171t-207 -86z" />
    <glyph glyph-name="Ncaron" unicode="&#x147;" 
d="M320 0h-191v1591h187l563 -1059l61 -158h5l-5 158v1059h191v-1591h-191l-547 1042l-77 167l4 -165v-1044zM630 1858l142 172h160l-239 -334h-127l-239 334h159z" />
    <glyph glyph-name="ncaron" unicode="&#x148;" 
d="M159 0v1145h191v-250q82 132 197.5 207t231.5 75q102 0 185 -54t116.5 -141t33.5 -342v-640h-191v663q0 166 -16 218.5t-58.5 86.5t-92.5 34q-101 0 -216 -95.5t-190 -238.5v-668h-191zM636 1444l142 172h160l-239 -334h-127l-239 334h159z" />
    <glyph glyph-name="napostrophe" unicode="&#x149;" horiz-adv-x="2520" 
d="M435 938v128q74 20 112 56t61.5 91.5t23.5 135.5q-96 0 -141 54t-45 115q0 71 50.5 120t116.5 49q86 0 148.5 -74.5t62.5 -203.5q0 -114 -49 -213.5t-133.5 -170t-206.5 -87.5zM1419 0v1145h191v-250q82 132 197.5 207t231.5 75q102 0 185 -54t116.5 -141t33.5 -342v-640
h-191v663q0 166 -16 218.5t-58.5 86.5t-92.5 34q-101 0 -216 -95.5t-190 -238.5v-668h-191z" />
    <glyph glyph-name="Omacron" unicode="&#x14c;" 
d="M630 -48q-271 0 -414 228t-143 616q0 386 143 614.5t414 228.5t413.5 -228.5t142.5 -614.5q0 -388 -142.5 -616t-413.5 -228zM630 112q149 0 249 169.5t100 514.5q0 344 -100 514t-249 170q-150 0 -250 -170t-100 -514q0 -345 100 -514.5t250 -169.5zM344 1743v127h573
v-127h-573z" />
    <glyph glyph-name="omacron" unicode="&#x14d;" 
d="M631 -32q-246 0 -394 172t-148 433q0 262 148 433t394 171q245 0 392.5 -171t147.5 -433q0 -261 -147.5 -433t-392.5 -172zM631 127q152 0 242.5 119t90.5 327q0 207 -90.5 326t-242.5 119q-154 0 -244.5 -119t-90.5 -326q0 -208 90.5 -327t244.5 -119zM344 1282v127h573
v-127h-573z" />
    <glyph glyph-name="Obreve" unicode="&#x14e;" 
d="M630 -48q-271 0 -414 228t-143 616q0 386 143 614.5t414 228.5t413.5 -228.5t142.5 -614.5q0 -388 -142.5 -616t-413.5 -228zM630 112q149 0 249 169.5t100 514.5q0 344 -100 514t-249 170q-150 0 -250 -170t-100 -514q0 -345 100 -514.5t250 -169.5zM458 2077
q10 -79 60 -138.5t113 -59.5q62 0 111.5 61t58.5 137h131q-12 -113 -57.5 -183.5t-110.5 -110.5t-133 -40q-69 0 -134 40t-111 110.5t-59 183.5h131z" />
    <glyph glyph-name="obreve" unicode="&#x14f;" 
d="M631 -32q-246 0 -394 172t-148 433q0 262 148 433t394 171q245 0 392.5 -171t147.5 -433q0 -261 -147.5 -433t-392.5 -172zM631 127q152 0 242.5 119t90.5 327q0 207 -90.5 326t-242.5 119q-154 0 -244.5 -119t-90.5 -326q0 -208 90.5 -327t244.5 -119zM458 1616
q10 -79 60 -139t113 -60q62 0 111.5 61t58.5 138h131q-12 -114 -57.5 -184t-110.5 -110t-133 -40q-69 0 -134 40t-111 110t-59 184h131z" />
    <glyph glyph-name="Ohungarumlaut" unicode="&#x150;" 
d="M630 -48q-271 0 -414 228t-143 616q0 386 143 614.5t414 228.5t413.5 -228.5t142.5 -614.5q0 -388 -142.5 -616t-413.5 -228zM630 112q149 0 249 169.5t100 514.5q0 344 -100 514t-249 170q-150 0 -250 -170t-100 -514q0 -345 100 -514.5t250 -169.5zM558 1743h-119
l145 334h127zM839 1743h-121l148 334h130z" />
    <glyph glyph-name="ohungarumlaut" unicode="&#x151;" 
d="M631 -32q-246 0 -394 172t-148 433q0 262 148 433t394 171q245 0 392.5 -171t147.5 -433q0 -261 -147.5 -433t-392.5 -172zM631 127q152 0 242.5 119t90.5 327q0 207 -90.5 326t-242.5 119q-154 0 -244.5 -119t-90.5 -326q0 -208 90.5 -327t244.5 -119zM551 1282h-119
l145 334h126zM832 1282h-121l148 334h129z" />
    <glyph glyph-name="OE" unicode="&#x152;" 
d="M1214 0h-565v40q-70 -62 -106 -67.5t-55 -5.5q-118 0 -227 96.5t-166.5 301t-57.5 450.5q0 259 63 450t168.5 274.5t222.5 83.5q34 0 70 -10t88 -62v40h550v-160h-358v-548h341v-159h-341v-549h373v-175zM649 534v514q0 272 -38.5 344t-112.5 72q-134 0 -194 -189
t-60 -475q0 -254 57 -463.5t201 -209.5q72 0 109.5 72.5t37.5 334.5z" />
    <glyph glyph-name="oe" unicode="&#x153;" 
d="M641 138q-61 -113 -128 -141.5t-122 -28.5q-91 0 -163.5 64.5t-115.5 214t-43 337.5q0 223 78.5 408t264.5 185q82 0 142.5 -42.5t100.5 -127.5q45 85 105.5 127.5t136.5 42.5q122 0 207.5 -115.5t85.5 -449.5v-63h-414v-63q0 -182 25 -242t69 -88.5t95 -28.5
q106 0 225 80v-177q-144 -62 -257 -62q-87 0 -159.5 33.5t-132.5 136.5zM585 506v104q0 130 -6.5 182.5t-24.5 104.5q-19 51 -54 87.5t-78 33.5q-87 -5 -129 -132t-42 -328q0 -170 40.5 -300.5t135.5 -130.5q68 0 113 88.5t45 290.5zM776 684h224v34q0 189 -31 244.5
t-79 55.5q-49 0 -81.5 -71t-32.5 -228v-35z" />
    <glyph glyph-name="Racute" unicode="&#x154;" 
d="M360 676v-676h-207v1591h425q208 0 306.5 -42.5t152.5 -128.5t54 -185q0 -93 -36 -186t-99 -166.5t-182 -139.5l461 -743h-247l-421 676h-207zM360 836h290q98 53 145.5 108.5t72 118t24.5 124.5q0 112 -81.5 178t-295.5 66h-155v-595zM431 1696l303 334h222l-351 -334
h-174z" />
    <glyph glyph-name="racute" unicode="&#x155;" 
d="M256 0v1145h191v-250q89 142 204.5 212t256.5 70q104 0 208 -32v-413h-184v262q-48 8 -76 8q-106 0 -209 -84t-200 -253v-665h-191zM423 1282l304 334h221l-350 -334h-175z" />
    <glyph glyph-name="Rcommaaccent" unicode="&#x156;" 
d="M360 676v-676h-207v1591h425q208 0 306.5 -42.5t152.5 -128.5t54 -185q0 -93 -36 -186t-99 -166.5t-182 -139.5l461 -743h-247l-421 676h-207zM360 836h290q98 53 145.5 108.5t72 118t24.5 124.5q0 112 -81.5 178t-295.5 66h-155v-595zM591 -696v83q47 12 72 35.5t40 60
t15 87.5q-62 0 -91 35t-29 75q0 46 32 78t76 32q56 0 97 -49t41 -132q0 -74 -32.5 -139t-87 -110.5t-133.5 -55.5z" />
    <glyph glyph-name="rcommaaccent" unicode="&#x157;" 
d="M256 0v1145h191v-250q89 142 204.5 212t256.5 70q104 0 208 -32v-413h-184v262q-48 8 -76 8q-106 0 -209 -84t-200 -253v-665h-191zM647 -696v83q47 12 72 35.5t40 60t15 87.5q-61 0 -90.5 35t-29.5 75q0 46 32.5 78t76.5 32q55 0 96 -49t41 -132q0 -74 -32 -139
t-87 -110.5t-134 -55.5z" />
    <glyph glyph-name="Rcaron" unicode="&#x158;" 
d="M360 676v-676h-207v1591h425q208 0 306.5 -42.5t152.5 -128.5t54 -185q0 -93 -36 -186t-99 -166.5t-182 -139.5l461 -743h-247l-421 676h-207zM360 836h290q98 53 145.5 108.5t72 118t24.5 124.5q0 112 -81.5 178t-295.5 66h-155v-595zM574 1858l143 172h160l-239 -334
h-127l-239 334h159z" />
    <glyph glyph-name="rcaron" unicode="&#x159;" 
d="M256 0v1145h191v-250q89 142 204.5 212t256.5 70q104 0 208 -32v-413h-184v262q-48 8 -76 8q-106 0 -209 -84t-200 -253v-665h-191zM686 1444l143 172h159l-238 -334h-128l-239 334h159z" />
    <glyph glyph-name="Sacute" unicode="&#x15a;" 
d="M161 34v195q246 -117 447 -117q84 0 161 32t116.5 92.5t39.5 131.5q0 83 -54.5 155.5t-203.5 159.5l-105 60l-106 61q-279 165 -279 410q0 180 125 302.5t389 122.5q170 0 329 -50v-177q-175 68 -341 68q-132 0 -214 -70t-82 -168t63 -162.5t160 -118.5l80 -48l99 -61
l85 -49q261 -160 261 -402q0 -185 -134.5 -317t-430.5 -132q-94 0 -180 16t-225 66zM383 1743l304 334h221l-350 -334h-175z" />
    <glyph glyph-name="sacute" unicode="&#x15b;" 
d="M172 60v203q115 -75 243 -105.5t218 -30.5q144 0 207.5 46.5t63.5 116.5q0 46 -29 79q-30 33 -148 81l-66 27l-132 52q-213 83 -269 154q-56 70 -56 170q0 142 109 233t355 91q183 0 347 -53v-173q-189 67 -355 67q-121 0 -189 -42.5t-68 -105.5q0 -62 59 -99t191 -85
l129 -47q178 -65 250 -141q71 -76 71 -189q0 -149 -114 -245t-366 -96q-219 0 -451 92zM375 1282l304 334h221l-350 -334h-175z" />
    <glyph glyph-name="Scircumflex" unicode="&#x15c;" 
d="M161 34v195q246 -117 447 -117q84 0 161 32t116.5 92.5t39.5 131.5q0 83 -54.5 155.5t-203.5 159.5l-105 60l-106 61q-279 165 -279 410q0 180 125 302.5t389 122.5q170 0 329 -50v-177q-175 68 -341 68q-132 0 -214 -70t-82 -168t63 -162.5t160 -118.5l80 -48l99 -61
l85 -49q261 -160 261 -402q0 -185 -134.5 -317t-430.5 -132q-94 0 -180 16t-225 66zM646 1915l-144 -172h-158l238 334h128l238 -334h-159z" />
    <glyph glyph-name="scircumflex" unicode="&#x15d;" 
d="M172 60v203q115 -75 243 -105.5t218 -30.5q144 0 207.5 46.5t63.5 116.5q0 46 -29 79q-30 33 -148 81l-66 27l-132 52q-213 83 -269 154q-56 70 -56 170q0 142 109 233t355 91q183 0 347 -53v-173q-189 67 -355 67q-121 0 -189 -42.5t-68 -105.5q0 -62 59 -99t191 -85
l129 -47q178 -65 250 -141q71 -76 71 -189q0 -149 -114 -245t-366 -96q-219 0 -451 92zM638 1454l-144 -172h-159l239 334h127l239 -334h-160z" />
    <glyph glyph-name="Scedilla" unicode="&#x15e;" 
d="M550 -48q-59 0 -145 9t-244 73v195q246 -117 447 -117q84 0 161 32t116.5 92.5t39.5 131.5q0 83 -54.5 155.5t-203.5 159.5l-105 60l-106 59q-279 162 -279 412q0 180 125 302.5t389 122.5q170 0 329 -50v-177q-175 68 -341 68q-132 0 -209.5 -70t-77.5 -168
q0 -94 65.5 -163t148.5 -118l80 -48l99 -61l85 -49q261 -160 261 -405q0 -170 -111.5 -293.5t-357.5 -149.5l-49 -89q110 -22 144 -67.5t34 -94.5q0 -57 -45.5 -103.5t-141.5 -46.5q-85 0 -163 29v91q59 -32 122 -32q36 0 64.5 21.5t28.5 45.5q0 70 -190 89z" />
    <glyph glyph-name="scedilla" unicode="&#x15f;" 
d="M580 -31q-84 0 -199.5 26t-208.5 65v203q115 -75 243 -105.5t218 -30.5q144 0 207.5 46.5t63.5 116.5q0 46 -29 79q-30 33 -148 81l-197 80l-79 30q-128 51 -187.5 121t-59.5 172q0 142 109 233t355 91q183 0 347 -53v-173q-189 67 -355 67q-126 0 -191.5 -44.5
t-65.5 -102.5q0 -80 96 -120l91 -38l63 -27l129 -47q182 -68 252 -143q69 -75 69 -187q0 -80 -34 -147t-91 -107q-48 -33 -104.5 -53.5t-180.5 -31.5l-59 -104q110 -22 144 -67.5t34 -94.5q0 -57 -45.5 -103.5t-141.5 -46.5q-85 0 -163 29v91q60 -32 121 -32q37 0 65.5 21.5
t28.5 45.5q0 70 -190 89z" />
    <glyph glyph-name="Scaron" unicode="&#x160;" 
d="M161 34v195q246 -117 447 -117q84 0 161 32t116.5 92.5t39.5 131.5q0 83 -54.5 155.5t-203.5 159.5l-105 60l-106 61q-279 165 -279 410q0 180 125 302.5t389 122.5q170 0 329 -50v-177q-175 68 -341 68q-132 0 -214 -70t-82 -168t63 -162.5t160 -118.5l80 -48l99 -61
l85 -49q261 -160 261 -402q0 -185 -134.5 -317t-430.5 -132q-94 0 -180 16t-225 66zM631 1928l142 172h160l-239 -334h-127l-239 334h159z" />
    <glyph glyph-name="scaron" unicode="&#x161;" 
d="M172 60v203q115 -75 243 -105.5t218 -30.5q144 0 207.5 46.5t63.5 116.5q0 46 -29 79q-30 33 -148 81l-66 27l-132 52q-213 83 -269 154q-56 70 -56 170q0 142 109 233t355 91q183 0 347 -53v-173q-189 67 -355 67q-121 0 -189 -42.5t-68 -105.5q0 -62 59 -99t191 -85
l129 -47q178 -65 250 -141q71 -76 71 -189q0 -149 -114 -245t-366 -96q-219 0 -451 92zM638 1483l142 172h160l-239 -334h-127l-239 334h159z" />
    <glyph glyph-name="Tcedilla" unicode="&#x162;" 
d="M526 0v1416h-477v175h1162v-175h-478v-1416h-207zM702 10l-74 -134q109 -22 143 -67.5t34 -94.5q0 -56 -45 -103t-142 -47q-85 0 -163 29v91q60 -32 122 -32q36 0 65 21.5t29 45.5q0 70 -191 89l112 202h110z" />
    <glyph glyph-name="tcedilla" unicode="&#x163;" 
d="M1117 46q-135 -56 -195.5 -67t-116.5 -11q-120 0 -219.5 46t-150 136.5t-50.5 279.5v461h-287v159h287v461h190v-461h510v-159h-510v-458q0 -139 33 -196t88 -83.5t129 -26.5q139 0 292 87v-168zM813 -1l-75 -134q110 -22 144 -67.5t34 -94.5q0 -57 -45.5 -103.5
t-141.5 -46.5q-85 0 -163 29v91q59 -32 122 -32q36 0 64.5 21.5t28.5 45.5q0 69 -190 89l111 202h111z" />
    <glyph glyph-name="Tcaron" unicode="&#x164;" 
d="M526 0v1416h-477v175h1162v-175h-478v-1416h-207zM630 1858l142 172h160l-239 -334h-127l-239 334h159z" />
    <glyph glyph-name="tcaron" unicode="&#x165;" 
d="M1117 46q-135 -56 -195.5 -67t-116.5 -11q-120 0 -219.5 46t-150 136.5t-50.5 279.5v461h-287v159h287v461h190v-461h510v-159h-510v-458q0 -139 33 -196t88 -83.5t129 -26.5q139 0 292 87v-168zM1117 1137v127q73 20 111.5 56.5t62 92t23.5 134.5q-96 0 -141 54t-45 116
q0 70 50 119t117 49q86 0 148.5 -74.5t62.5 -203.5q0 -113 -49 -213t-133.5 -170.5t-206.5 -86.5z" />
    <glyph glyph-name="Tbar" unicode="&#x166;" 
d="M526 0v1416h-477v175h1162v-175h-478v-1416h-207zM344 732v127h573v-127h-573z" />
    <glyph glyph-name="tbar" unicode="&#x167;" 
d="M1117 46q-135 -56 -195.5 -67t-116.5 -11q-120 0 -219.5 46t-150 136.5t-50.5 279.5v461h-287v159h287v461h190v-461h510v-159h-510v-458q0 -139 33 -196t88 -83.5t129 -26.5q139 0 292 87v-168zM280 676v127h573v-127h-573z" />
    <glyph glyph-name="Utilde" unicode="&#x168;" 
d="M129 1591h207v-1044q0 -207 34.5 -282t106 -114.5t158.5 -39.5q92 0 164.5 42.5t106.5 133t34 341.5v963h191v-1038q0 -223 -66 -348.5t-173 -189t-269 -63.5q-149 0 -263 55.5t-172.5 166t-58.5 399.5v1018zM423 1697h-128q0 135 53 199t133 64q63 0 129 -41l43 -26
q85 -53 119 -53q62 0 62 120h130q-6 -105 -27.5 -153t-66.5 -79.5t-98 -31.5q-67 0 -144 50l-46 29l-24 17q-35 24 -67 24q-22 0 -45 -23.5t-23 -95.5z" />
    <glyph glyph-name="utilde" unicode="&#x169;" 
d="M1101 1145v-1145h-190v251q-93 -141 -205.5 -212t-225.5 -71q-101 0 -184.5 54t-116 141.5t-32.5 342.5v639h190v-663q0 -165 16 -218t58.5 -86.5t91.5 -33.5q101 0 216.5 94.5t191.5 239.5v667h190zM417 1251h-128q0 135 53 198.5t133 63.5q63 0 129 -41l43 -25
q85 -53 119 -53q61 0 61 119h131q-6 -104 -28 -152t-66.5 -79.5t-97.5 -31.5q-67 0 -145 50l-45 29l-24 17q-35 24 -67 24q-23 0 -45.5 -23.5t-22.5 -95.5z" />
    <glyph glyph-name="Umacron" unicode="&#x16a;" 
d="M129 1591h207v-1044q0 -207 34.5 -282t106 -114.5t158.5 -39.5q92 0 164.5 42.5t106.5 133t34 341.5v963h191v-1038q0 -223 -66 -348.5t-173 -189t-269 -63.5q-149 0 -263 55.5t-172.5 166t-58.5 399.5v1018zM344 1696v127h573v-127h-573z" />
    <glyph glyph-name="umacron" unicode="&#x16b;" 
d="M1101 1145v-1145h-190v251q-93 -141 -205.5 -212t-225.5 -71q-101 0 -184.5 54t-116 141.5t-32.5 342.5v639h190v-663q0 -165 16 -218t58.5 -86.5t91.5 -33.5q101 0 216.5 94.5t191.5 239.5v667h190zM337 1250v127h574v-127h-574z" />
    <glyph glyph-name="Ubreve" unicode="&#x16c;" 
d="M129 1591h207v-1044q0 -207 34.5 -282t106 -114.5t158.5 -39.5q92 0 164.5 42.5t106.5 133t34 341.5v963h191v-1038q0 -223 -66 -348.5t-173 -189t-269 -63.5q-149 0 -263 55.5t-172.5 166t-58.5 399.5v1018zM458 2030q10 -79 60 -139t113 -60q62 0 111.5 61t58.5 138
h131q-12 -114 -57.5 -184t-110.5 -110t-133 -40q-69 0 -134 40t-111 110t-59 184h131z" />
    <glyph glyph-name="ubreve" unicode="&#x16d;" 
d="M1101 1145v-1145h-190v251q-93 -141 -205.5 -212t-225.5 -71q-101 0 -184.5 54t-116 141.5t-32.5 342.5v639h190v-663q0 -165 16 -218t58.5 -86.5t91.5 -33.5q101 0 216.5 94.5t191.5 239.5v667h190zM452 1584q9 -79 59.5 -139t112.5 -60q63 0 112 61t59 138h131
q-12 -114 -58 -184t-110.5 -110t-133.5 -40q-68 0 -133 40t-111 110t-59 184h131z" />
    <glyph glyph-name="Uring" unicode="&#x16e;" 
d="M129 1591h207v-1044q0 -207 34.5 -282t106 -114.5t158.5 -39.5q92 0 164.5 42.5t106.5 133t34 341.5v963h191v-1038q0 -223 -66 -348.5t-173 -189t-269 -63.5q-149 0 -263 55.5t-172.5 166t-58.5 399.5v1018zM630 1791q40 0 67.5 28.5t27.5 67.5t-27.5 67t-67.5 28
q-39 0 -67.5 -28t-28.5 -67t28.5 -67.5t67.5 -28.5zM630 1696q-80 0 -135.5 57.5t-55.5 133.5q0 77 56 133.5t135 56.5q80 0 135 -56.5t55 -133.5q0 -76 -55 -133.5t-135 -57.5z" />
    <glyph glyph-name="uring" unicode="&#x16f;" 
d="M1101 1145v-1145h-190v251q-93 -141 -205.5 -212t-225.5 -71q-101 0 -184.5 54t-116 141.5t-32.5 342.5v639h190v-663q0 -165 16 -218t58.5 -86.5t91.5 -33.5q101 0 216.5 94.5t191.5 239.5v667h190zM623 1345q40 0 68 28.5t28 67.5t-28 67t-68 28q-39 0 -67 -28t-28 -67
t28 -67.5t67 -28.5zM623 1250q-80 0 -135 57.5t-55 133.5q0 77 55.5 133.5t134.5 56.5q80 0 135.5 -56.5t55.5 -133.5q0 -76 -55.5 -133.5t-135.5 -57.5z" />
    <glyph glyph-name="Uhungarumlaut" unicode="&#x170;" 
d="M129 1591h207v-1044q0 -207 34.5 -282t106 -114.5t158.5 -39.5q92 0 164.5 42.5t106.5 133t34 341.5v963h191v-1038q0 -223 -66 -348.5t-173 -189t-269 -63.5q-149 0 -263 55.5t-172.5 166t-58.5 399.5v1018zM581 1696h-119l146 334h126zM862 1696h-121l149 334h129z" />
    <glyph glyph-name="uhungarumlaut" unicode="&#x171;" 
d="M1101 1145v-1145h-190v251q-93 -141 -205.5 -212t-225.5 -71q-101 0 -184.5 54t-116 141.5t-32.5 342.5v639h190v-663q0 -165 16 -218t58.5 -86.5t91.5 -33.5q101 0 216.5 94.5t191.5 239.5v667h190zM564 1250h-119l146 334h126zM845 1250h-121l149 334h129z" />
    <glyph glyph-name="Uogonek" unicode="&#x172;" 
d="M129 1591h207v-1044q0 -207 34.5 -282t106 -114.5t158.5 -39.5q92 0 164.5 42.5t106.5 133t34 341.5v963h191v-1038q0 -223 -66 -348.5t-173 -189t-269 -63.5q-149 0 -263 55.5t-172.5 166t-58.5 399.5v1018zM784 -7q-92 -43 -149 -120t-57 -126q0 -32 29 -60.5t95 -28.5
q36 0 82 19v-99q-67 -30 -130 -30q-95 0 -157 51t-62 130q0 124 152 264h197z" />
    <glyph glyph-name="uogonek" unicode="&#x173;" 
d="M1101 1145v-1145h-190v251q-93 -141 -205.5 -212t-225.5 -71q-101 0 -184.5 54t-116 141.5t-32.5 342.5v639h190v-663q0 -165 16 -218t58.5 -86.5t91.5 -33.5q101 0 216.5 94.5t191.5 239.5v667h190zM1112 19q-93 -43 -150 -119.5t-57 -126.5q0 -31 29 -60t95 -29
q36 0 83 20v-100q-68 -30 -131 -30q-95 0 -157 51.5t-62 130.5q0 124 152 263h198z" />
    <glyph glyph-name="Wcircumflex" unicode="&#x174;" 
d="M213 0l-184 1591h188l109 -969l14 -161h6l20 161l167 969h189l191 -1008l19 -153h5l13 154l119 1007h162l-192 -1591h-196l-205 1079l-22 162h-5l-19 -162l-185 -1079h-194zM630 1868l-144 -172h-159l239 334h127l239 -334h-160z" />
    <glyph glyph-name="wcircumflex" unicode="&#x175;" 
d="M207 0l-186 1145h177l109 -697l28 -162l28 162l183 697h171l206 -697l36 -162l23 162l110 697h147l-186 -1145h-178l-220 737l-35 162h-5l-32 -161l-190 -738h-186zM630 1422l-144 -172h-159l239 334h127l239 -334h-160z" />
    <glyph glyph-name="Ycircumflex" unicode="&#x176;" 
d="M527 0v736l-474 855h235l354 -631l353 631h212l-473 -855v-736h-207zM630 1868l-144 -172h-159l239 334h127l239 -334h-160z" />
    <glyph glyph-name="ycircumflex" unicode="&#x177;" 
d="M580 46l-529 1099h210l422 -859l353 859h191l-444 -1064q-140 -337 -266.5 -448t-327.5 -111q-87 0 -156 16v168q79 -25 151 -25q92 0 163.5 36t131 127t84.5 158zM630 1422l-144 -172h-159l239 334h127l239 -334h-160z" />
    <glyph glyph-name="Ydieresis" unicode="&#x178;" 
d="M527 0v736l-474 855h235l354 -631l353 631h212l-473 -855v-736h-207zM407 1766q-52 0 -89.5 37t-37.5 90t38 90t89 37t89 -37t38 -90t-37.5 -90t-89.5 -37zM853 1766q-52 0 -90 37t-38 90t38.5 90t89.5 37t89 -37t38 -90t-38 -90t-89 -37z" />
    <glyph glyph-name="Zacute" unicode="&#x179;" 
d="M125 0v175l756 1256h-732v160h971v-160l-755 -1256h770v-175h-1010zM367 1696l304 334h221l-351 -334h-174z" />
    <glyph glyph-name="zacute" unicode="&#x17a;" 
d="M136 0v175l703 811h-686v159h938v-159l-708 -811h732v-175h-979zM363 1250l304 334h221l-351 -334h-174z" />
    <glyph glyph-name="Zdotaccent" unicode="&#x17b;" 
d="M125 0v175l756 1256h-732v160h971v-160l-755 -1256h770v-175h-1010zM630 1696q-69 0 -118.5 48.5t-49.5 118.5t50 118.5t118 48.5q67 0 117 -48.5t50 -118.5t-49.5 -118.5t-117.5 -48.5z" />
    <glyph glyph-name="zdotaccent" unicode="&#x17c;" 
d="M136 0v175l703 811h-686v159h938v-159l-708 -811h732v-175h-979zM625 1250q-68 0 -117.5 48.5t-49.5 118.5t50 118.5t117 48.5q68 0 118 -48.5t50 -118.5t-49.5 -118.5t-118.5 -48.5z" />
    <glyph glyph-name="Zcaron" unicode="&#x17d;" 
d="M125 0v175l756 1256h-732v160h971v-160l-755 -1256h770v-175h-1010zM631 1928l142 172h160l-239 -334h-127l-239 334h159z" />
    <glyph glyph-name="zcaron" unicode="&#x17e;" 
d="M136 0v175l703 811h-686v159h938v-159l-708 -811h732v-175h-979zM625 1483l143 172h160l-239 -334h-127l-239 334h159z" />
    <glyph glyph-name="longs" unicode="&#x17f;" 
d="M616 0h-190v891h-255v159h255v53q0 227 51 335.5t158 178.5t284 70q133 0 270 -28v-181q-148 49 -263 49q-91 0 -161 -34t-109.5 -110.5t-39.5 -258.5v-1124z" />
    <glyph glyph-name="florin" unicode="&#x192;" 
d="M145 -381l257 1272h-257l32 159h260l7 53q28 181 100.5 303.5t200 201.5t336.5 79q51 0 136 -12q13 -2 41 -5l-33 -165l-41 7q-83 15 -140 15q-94 0 -171 -31t-133.5 -102.5t-97.5 -270.5l-15 -73h405l-33 -159h-404l-260 -1272h-190z" />
    <glyph glyph-name="clickdental" unicode="&#x1c0;" 
d="M547 -48v1687h167v-1687h-167z" />
    <glyph glyph-name="clickretroflex" unicode="&#x1c3;" 
d="M542 453l-47 1138h255l-49 -1138h-159zM631 -48q-61 0 -104.5 43.5t-43.5 103.5q0 61 43.5 104t104.5 43q59 0 102.5 -42.5t43.5 -104.5q0 -61 -44 -104t-102 -43z" />
    <glyph glyph-name="DZcaron" unicode="&#x1c4;" 
d="M159 0v1591h377q261 0 387.5 -90.5t190 -274t63.5 -434.5q0 -238 -67 -418t-190 -277t-384 -97h-377zM366 175h138q211 0 300.5 75t128 208t38.5 366q0 229 -45 352t-129 189t-276 66h-155v-1256zM1385 0v175l756 1256h-732v160h971v-160l-755 -1256h770v-175h-1010z
M1891 1858l142 172h160l-239 -334h-127l-239 334h159z" />
    <glyph glyph-name="Dzcaron" unicode="&#x1c5;" 
d="M159 0v1591h377q261 0 387.5 -90.5t190 -274t63.5 -434.5q0 -238 -67 -418t-190 -277t-384 -97h-377zM366 175h138q211 0 300.5 75t128 208t38.5 366q0 229 -45 352t-129 189t-276 66h-155v-1256zM1396 0v175l703 811h-686v159h938v-159l-708 -811h732v-175h-979z
M1886 1414l142 172h160l-239 -334h-127l-239 334h159z" />
    <glyph glyph-name="dzcaron" unicode="&#x1c6;" 
d="M924 257q-87 -143 -209.5 -216t-225.5 -73q-143 0 -257.5 124t-114.5 377q0 199 76 355t203 247t315 91q54 0 164 -12q16 -2 49 -5v510h192v-1655h-192v257zM924 484v491q-102 27 -189 27q-176 0 -293.5 -136.5t-117.5 -371.5q0 -170 64 -256.5t146 -86.5q89 0 197 90
t193 243zM1396 0v175l703 811h-686v159h938v-159l-708 -811h732v-175h-979zM1886 1414l142 172h160l-239 -334h-127l-239 334h159z" />
    <glyph glyph-name="LJ" unicode="&#x1c7;" 
d="M1084 175v-175h-859v1591h207v-1416h652zM1373 35v195q223 -118 374 -118q79 0 144 30.5t103.5 103t38.5 309.5v876h-358v160h565v-1041q0 -255 -58 -366.5t-162.5 -171.5t-267.5 -60q-182 0 -379 83z" />
    <glyph glyph-name="Lj" unicode="&#x1c8;" 
d="M1084 175v-175h-859v1591h207v-1416h652zM1436 -449v178q160 -47 270 -47q95 0 162 33.5t104.5 112.5t37.5 275v883h-486v159h676v-1007q0 -291 -68.5 -404t-166 -162.5t-266.5 -49.5q-122 0 -263 29zM1978 1559q0 64 43.5 96t83.5 32t83.5 -32t43.5 -96t-43.5 -96
t-83.5 -32t-83.5 32t-43.5 96z" />
    <glyph glyph-name="lj" unicode="&#x1c9;" 
d="M467 0v1495h-343v160h533v-1496h358v-159h-548zM1436 -449v178q160 -47 270 -47q95 0 162 33.5t104.5 112.5t37.5 275v883h-486v159h676v-1007q0 -291 -68.5 -404t-166 -162.5t-266.5 -49.5q-122 0 -263 29zM1978 1559q0 64 43.5 96t83.5 32t83.5 -32t43.5 -96t-43.5 -96
t-83.5 -32t-83.5 32t-43.5 96z" />
    <glyph glyph-name="NJ" unicode="&#x1ca;" 
d="M320 0h-191v1591h187l563 -1059l61 -158h5l-5 158v1059h191v-1591h-191l-547 1042l-77 167l4 -165v-1044zM1373 35v195q223 -118 374 -118q79 0 144 30.5t103.5 103t38.5 309.5v876h-358v160h565v-1041q0 -255 -58 -366.5t-162.5 -171.5t-267.5 -60q-182 0 -379 83z" />
    <glyph glyph-name="Nj" unicode="&#x1cb;" 
d="M320 0h-191v1591h187l563 -1059l61 -158h5l-5 158v1059h191v-1591h-191l-547 1042l-77 167l4 -165v-1044zM1436 -449v178q160 -47 270 -47q95 0 162 33.5t104.5 112.5t37.5 275v883h-486v159h676v-1007q0 -291 -68.5 -404t-166 -162.5t-266.5 -49.5q-122 0 -263 29z
M1978 1559q0 64 43.5 96t83.5 32t83.5 -32t43.5 -96t-43.5 -96t-83.5 -32t-83.5 32t-43.5 96z" />
    <glyph glyph-name="nj" unicode="&#x1cc;" 
d="M159 0v1145h191v-250q82 132 197.5 207t231.5 75q102 0 185 -54t116.5 -141t33.5 -342v-640h-191v663q0 166 -16 218.5t-58.5 86.5t-92.5 34q-101 0 -216 -95.5t-190 -238.5v-668h-191zM1436 -449v178q160 -47 270 -47q95 0 162 33.5t104.5 112.5t37.5 275v883h-486v159
h676v-1007q0 -291 -68.5 -404t-166 -162.5t-266.5 -49.5q-122 0 -263 29zM1978 1559q0 64 43.5 96t83.5 32t83.5 -32t43.5 -96t-43.5 -96t-83.5 -32t-83.5 32t-43.5 96z" />
    <glyph glyph-name="Acaron" unicode="&#x1cd;" 
d="M233 0h-199l490 1591h210l493 -1591h-218l-109 350h-560zM390 509h464l-192 604l-45 160l-40 -160zM631 1858l142 172h160l-239 -334h-127l-239 334h159z" />
    <glyph glyph-name="acaron" unicode="&#x1ce;" 
d="M912 257q-88 -143 -210.5 -216t-224.5 -73q-144 0 -258 124t-114 377q0 199 75.5 355t203 247t314.5 91q55 0 164 -12q17 -2 50 -5h191v-809q0 -207 43 -336h-199q-22 94 -35 257zM912 484v491q-102 27 -189 27q-176 0 -293.5 -136.5t-117.5 -371.5q0 -170 64 -256.5
t146 -86.5q89 0 196.5 90t193.5 243zM625 1428l143 173h160l-239 -335h-127l-239 335h159z" />
    <glyph glyph-name="Icaron" unicode="&#x1cf;" 
d="M176 0v159h350v1272h-350v160h907v-160h-350v-1272h350v-159h-907zM630 1858l142 172h160l-239 -334h-127l-239 334h159z" />
    <glyph glyph-name="icaron" unicode="&#x1d0;" 
d="M479 0v986h-318v159h509v-986h318v-159h-509zM574 1412l143 172h160l-239 -334h-127l-239 334h159z" />
    <glyph glyph-name="Ocaron" unicode="&#x1d1;" 
d="M630 -48q-271 0 -414 228t-143 616q0 386 143 614.5t414 228.5t413.5 -228.5t142.5 -614.5q0 -388 -142.5 -616t-413.5 -228zM630 112q149 0 249 169.5t100 514.5q0 344 -100 514t-249 170q-150 0 -250 -170t-100 -514q0 -345 100 -514.5t250 -169.5zM630 1905l142 172
h160l-239 -334h-127l-239 334h159z" />
    <glyph glyph-name="ocaron" unicode="&#x1d2;" 
d="M631 -32q-246 0 -394 172t-148 433q0 262 148 433t394 171q245 0 392.5 -171t147.5 -433q0 -261 -147.5 -433t-392.5 -172zM631 127q152 0 242.5 119t90.5 327q0 207 -90.5 326t-242.5 119q-154 0 -244.5 -119t-90.5 -326q0 -208 90.5 -327t244.5 -119zM630 1444l142 172
h160l-239 -334h-127l-239 334h159z" />
    <glyph glyph-name="Ucaron" unicode="&#x1d3;" 
d="M129 1591h207v-1044q0 -207 34.5 -282t106 -114.5t158.5 -39.5q92 0 164.5 42.5t106.5 133t34 341.5v963h191v-1038q0 -223 -66 -348.5t-173 -189t-269 -63.5q-149 0 -263 55.5t-172.5 166t-58.5 399.5v1018zM630 1858l142 172h160l-239 -334h-127l-239 334h159z" />
    <glyph glyph-name="ucaron" unicode="&#x1d4;" 
d="M1101 1145v-1145h-190v251q-93 -141 -205.5 -212t-225.5 -71q-101 0 -184.5 54t-116 141.5t-32.5 342.5v639h190v-663q0 -165 16 -218t58.5 -86.5t91.5 -33.5q101 0 216.5 94.5t191.5 239.5v667h190zM623 1412l143 172h160l-239 -334h-127l-239 334h159z" />
    <glyph glyph-name="Udieresismacron" unicode="&#x1d5;" 
d="M129 1591h207v-1044q0 -207 34.5 -282t106 -114.5t158.5 -39.5q92 0 164.5 42.5t106.5 133t34 341.5v963h191v-1038q0 -223 -66 -348.5t-173 -189t-269 -63.5q-149 0 -263 55.5t-172.5 166t-58.5 399.5v1018zM407 1696q-52 0 -89.5 37t-37.5 90t38 90t89 37t89 -37
t38 -90t-37.5 -90t-89.5 -37zM853 1696q-52 0 -90 37t-38 90t38.5 90t89.5 37t89 -37t38 -90t-38 -90t-89 -37zM344 2055v127h573v-127h-573z" />
    <glyph glyph-name="udieresismacron" unicode="&#x1d6;" 
d="M1101 1145v-1145h-190v251q-93 -141 -205.5 -212t-225.5 -71q-101 0 -184.5 54t-116 141.5t-32.5 342.5v639h190v-663q0 -165 16 -218t58.5 -86.5t91.5 -33.5q101 0 216.5 94.5t191.5 239.5v667h190zM401 1250q-52 0 -89.5 37t-37.5 90t38 90t89 37t89 -37t38 -90
t-37.5 -90t-89.5 -37zM847 1250q-52 0 -90 37t-38 90t38.5 90t89.5 37t89 -37t38 -90t-38 -90t-89 -37zM337 1609v127h574v-127h-574z" />
    <glyph glyph-name="Udieresisacute" unicode="&#x1d7;" 
d="M129 1591h207v-1044q0 -207 34.5 -282t106 -114.5t158.5 -39.5q92 0 164.5 42.5t106.5 133t34 341.5v963h191v-1038q0 -223 -66 -348.5t-173 -189t-269 -63.5q-149 0 -263 55.5t-172.5 166t-58.5 399.5v1018zM407 1696q-52 0 -89.5 37t-37.5 90t38 90t89 37t89 -37
t38 -90t-37.5 -90t-89.5 -37zM853 1696q-52 0 -90 37t-38 90t38.5 90t89.5 37t89 -37t38 -90t-38 -90t-89 -37zM367 2055l304 334h221l-351 -334h-174z" />
    <glyph glyph-name="udieresisacute" unicode="&#x1d8;" 
d="M1101 1145v-1145h-190v251q-93 -141 -205.5 -212t-225.5 -71q-101 0 -184.5 54t-116 141.5t-32.5 342.5v639h190v-663q0 -165 16 -218t58.5 -86.5t91.5 -33.5q101 0 216.5 94.5t191.5 239.5v667h190zM401 1250q-52 0 -89.5 37t-37.5 90t38 90t89 37t89 -37t38 -90
t-37.5 -90t-89.5 -37zM847 1250q-52 0 -90 37t-38 90t38.5 90t89.5 37t89 -37t38 -90t-38 -90t-89 -37zM361 1609l303 334h222l-351 -334h-174z" />
    <glyph glyph-name="Udieresiscaron" unicode="&#x1d9;" 
d="M129 1591h207v-1044q0 -207 34.5 -282t106 -114.5t158.5 -39.5q92 0 164.5 42.5t106.5 133t34 341.5v963h191v-1038q0 -223 -66 -348.5t-173 -189t-269 -63.5q-149 0 -263 55.5t-172.5 166t-58.5 399.5v1018zM407 1696q-52 0 -89.5 37t-37.5 90t38 90t89 37t89 -37
t38 -90t-37.5 -90t-89.5 -37zM853 1696q-52 0 -90 37t-38 90t38.5 90t89.5 37t89 -37t38 -90t-38 -90t-89 -37zM630 2217l142 172h160l-239 -334h-127l-239 334h159z" />
    <glyph glyph-name="udieresiscaron" unicode="&#x1da;" 
d="M1101 1145v-1145h-190v251q-93 -141 -205.5 -212t-225.5 -71q-101 0 -184.5 54t-116 141.5t-32.5 342.5v639h190v-663q0 -165 16 -218t58.5 -86.5t91.5 -33.5q101 0 216.5 94.5t191.5 239.5v667h190zM401 1250q-52 0 -89.5 37t-37.5 90t38 90t89 37t89 -37t38 -90
t-37.5 -90t-89.5 -37zM847 1250q-52 0 -90 37t-38 90t38.5 90t89.5 37t89 -37t38 -90t-38 -90t-89 -37zM623 1771l143 172h160l-239 -334h-127l-239 334h159z" />
    <glyph glyph-name="Udieresisgrave" unicode="&#x1db;" 
d="M129 1591h207v-1044q0 -207 34.5 -282t106 -114.5t158.5 -39.5q92 0 164.5 42.5t106.5 133t34 341.5v963h191v-1038q0 -223 -66 -348.5t-173 -189t-269 -63.5q-149 0 -263 55.5t-172.5 166t-58.5 399.5v1018zM407 1696q-52 0 -89.5 37t-37.5 90t38 90t89 37t89 -37
t38 -90t-37.5 -90t-89.5 -37zM853 1696q-52 0 -90 37t-38 90t38.5 90t89.5 37t89 -37t38 -90t-38 -90t-89 -37zM892 2055h-174l-351 334h222z" />
    <glyph glyph-name="udieresisgrave" unicode="&#x1dc;" 
d="M1101 1145v-1145h-190v251q-93 -141 -205.5 -212t-225.5 -71q-101 0 -184.5 54t-116 141.5t-32.5 342.5v639h190v-663q0 -165 16 -218t58.5 -86.5t91.5 -33.5q101 0 216.5 94.5t191.5 239.5v667h190zM401 1250q-52 0 -89.5 37t-37.5 90t38 90t89 37t89 -37t38 -90
t-37.5 -90t-89.5 -37zM847 1250q-52 0 -90 37t-38 90t38.5 90t89.5 37t89 -37t38 -90t-38 -90t-89 -37zM886 1609h-174l-351 334h221z" />
    <glyph glyph-name="uni01DD" unicode="&#x1dd;" 
d="M150 1068q229 109 433 109q155 0 277 -77t195.5 -220t73.5 -306q0 -157 -70 -301.5t-195 -225t-279 -80.5q-204 0 -327.5 145.5t-123.5 449.5v41h790q0 119 -50 217t-131 147.5t-184 49.5q-185 0 -409 -123v174zM912 460h-571v-28q0 -140 69 -223t183 -83q116 0 201 84.5
t118 249.5z" />
    <glyph glyph-name="Adieresismacron" unicode="&#x1de;" 
d="M233 0h-199l490 1591h210l493 -1591h-218l-109 350h-560zM390 509h464l-192 604l-45 160l-40 -160zM408 1696q-52 0 -89.5 37t-37.5 90t38 90t89 37t89 -37t38 -90t-37.5 -90t-89.5 -37zM854 1696q-52 0 -90 37t-38 90t38.5 90t89.5 37t89 -37t38 -90t-38 -90t-89 -37z
M345 2055v127h573v-127h-573z" />
    <glyph glyph-name="adieresismacron" unicode="&#x1df;" 
d="M912 257q-88 -143 -210.5 -216t-224.5 -73q-144 0 -258 124t-114 377q0 199 75.5 355t203 247t314.5 91q55 0 164 -12q17 -2 50 -5h191v-809q0 -207 43 -336h-199q-22 94 -35 257zM912 484v491q-102 27 -189 27q-176 0 -293.5 -136.5t-117.5 -371.5q0 -170 64 -256.5
t146 -86.5q89 0 196.5 90t193.5 243zM403 1266q-52 0 -89.5 37t-37.5 91q0 53 38 90t89 37t89 -37t38 -90q0 -54 -37.5 -91t-89.5 -37zM849 1266q-52 0 -90 37t-38 91q0 53 38.5 90t89.5 37t89 -37t38 -90q0 -54 -38 -91t-89 -37zM339 1625v127h574v-127h-574z" />
    <glyph glyph-name="Adotmacron" unicode="&#x1e0;" 
d="M233 0h-199l490 1591h210l493 -1591h-218l-109 350h-560zM390 509h464l-192 604l-45 160l-40 -160zM631 1696q-69 0 -118.5 48.5t-49.5 118.5t50 118.5t118 48.5q67 0 117 -48.5t50 -118.5t-49.5 -118.5t-117.5 -48.5zM345 2135v127h573v-127h-573z" />
    <glyph glyph-name="adotmacron" unicode="&#x1e1;" 
d="M912 257q-88 -143 -210.5 -216t-224.5 -73q-144 0 -258 124t-114 377q0 199 75.5 355t203 247t314.5 91q55 0 164 -12q17 -2 50 -5h191v-809q0 -207 43 -336h-199q-22 94 -35 257zM912 484v491q-102 27 -189 27q-176 0 -293.5 -136.5t-117.5 -371.5q0 -170 64 -256.5
t146 -86.5q89 0 196.5 90t193.5 243zM625 1266q-68 0 -117.5 49t-49.5 118q0 70 50 119t117 49q68 0 118 -49t50 -119q0 -69 -49.5 -118t-118.5 -49zM339 1705v127h574v-127h-574z" />
    <glyph glyph-name="AEmacron" unicode="&#x1e2;" 
d="M654 0v381h-322l-156 -381h-174l652 1591h557v-160h-366v-548h351v-159h-351v-549h366v-175h-557zM391 525h263v638zM320 1696v127h573v-127h-573z" />
    <glyph glyph-name="aemacron" unicode="&#x1e3;" 
d="M607 232q-53 -134 -123 -199t-135 -65q-115 0 -199 148t-84 379q0 205 56.5 358.5t151.5 238.5t204 85q36 0 76.5 -7.5t72.5 -19.5t82 -46q74 56 115 64.5t73 8.5q130 0 214.5 -116.5t84.5 -460.5v-51h-415v-86q0 -151 23 -213t66.5 -92.5t96.5 -30.5q104 0 229 81v-174
q-145 -66 -261 -66q-76 0 -139.5 26.5t-110 78.5t-78.5 159zM591 482v501q-25 18 -48.5 26.5t-46.5 8.5q-120 0 -180 -169t-60 -374q0 -121 34 -208q34 -88 86 -84q108 7 215 299zM781 684h223v33q0 180 -28 240.5t-81 60.5q-56 0 -85 -75.5t-29 -225.5v-33zM345 1282v127
h573v-127h-573z" />
    <glyph glyph-name="Gcaron" unicode="&#x1e6;" 
d="M1116 1q-169 -49 -309 -49q-199 0 -354.5 98.5t-243.5 297t-88 448.5q0 247 86 444t243 298.5t345 101.5q141 0 320 -67v-189q-165 96 -329 96q-123 0 -225 -84.5t-164 -247t-62 -354.5q0 -259 118 -471t372 -212q33 0 83 5v513h-158v159h366v-787zM618 1906l143 172h160
l-239 -334h-127l-239 334h159z" />
    <glyph glyph-name="gcaron" unicode="&#x1e7;" 
d="M924 257q-87 -143 -209.5 -216t-225.5 -73q-143 0 -257.5 124t-114.5 377q0 199 76 355t203 247t315 91q54 0 164 -12q16 -2 49 -5h192v-810q0 -289 -8 -353t-25 -130q-41 -152 -187 -240.5t-354 -88.5t-421 107v193q81 -56 199.5 -98.5t229.5 -42.5q87 0 165 27.5
t126 80.5q48 52 65.5 121.5t17.5 183.5v162zM924 484v491q-102 27 -189 27q-176 0 -293.5 -136.5t-117.5 -371.5q0 -170 64 -256.5t146 -86.5q89 0 197 90t193 243zM616 1428l143 173h160l-239 -335h-127l-239 335h159z" />
    <glyph glyph-name="Kcaron" unicode="&#x1e8;" 
d="M161 0v1591h207v-780l592 780h219l-571 -755l651 -836h-259l-632 811v-811h-207zM710 1858l142 172h160l-239 -334h-127l-239 334h159z" />
    <glyph glyph-name="kcaron" unicode="&#x1e9;" 
d="M210 0v1655h191v-1040l551 530h254l-550 -530l564 -615h-262l-557 615v-615h-191zM715 1922l142 172h160l-239 -334h-127l-239 334h159z" />
    <glyph glyph-name="Oogonek" unicode="&#x1ea;" 
d="M630 -48q-271 0 -414 228t-143 616q0 386 143 614.5t414 228.5t413.5 -228.5t142.5 -614.5q0 -388 -142.5 -616t-413.5 -228zM630 112q149 0 249 169.5t100 514.5q0 344 -100 514t-249 170q-150 0 -250 -170t-100 -514q0 -345 100 -514.5t250 -169.5zM805 -48
q-92 -43 -149 -120t-57 -126q0 -32 28.5 -60.5t95.5 -28.5q36 0 82 19v-99q-68 -30 -130 -30q-96 0 -158 51t-62 130q0 124 152 264h198z" />
    <glyph glyph-name="oogonek" unicode="&#x1eb;" 
d="M631 -32q-246 0 -394 172t-148 433q0 262 148 433t394 171q245 0 392.5 -171t147.5 -433q0 -261 -147.5 -433t-392.5 -172zM631 127q152 0 242.5 119t90.5 327q0 207 -90.5 326t-242.5 119q-154 0 -244.5 -119t-90.5 -326q0 -208 90.5 -327t244.5 -119zM805 -32
q-92 -43 -149 -120t-57 -126q0 -32 28.5 -60.5t95.5 -28.5q36 0 82 19v-99q-68 -30 -130 -30q-96 0 -158 51.5t-62 130.5q0 124 152 263h198z" />
    <glyph glyph-name="Oogonekmacron" unicode="&#x1ec;" 
d="M630 -48q-271 0 -414 228t-143 616q0 386 143 614.5t414 228.5t413.5 -228.5t142.5 -614.5q0 -388 -142.5 -616t-413.5 -228zM630 112q149 0 249 169.5t100 514.5q0 344 -100 514t-249 170q-150 0 -250 -170t-100 -514q0 -345 100 -514.5t250 -169.5zM805 -48
q-92 -43 -149 -120t-57 -126q0 -32 28.5 -60.5t95.5 -28.5q36 0 82 19v-99q-68 -30 -130 -30q-96 0 -158 51t-62 130q0 124 152 264h198zM344 1743v127h573v-127h-573z" />
    <glyph glyph-name="oogonekmacron" unicode="&#x1ed;" 
d="M631 -32q-246 0 -394 172t-148 433q0 262 148 433t394 171q245 0 392.5 -171t147.5 -433q0 -261 -147.5 -433t-392.5 -172zM631 127q152 0 242.5 119t90.5 327q0 207 -90.5 326t-242.5 119q-154 0 -244.5 -119t-90.5 -326q0 -208 90.5 -327t244.5 -119zM805 -32
q-92 -43 -149 -120t-57 -126q0 -32 28.5 -60.5t95.5 -28.5q36 0 82 19v-99q-68 -30 -130 -30q-96 0 -158 51.5t-62 130.5q0 124 152 263h198zM344 1282v127h573v-127h-573z" />
    <glyph glyph-name="jcaron" unicode="&#x1f0;" 
d="M176 -449v178q160 -47 270 -47q95 0 162 33.5t104.5 112.5t37.5 275v883h-486v159h676v-1007q0 -291 -68.5 -404t-166 -162.5t-266.5 -49.5q-122 0 -263 29zM574 1953l143 173h160l-239 -335h-127l-239 335h159z" />
    <glyph glyph-name="DZ" unicode="&#x1f1;" 
d="M159 0v1591h377q261 0 387.5 -90.5t190 -274t63.5 -434.5q0 -238 -67 -418t-190 -277t-384 -97h-377zM366 175h138q211 0 300.5 75t128 208t38.5 366q0 229 -45 352t-129 189t-276 66h-155v-1256zM1385 0v175l756 1256h-732v160h971v-160l-755 -1256h770v-175h-1010z" />
    <glyph glyph-name="Dz" unicode="&#x1f2;" 
d="M159 0v1591h377q261 0 387.5 -90.5t190 -274t63.5 -434.5q0 -238 -67 -418t-190 -277t-384 -97h-377zM366 175h138q211 0 300.5 75t128 208t38.5 366q0 229 -45 352t-129 189t-276 66h-155v-1256zM1396 0v175l703 811h-686v159h938v-159l-708 -811h732v-175h-979z" />
    <glyph glyph-name="dz" unicode="&#x1f3;" 
d="M924 257q-87 -143 -209.5 -216t-225.5 -73q-143 0 -257.5 124t-114.5 377q0 199 76 355t203 247t315 91q54 0 164 -12q16 -2 49 -5v510h192v-1655h-192v257zM924 484v491q-102 27 -189 27q-176 0 -293.5 -136.5t-117.5 -371.5q0 -170 64 -256.5t146 -86.5q89 0 197 90
t193 243zM1396 0v175l703 811h-686v159h938v-159l-708 -811h732v-175h-979z" />
    <glyph glyph-name="Gacute" unicode="&#x1f4;" 
d="M1116 1q-169 -49 -309 -49q-199 0 -354.5 98.5t-243.5 297t-88 448.5q0 247 86 444t243 298.5t345 101.5q141 0 320 -67v-189q-165 96 -329 96q-123 0 -225 -84.5t-164 -247t-62 -354.5q0 -259 118 -471t372 -212q33 0 83 5v513h-158v159h366v-787zM356 1744l303 334h222
l-351 -334h-174z" />
    <glyph glyph-name="gacute" unicode="&#x1f5;" 
d="M924 257q-87 -143 -209.5 -216t-225.5 -73q-143 0 -257.5 124t-114.5 377q0 199 76 355t203 247t315 91q54 0 164 -12q16 -2 49 -5h192v-810q0 -289 -8 -353t-25 -130q-41 -152 -187 -240.5t-354 -88.5t-421 107v193q81 -56 199.5 -98.5t229.5 -42.5q87 0 165 27.5
t126 80.5q48 52 65.5 121.5t17.5 183.5v162zM924 484v491q-102 27 -189 27q-176 0 -293.5 -136.5t-117.5 -371.5q0 -170 64 -256.5t146 -86.5q89 0 197 90t193 243zM472 1266l303 335h222l-351 -335h-174z" />
    <glyph glyph-name="Ngrave" unicode="&#x1f8;" 
d="M320 0h-191v1591h187l563 -1059l61 -158h5l-5 158v1059h191v-1591h-191l-547 1042l-77 167l4 -165v-1044zM892 1696h-174l-351 334h222z" />
    <glyph glyph-name="ngrave" unicode="&#x1f9;" 
d="M159 0v1145h191v-250q82 132 197.5 207t231.5 75q102 0 185 -54t116.5 -141t33.5 -342v-640h-191v663q0 166 -16 218.5t-58.5 86.5t-92.5 34q-101 0 -216 -95.5t-190 -238.5v-668h-191zM898 1282h-174l-351 334h222z" />
    <glyph glyph-name="Aringacute" unicode="&#x1fa;" 
d="M233 0h-199l490 1591h210l493 -1591h-218l-109 350h-560zM390 509h464l-192 604l-45 160l-40 -160zM631 1791q40 0 67.5 28.5t27.5 67.5t-27.5 67t-67.5 28q-39 0 -67.5 -28t-28.5 -67t28.5 -67.5t67.5 -28.5zM631 1696q-80 0 -135.5 57.5t-55.5 133.5q0 77 56 133.5
t135 56.5q80 0 135 -56.5t55 -133.5q0 -76 -55 -133.5t-135 -57.5zM368 2182l304 334h221l-351 -334h-174z" />
    <glyph glyph-name="aringacute" unicode="&#x1fb;" 
d="M912 257q-88 -143 -210.5 -216t-224.5 -73q-144 0 -258 124t-114 377q0 199 75.5 355t203 247t314.5 91q55 0 164 -12q17 -2 50 -5h191v-809q0 -207 43 -336h-199q-22 94 -35 257zM912 484v491q-102 27 -189 27q-176 0 -293.5 -136.5t-117.5 -371.5q0 -170 64 -256.5
t146 -86.5q89 0 196.5 90t193.5 243zM625 1362q40 0 68 28t28 67t-28 67t-68 28q-38 0 -66.5 -28t-28.5 -67t28.5 -67t66.5 -28zM625 1266q-79 0 -134.5 57.5t-55.5 133.5q0 77 56 134t134 57q80 0 135.5 -57t55.5 -134q0 -76 -55.5 -133.5t-135.5 -57.5zM363 1752l304 335
h221l-351 -335h-174z" />
    <glyph glyph-name="AEacute" unicode="&#x1fc;" 
d="M654 0v381h-322l-156 -381h-174l652 1591h557v-160h-366v-548h351v-159h-351v-549h366v-175h-557zM391 525h263v638zM344 1696l303 334h222l-351 -334h-174z" />
    <glyph glyph-name="aeacute" unicode="&#x1fd;" 
d="M607 232q-53 -134 -123 -199t-135 -65q-115 0 -199 148t-84 379q0 205 56.5 358.5t151.5 238.5t204 85q36 0 76.5 -7.5t72.5 -19.5t82 -46q74 56 115 64.5t73 8.5q130 0 214.5 -116.5t84.5 -460.5v-51h-415v-86q0 -151 23 -213t66.5 -92.5t96.5 -30.5q104 0 229 81v-174
q-145 -66 -261 -66q-76 0 -139.5 26.5t-110 78.5t-78.5 159zM591 482v501q-25 18 -48.5 26.5t-46.5 8.5q-120 0 -180 -169t-60 -374q0 -121 34 -208q34 -88 86 -84q108 7 215 299zM781 684h223v33q0 180 -28 240.5t-81 60.5q-56 0 -85 -75.5t-29 -225.5v-33zM368 1282
l304 334h221l-351 -334h-174z" />
    <glyph glyph-name="Oslashacute" unicode="&#x1fe;" 
d="M214 -112h-141l152 283q-65 103 -92.5 194.5t-43.5 203.5t-16 236q0 408 151 621t400 213q56 0 115 -12t105 -31.5t111 -69.5l95 176h136l-145 -280q62 -105 89 -189.5t41.5 -207t14.5 -241.5q0 -255 -68 -446.5t-184.5 -288.5t-314.5 -97q-84 0 -147 19.5t-158 99.5z
M329 369l538 994q-63 75 -122 96t-115 21q-158 0 -254 -179t-96 -492q0 -49 3 -150t12 -153.5t34 -136.5zM934 1225l-534 -994q54 -68 111 -93.5t113 -25.5q179 0 267 189t88 496q0 53 -3 141t-10.5 144t-31.5 143zM367 1807l304 334h221l-351 -334h-174z" />
    <glyph glyph-name="oslashacute" unicode="&#x1ff;" 
d="M242 -95h-153l154 226q-154 194 -154 447q0 249 138.5 424t401.5 175q51 0 102 -7t91.5 -20.5t98.5 -47.5l96 139h154l-153 -221q153 -198 153 -447q0 -243 -135.5 -424t-405.5 -181q-65 0 -127 11t-163 66zM350 287l475 680q-91 51 -194 51q-163 0 -249 -118.5
t-86 -321.5q0 -153 54 -291zM912 866l-477 -685q98 -54 185 -54q188 0 266 125.5t78 315.5q0 164 -52 298zM367 1345l304 335h221l-351 -335h-174z" />
    <glyph glyph-name="Scommaaccent" unicode="&#x218;" 
d="M161 34v195q246 -117 447 -117q84 0 161 32t116.5 92.5t39.5 131.5q0 83 -54.5 155.5t-203.5 159.5l-105 60l-106 61q-279 165 -279 410q0 180 125 302.5t389 122.5q170 0 329 -50v-177q-175 68 -341 68q-132 0 -214 -70t-82 -168t63 -162.5t160 -118.5l80 -48l99 -61
l85 -49q261 -160 261 -402q0 -185 -134.5 -317t-430.5 -132q-94 0 -180 16t-225 66zM607 -744v83q47 12 72 35.5t40 60t15 87.5q-61 0 -90.5 35t-29.5 75q0 46 32.5 78t76.5 32q55 0 96 -49t41 -132q0 -74 -32 -139t-87 -110.5t-134 -55.5z" />
    <glyph glyph-name="scommaaccent" unicode="&#x219;" 
d="M172 60v203q115 -75 243 -105.5t218 -30.5q144 0 207.5 46.5t63.5 116.5q0 46 -29 79q-30 33 -148 81l-66 27l-132 52q-213 83 -269 154q-56 70 -56 170q0 142 109 233t355 91q183 0 347 -53v-173q-189 67 -355 67q-121 0 -189 -42.5t-68 -105.5q0 -62 59 -99t191 -85
l129 -47q178 -65 250 -141q71 -76 71 -189q0 -149 -114 -245t-366 -96q-219 0 -451 92zM599 -728v83q47 12 72 36t40 60t15 88q-62 0 -91 34.5t-29 74.5q0 46 32.5 78t76.5 32q55 0 96 -48.5t41 -131.5q0 -74 -32 -139.5t-87 -111t-134 -55.5z" />
    <glyph glyph-name="Tcommaaccent" unicode="&#x21a;" 
d="M526 0v1416h-477v175h1162v-175h-478v-1416h-207zM591 -696v83q47 12 72 35.5t40 60t15 87.5q-62 0 -91 35t-29 75q0 46 32 78t76 32q56 0 97 -49t41 -132q0 -74 -32.5 -139t-87 -110.5t-133.5 -55.5z" />
    <glyph glyph-name="tcommaaccent" unicode="&#x21b;" 
d="M1117 46q-135 -56 -195.5 -67t-116.5 -11q-120 0 -219.5 46t-150 136.5t-50.5 279.5v461h-287v159h287v461h190v-461h510v-159h-510v-458q0 -139 33 -196t88 -83.5t129 -26.5q139 0 292 87v-168zM570 -728v83q47 12 72.5 36t40 60t14.5 88q-61 0 -90.5 34.5t-29.5 74.5
q0 46 32.5 78t76.5 32q55 0 96 -48.5t41 -131.5q0 -74 -32 -139.5t-87 -111t-134 -55.5z" />
    <glyph glyph-name="Hcaron" unicode="&#x21e;" 
d="M129 0v1591h207v-685h589v685h206v-1591h-206v748h-589v-748h-207zM630 1858l142 172h160l-239 -334h-127l-239 334h159z" />
    <glyph glyph-name="hcaron" unicode="&#x21f;" 
d="M159 0v1655h191v-760q82 132 197.5 207t231.5 75q98 0 178.5 -49.5t111.5 -120.5q26 -54 35.5 -115t9.5 -252v-640h-191v663q0 166 -16 218.5t-58.5 86.5t-92.5 34q-101 0 -216 -95.5t-190 -238.5v-668h-191zM636 1922l142 172h160l-239 -334h-127l-239 334h159z" />
    <glyph glyph-name="Adotaccent" unicode="&#x226;" 
d="M233 0h-199l490 1591h210l493 -1591h-218l-109 350h-560zM390 509h464l-192 604l-45 160l-40 -160zM631 1696q-69 0 -118.5 48.5t-49.5 118.5t50 118.5t118 48.5q67 0 117 -48.5t50 -118.5t-49.5 -118.5t-117.5 -48.5z" />
    <glyph glyph-name="adotaccent" unicode="&#x227;" 
d="M912 257q-88 -143 -210.5 -216t-224.5 -73q-144 0 -258 124t-114 377q0 199 75.5 355t203 247t314.5 91q55 0 164 -12q17 -2 50 -5h191v-809q0 -207 43 -336h-199q-22 94 -35 257zM912 484v491q-102 27 -189 27q-176 0 -293.5 -136.5t-117.5 -371.5q0 -170 64 -256.5
t146 -86.5q89 0 196.5 90t193.5 243zM625 1266q-68 0 -117.5 49t-49.5 118q0 70 50 119t117 49q68 0 118 -49t50 -119q0 -69 -49.5 -118t-118.5 -49z" />
    <glyph glyph-name="Ecedilla" unicode="&#x228;" 
d="M1067 175v-175h-859v1591h843v-160h-636v-540h572v-159h-572v-557h652zM711 0l-75 -134q109 -22 143 -67.5t34 -94.5q0 -57 -45 -103.5t-141 -46.5q-86 0 -164 29v91q60 -32 122 -32q36 0 65 21.5t29 45.5q0 70 -191 89l112 202h111z" />
    <glyph glyph-name="ecedilla" unicode="&#x229;" 
d="M1112 76q-229 -109 -433 -109q-155 0 -277 77t-195.5 220t-73.5 306q0 157 70 301.5t195 225t279 80.5q204 0 327.5 -145.5t123.5 -449.5v-41h-790q0 -119 50 -217t131 -147.5t184 -49.5q185 0 409 123v-174zM350 684h571v28q0 140 -69 223t-183 83q-116 0 -201 -84.5
t-118 -249.5zM703 -33l-74 -134q109 -22 143 -67.5t34 -94.5q0 -57 -45 -103.5t-142 -46.5q-85 0 -163 29v91q60 -32 122 -32q36 0 65 21.5t29 45.5q0 70 -191 89l112 202h110z" />
    <glyph glyph-name="Odieresismacron" unicode="&#x22a;" 
d="M630 -48q-271 0 -414 228t-143 616q0 386 143 614.5t414 228.5t413.5 -228.5t142.5 -614.5q0 -388 -142.5 -616t-413.5 -228zM630 112q149 0 249 169.5t100 514.5q0 344 -100 514t-249 170q-150 0 -250 -170t-100 -514q0 -345 100 -514.5t250 -169.5zM407 1743
q-52 0 -89.5 37t-37.5 90q0 54 38 90.5t89 36.5t89 -36.5t38 -90.5q0 -53 -37.5 -90t-89.5 -37zM853 1743q-52 0 -90 37t-38 90q0 54 38.5 90.5t89.5 36.5t89 -36.5t38 -90.5q0 -53 -38 -90t-89 -37zM344 2102v127h573v-127h-573z" />
    <glyph glyph-name="odieresismacron" unicode="&#x22b;" 
d="M631 -32q-246 0 -394 172t-148 433q0 262 148 433t394 171q245 0 392.5 -171t147.5 -433q0 -261 -147.5 -433t-392.5 -172zM631 127q152 0 242.5 119t90.5 327q0 207 -90.5 326t-242.5 119q-154 0 -244.5 -119t-90.5 -326q0 -208 90.5 -327t244.5 -119zM407 1282
q-52 0 -89.5 37t-37.5 90t38 90t89 37t89 -37t38 -90t-37.5 -90t-89.5 -37zM853 1282q-52 0 -90 37t-38 90t38.5 90t89.5 37t89 -37t38 -90t-38 -90t-89 -37zM344 1641v127h573v-127h-573z" />
    <glyph glyph-name="Otildemacron" unicode="&#x22c;" 
d="M630 -48q-271 0 -414 228t-143 616q0 386 143 614.5t414 228.5t413.5 -228.5t142.5 -614.5q0 -388 -142.5 -616t-413.5 -228zM630 112q149 0 249 169.5t100 514.5q0 344 -100 514t-249 170q-150 0 -250 -170t-100 -514q0 -345 100 -514.5t250 -169.5zM423 1744h-128
q0 136 53 199.5t133 63.5q63 0 129 -41l43 -26q85 -53 119 -53q62 0 62 120h130q-6 -105 -27.5 -153t-66.5 -79.5t-98 -31.5q-67 0 -144 50l-46 29l-24 18q-35 23 -67 23q-22 0 -45 -23.5t-23 -95.5zM344 2111v127h573v-127h-573z" />
    <glyph glyph-name="otildemacron" unicode="&#x22d;" 
d="M631 -32q-246 0 -394 172t-148 433q0 262 148 433t394 171q245 0 392.5 -171t147.5 -433q0 -261 -147.5 -433t-392.5 -172zM631 127q152 0 242.5 119t90.5 327q0 207 -90.5 326t-242.5 119q-154 0 -244.5 -119t-90.5 -326q0 -208 90.5 -327t244.5 -119zM423 1283h-128
q0 135 53 198.5t133 63.5q63 0 129 -41l43 -25q85 -54 119 -54q62 0 62 120h130q-6 -104 -27.5 -152.5t-66.5 -79.5t-98 -31q-67 0 -144 50l-46 29l-24 17q-35 24 -67 24q-22 0 -45 -23.5t-23 -95.5zM344 1650v127h573v-127h-573z" />
    <glyph glyph-name="Odotaccent" unicode="&#x22e;" 
d="M630 -48q-271 0 -414 228t-143 616q0 386 143 614.5t414 228.5t413.5 -228.5t142.5 -614.5q0 -388 -142.5 -616t-413.5 -228zM630 112q149 0 249 169.5t100 514.5q0 344 -100 514t-249 170q-150 0 -250 -170t-100 -514q0 -345 100 -514.5t250 -169.5zM630 1743
q-69 0 -118.5 49t-49.5 118q0 70 50 118.5t118 48.5q67 0 117 -48.5t50 -118.5q0 -69 -49.5 -118t-117.5 -49z" />
    <glyph glyph-name="odotaccent" unicode="&#x22f;" 
d="M631 -32q-246 0 -394 172t-148 433q0 262 148 433t394 171q245 0 392.5 -171t147.5 -433q0 -261 -147.5 -433t-392.5 -172zM631 127q152 0 242.5 119t90.5 327q0 207 -90.5 326t-242.5 119q-154 0 -244.5 -119t-90.5 -326q0 -208 90.5 -327t244.5 -119zM630 1282
q-69 0 -118.5 48.5t-49.5 118.5t50 118.5t118 48.5q67 0 117 -48.5t50 -118.5t-49.5 -118.5t-117.5 -48.5z" />
    <glyph glyph-name="Odotaccentmacron" unicode="&#x230;" 
d="M630 -48q-271 0 -414 228t-143 616q0 386 143 614.5t414 228.5t413.5 -228.5t142.5 -614.5q0 -388 -142.5 -616t-413.5 -228zM630 112q149 0 249 169.5t100 514.5q0 344 -100 514t-249 170q-150 0 -250 -170t-100 -514q0 -345 100 -514.5t250 -169.5zM630 1743
q-69 0 -118.5 49t-49.5 118q0 70 50 118.5t118 48.5q67 0 117 -48.5t50 -118.5q0 -69 -49.5 -118t-117.5 -49zM344 2182v127h573v-127h-573z" />
    <glyph glyph-name="odotaccentmacron" unicode="&#x231;" 
d="M631 -32q-246 0 -394 172t-148 433q0 262 148 433t394 171q245 0 392.5 -171t147.5 -433q0 -261 -147.5 -433t-392.5 -172zM631 127q152 0 242.5 119t90.5 327q0 207 -90.5 326t-242.5 119q-154 0 -244.5 -119t-90.5 -326q0 -208 90.5 -327t244.5 -119zM630 1282
q-69 0 -118.5 48.5t-49.5 118.5t50 118.5t118 48.5q67 0 117 -48.5t50 -118.5t-49.5 -118.5t-117.5 -48.5zM344 1721v127h573v-127h-573z" />
    <glyph glyph-name="Ymacron" unicode="&#x232;" 
d="M527 0v736l-474 855h235l354 -631l353 631h212l-473 -855v-736h-207zM344 1696v127h573v-127h-573z" />
    <glyph glyph-name="ymacron" unicode="&#x233;" 
d="M580 46l-529 1099h210l422 -859l353 859h191l-444 -1064q-140 -337 -266.5 -448t-327.5 -111q-87 0 -156 16v168q79 -25 151 -25q92 0 163.5 36t131 127t84.5 158zM344 1250v127h573v-127h-573z" />
    <glyph glyph-name="uni0258" unicode="&#x258;" 
d="M150 250q224 -123 409 -123q103 0 184 49.5t131 147.5t50 217h-790v41q0 304 123.5 449.5t327.5 145.5q154 0 279 -80.5t195 -225t70 -301.5q0 -163 -73.5 -306t-195.5 -220t-277 -77q-204 0 -433 109v174zM912 684q-33 165 -118 249.5t-201 84.5q-114 0 -183 -83
t-69 -223v-28h571v0z" />
    <glyph glyph-name="uni0259" unicode="&#x259;" 
d="M150 1068q229 109 433 109q155 0 277 -77t195.5 -220t73.5 -306q0 -157 -70 -301.5t-195 -225t-279 -80.5q-204 0 -327.5 145.5t-123.5 449.5v41h790q0 119 -50 217t-131 147.5t-184 49.5q-185 0 -409 -123v174zM912 460h-571v-28q0 -140 69 -223t183 -83q116 0 201 84.5
t118 249.5z" />
    <glyph glyph-name="circumflex" unicode="&#x2c6;" 
d="M631 1493l-144 -172h-159l239 334h127l239 -334h-160z" />
    <glyph glyph-name="caron" unicode="&#x2c7;" 
d="M631 1483l142 172h160l-239 -334h-127l-239 334h159z" />
    <glyph glyph-name="breve" unicode="&#x2d8;" 
d="M459 1655q10 -79 60 -139t113 -60q62 0 111.5 61t58.5 138h131q-12 -114 -57.5 -184t-110.5 -110t-133 -40q-69 0 -134 40t-111 110t-59 184h131z" />
    <glyph glyph-name="dotaccent" unicode="&#x2d9;" 
d="M630 1321q-69 0 -118.5 48.5t-49.5 118.5t50 118.5t118 48.5q67 0 117 -48.5t50 -118.5t-49.5 -118.5t-117.5 -48.5z" />
    <glyph glyph-name="ring" unicode="&#x2da;" 
d="M630 1416q40 0 67.5 28t27.5 67t-27.5 67.5t-67.5 28.5q-39 0 -67.5 -28.5t-28.5 -67.5t28.5 -67t67.5 -28zM630 1321q-80 0 -135.5 57.5t-55.5 132.5q0 77 56 134t135 57q80 0 135 -57t55 -134q0 -75 -55 -132.5t-135 -57.5z" />
    <glyph glyph-name="ogonek" unicode="&#x2db;" 
d="M805 0q-92 -43 -149 -120t-57 -126q0 -32 28.5 -60.5t95.5 -28.5q36 0 82 19v-99q-68 -30 -130 -30q-96 0 -158 51.5t-62 129.5q0 125 152 264h198z" />
    <glyph glyph-name="tilde" unicode="&#x2dc;" 
d="M425 1321h-129q0 135 53 198.5t133 63.5q64 0 129 -41l43 -25q85 -54 119 -54q62 0 62 120h130q-6 -104 -27.5 -152.5t-66.5 -79.5t-98 -31q-67 0 -144 50l-46 29l-24 17q-35 24 -67 24q-22 0 -44.5 -24t-22.5 -95z" />
    <glyph glyph-name="hungarumlaut" unicode="&#x2dd;" 
d="M542 1321h-119l146 334h126zM823 1321h-121l149 334h129z" />
    <glyph glyph-name="uni02EE" unicode="&#x2ee;" 
d="M185 938v128q73 20 111.5 56t61.5 91.5t23 135.5q-95 0 -140 54t-45 115q0 71 50 120t117 49q86 0 148.5 -74.5t62.5 -203.5q0 -114 -49 -213.5t-133.5 -170t-206.5 -87.5zM686 938v128q73 20 112 56t62 91.5t23 135.5q-95 0 -140.5 54t-45.5 115q0 71 50 120t116 49
q88 0 150.5 -74.5t62.5 -203.5q0 -114 -49.5 -213.5t-134 -170t-206.5 -87.5z" />
    <glyph glyph-name="gravecmb" unicode="&#x300;" 
d="M853 1321h-174l-351 334h222z" />
    <glyph glyph-name="acutecmb" unicode="&#x301;" 
d="M328 1321l304 334h221l-351 -334h-174z" />
    <glyph glyph-name="circumflexcmb" unicode="&#x302;" 
d="M631 1493l-144 -172h-159l239 334h127l239 -334h-160z" />
    <glyph glyph-name="tildecmb" unicode="&#x303;" 
d="M425 1321h-129q0 135 53 198.5t133 63.5q64 0 129 -41l43 -25q85 -54 119 -54q62 0 62 120h130q-6 -104 -27.5 -152.5t-66.5 -79.5t-98 -31q-67 0 -144 50l-46 29l-24 17q-35 24 -67 24q-22 0 -44.5 -24t-22.5 -95z" />
    <glyph glyph-name="macroncmb" unicode="&#x304;" 
d="M344 1321v127h573v-127h-573z" />
    <glyph glyph-name="brevecmb" unicode="&#x306;" 
d="M459 1655q10 -79 60 -139t113 -60q62 0 111.5 61t58.5 138h131q-12 -114 -57.5 -184t-110.5 -110t-133 -40q-69 0 -134 40t-111 110t-59 184h131z" />
    <glyph glyph-name="dotaccentcmb" unicode="&#x307;" 
d="M630 1321q-69 0 -118.5 48.5t-49.5 118.5t50 118.5t118 48.5q67 0 117 -48.5t50 -118.5t-49.5 -118.5t-117.5 -48.5z" />
    <glyph glyph-name="dieresiscmb" unicode="&#x308;" 
d="M407 1321q-52 0 -89.5 37t-37.5 90t38 90t89 37t89 -37t38 -90t-37.5 -90t-89.5 -37zM853 1321q-52 0 -90 37t-38 90t38.5 90t89.5 37t89 -37t38 -90t-38 -90t-89 -37z" />
    <glyph glyph-name="ringcmb" unicode="&#x30a;" 
d="M630 1416q40 0 67.5 28t27.5 67t-27.5 67.5t-67.5 28.5q-39 0 -67.5 -28.5t-28.5 -67.5t28.5 -67t67.5 -28zM630 1321q-80 0 -135.5 57.5t-55.5 132.5q0 77 56 134t135 57q80 0 135 -57t55 -134q0 -75 -55 -132.5t-135 -57.5z" />
    <glyph glyph-name="hungarumlautcmb" unicode="&#x30b;" 
d="M542 1321h-119l146 334h126zM823 1321h-121l149 334h129z" />
    <glyph glyph-name="caroncmb" unicode="&#x30c;" 
d="M631 1483l142 172h160l-239 -334h-127l-239 334h159z" />
    <glyph glyph-name="dotbelowcmb" unicode="&#x323;" 
d="M630 -779q-69 0 -118.5 48.5t-49.5 118.5t50 118.5t118 48.5q67 0 117 -48.5t50 -118.5t-49.5 -118.5t-117.5 -48.5z" />
    <glyph glyph-name="dieresisbelowcmb" unicode="&#x324;" 
d="M407 -779q-52 0 -89.5 37t-37.5 90t38 90t89 37t89 -37t38 -90t-37.5 -90t-89.5 -37zM853 -779q-52 0 -90 37t-38 90t38.5 90t89.5 37t89 -37t38 -90t-38 -90t-89 -37z" />
    <glyph glyph-name="ringbelowcmb" unicode="&#x325;" 
d="M630 -684q40 0 67.5 28t27.5 67t-27.5 67.5t-67.5 28.5q-39 0 -67.5 -28.5t-28.5 -67.5t28.5 -67t67.5 -28zM630 -779q-80 0 -135.5 57.5t-55.5 132.5q0 77 56 134t135 57q80 0 135 -57t55 -134q0 -75 -55 -132.5t-135 -57.5z" />
    <glyph glyph-name="commaaccent" unicode="&#x326;" 
d="M435 -445v127q74 20 112 56t61.5 92t23.5 135q-96 0 -141 54t-45 115q0 71 50.5 119.5t116.5 48.5q86 0 148.5 -74t62.5 -203q0 -113 -49 -213t-133.5 -171t-206.5 -86z" />
    <glyph glyph-name="cedillacmb" unicode="&#x327;" 
d="M702 0l-74 -134q109 -22 143 -67.5t34 -94.5q0 -57 -45 -103.5t-142 -46.5q-85 0 -163 29v91q60 -32 122 -32q36 0 65 21.5t29 45.5q0 70 -191 89l112 202h110z" />
    <glyph glyph-name="ogonekcmb" unicode="&#x328;" 
d="M805 0q-92 -43 -149 -120t-57 -126q0 -32 28.5 -60.5t95.5 -28.5q36 0 82 19v-99q-68 -30 -130 -30q-96 0 -158 51.5t-62 129.5q0 125 152 264h198z" />
    <glyph glyph-name="circumflexbelowcmb" unicode="&#x32d;" 
d="M631 -607l-144 -172h-159l239 334h127l239 -334h-160z" />
    <glyph glyph-name="brevebelowcmb" unicode="&#x32e;" 
d="M459 -445q10 -79 60 -139t113 -60q62 0 111.5 61t58.5 138h131q-12 -114 -57.5 -184t-110.5 -110t-133 -40q-69 0 -134 40t-111 110t-59 184h131z" />
    <glyph glyph-name="tildebelowcmb" unicode="&#x330;" 
d="M425 -779h-129q0 135 53 198.5t133 63.5q64 0 129 -41l43 -25q85 -54 119 -54q62 0 62 120h130q-6 -104 -27.5 -152.5t-66.5 -79.5t-98 -31q-67 0 -144 50l-46 29l-24 17q-35 24 -67 24q-22 0 -44.5 -24t-22.5 -95z" />
    <glyph glyph-name="macronbelowcmb" unicode="&#x331;" 
d="M344 -779v127h573v-127h-573z" />
    <glyph glyph-name="soliduslongoverlaycmb" unicode="&#x338;" 
d="M188 -48h-188l1012 1687h182z" />
    <glyph glyph-name="combininggraphemejoiner" unicode="&#x34f;" horiz-adv-x="0" 
 />
    <glyph glyph-name="Omega" unicode="&#x3a9;" 
d="M542 0h-508v183h247q-128 145 -167.5 291t-39.5 324q0 383 142.5 612t414.5 229q271 0 413.5 -229t142.5 -612q0 -178 -39.5 -324t-167.5 -291h247v-183h-509v183q91 41 144.5 117t85.5 203t32 294q0 320 -91 501.5t-258 181.5q-169 0 -260 -182.5t-91 -499.5
q0 -167 32.5 -294t85.5 -203.5t144 -117.5v-183z" />
    <glyph glyph-name="pi" unicode="&#x3c0;" 
d="M487 978v-978h-192v978h-25q-103 0 -221 -68v193q45 17 78.5 24t82.5 12.5t73 5.5h896v-167h-192v-593q0 -221 76 -385h-196q-70 163 -70 379v599h-310z" />
    <glyph glyph-name="IOcyrillic" unicode="&#x401;" 
d="M1067 175v-175h-859v1591h843v-160h-636v-540h572v-159h-572v-557h652zM415 1766q-53 0 -90 37t-37 90q0 52 37.5 89.5t89.5 37.5q53 0 90 -37.5t37 -89.5q0 -53 -36.5 -90t-90.5 -37zM861 1766q-53 0 -90.5 37t-37.5 90q0 52 38 89.5t90 37.5q53 0 90 -37.5t37 -89.5
t-37 -89.5t-90 -37.5z" />
    <glyph glyph-name="DJEcyrillic" unicode="&#x402;" 
d="M549 -155q199 0 312 155q101 138 101 342v342q0 236 -167 236q-105 0 -201 -115q-70 -81 -107 -178v-627h-207v1432h-272v159h998v-159h-519v-578q39 99 123 164q99 77 225 77q172 0 259 -129q75 -113 75 -306v-292q0 -182 -68 -336q-73 -167 -212 -267
q-127 -90 -340 -90v170z" />
    <glyph glyph-name="GJEcyrillic" unicode="&#x403;" 
d="M497 0h-207v1591h875v-160h-668v-1431zM479 1766l303 334h222l-351 -334h-174z" />
    <glyph glyph-name="Ecyrillic" unicode="&#x404;" 
d="M1116 18q-179 -66 -320 -66q-187 0 -344 100q-170 108 -257 327q-74 188 -74 417q0 227 74 415q86 217 255 327q157 102 346 102q141 0 320 -67v-189q-165 96 -328 96q-124 0 -225 -84q-189 -156 -224 -490h585v-158h-589q7 -157 61 -303q63 -167 169 -252
q100 -82 223 -82q162 0 328 95v-188z" />
    <glyph glyph-name="DZEcyrillic" unicode="&#x405;" 
d="M161 34v195q246 -117 447 -117q126 0 215 62q102 72 102 194q0 166 -258 315l-211 121q-279 161 -279 410q0 215 154 326q137 99 360 99q170 0 329 -50v-177q-175 68 -341 68q-117 0 -201 -60q-95 -66 -95 -178q0 -97 70 -169q43 -47 153 -112l264 -158
q261 -157 261 -402q0 -229 -172 -348q-147 -101 -372 -101q-198 0 -426 82z" />
    <glyph glyph-name="Icyrillic" unicode="&#x406;" 
d="M176 0v159h350v1272h-350v160h907v-160h-350v-1272h350v-159h-907z" />
    <glyph glyph-name="YIcyrillic" unicode="&#x407;" 
d="M176 0v159h350v1272h-350v160h907v-160h-350v-1272h350v-159h-907zM407 1766q-53 0 -90 37t-37 90q0 52 37.5 89.5t89.5 37.5t89.5 -37.5t37.5 -89.5q0 -53 -37 -90t-90 -37zM853 1766q-53 0 -90.5 37t-37.5 90q0 52 38 89.5t90 37.5t89.5 -37.5t37.5 -89.5t-37.5 -89.5
t-89.5 -37.5z" />
    <glyph glyph-name="JEcyrillic" unicode="&#x408;" 
d="M113 35v195q223 -118 374 -118q188 0 248 140q38 87 38 303v876h-358v160h565v-1062q0 -266 -93 -404q-118 -173 -395 -173q-182 0 -379 83z" />
    <glyph glyph-name="LJEcyrillic" unicode="&#x409;" 
d="M1230 410q0 -202 -128 -307q-123 -103 -349 -103h-187v1432h-171v-562q0 -408 -21 -564q-25 -197 -106 -269q-77 -69 -262 -69v174q143 0 174 126q22 85 22 487v836h557v-669q202 -21 333 -156q138 -143 138 -356zM1039 410q0 145 -76.5 239.5t-203.5 112.5v-605
q280 22 280 253z" />
    <glyph glyph-name="NJEcyrillic" unicode="&#x40a;" 
d="M556 762h-302v-762h-197v1591h197v-669h302v669h193v-669q202 -21 333 -156q138 -143 138 -356q0 -202 -128 -307q-123 -103 -350 -103h-186v762zM1028 410q0 145 -76 239.5t-203 112.5v-605q279 22 279 253z" />
    <glyph glyph-name="TSHEcyrillic" unicode="&#x40b;" 
d="M1169 0h-207v684q0 236 -167 236q-105 0 -201 -115q-70 -81 -107 -178v-627h-207v1432h-272v159h998v-159h-519v-578q39 99 123 164q99 77 225 77q172 0 259 -129q75 -113 75 -306v-660z" />
    <glyph glyph-name="KJEcyrillic" unicode="&#x40c;" 
d="M161 0v1591h207v-780l592 780h219l-571 -755l651 -836h-259l-632 811v-811h-207zM376 1766l304 334h221l-350 -334h-175z" />
    <glyph glyph-name="uni040D" unicode="&#x40d;" 
d="M1131 0h-191v1238l-624 -1238h-187v1591h191v-1229l620 1229h191v-1591zM892 1696h-174l-351 334h222z" />
    <glyph glyph-name="Ushortcyrillic" unicode="&#x40e;" 
d="M974 2032q-13 -127 -90 -210q-84 -91 -211 -91q-130 0 -214 91q-74 82 -90 210h131q9 -67 54 -115q48 -51 119 -51q68 0 118 51q44 48 52 115h131zM1227 1591l-479 -1145q-93 -219 -180 -316q-146 -162 -379 -162q-67 0 -136 16v177q63 -19 131 -19q238 0 364 306l20 49
l-527 1094h231l401 -836l342 836h212z" />
    <glyph glyph-name="DZHEcyrillic" unicode="&#x40f;" 
d="M729 0v-445h-197v445h-403v1591h207v-1416h589v1416h206v-1591h-402z" />
    <glyph glyph-name="Acyrillic" unicode="&#x410;" 
d="M233 0h-199l490 1591h210l493 -1591h-213l-110 350h-564zM390 509h464l-237 764l-40 -160z" />
    <glyph glyph-name="BEcyrillic" unicode="&#x411;" 
d="M935 457q0 242 -194 346q-93 49 -285 49h-68v-694h103q202 0 304 50q140 70 140 249zM1061 1591v-160l-673 1v-421h63q245 0 389 -71q139 -70 220.5 -201t81.5 -288q0 -283 -230 -396q-112 -55 -356 -55h-376v1591h881z" />
    <glyph glyph-name="VEcyrillic" unicode="&#x412;" 
d="M176 0v1591h311q280 0 375 -42q189 -85 189 -315q0 -271 -268 -415q324 -129 324 -408q0 -111 -58.5 -208.5t-157.5 -149.5q-102 -53 -328 -53h-387zM383 875h218q251 104 251 333q0 139 -101 191q-70 34 -223 34h-145v-558zM383 159h196q138 0 224 61q97 70 97 202
q0 177 -176 255q-90 39 -283 39h-58v-557z" />
    <glyph glyph-name="GEcyrillic" unicode="&#x413;" 
d="M497 0h-207v1591h875v-160h-668v-1431z" />
    <glyph glyph-name="DEcyrillic" unicode="&#x414;" 
d="M1234 -445h-197v445h-816v-445h-196v603q166 48 239 277q50 158 50 372v784h757v-1433h163v-603zM864 158v1274h-354v-689q0 -180 -43 -338q-50 -179 -135 -247h532z" />
    <glyph glyph-name="IEcyrillic" unicode="&#x415;" 
d="M1067 158v-158h-859v1591h843v-160h-636v-540h572v-159h-572v-574h652z" />
    <glyph glyph-name="ZHEcyrillic" unicode="&#x416;" 
d="M1262 0h-218l-311 811v-811h-206v811l-311 -811h-218l320 836l-302 755h199l312 -780v780h206v-780l312 780h199l-302 -755z" />
    <glyph glyph-name="ZEcyrillic" unicode="&#x417;" 
d="M920 453q0 343 -499 343h-74v159h126q152 0 252 65q116 78 116 224q0 120 -91 182q-79 54 -206 54q-171 0 -374 -100v182q206 77 367 77q219 0 349 -77q162 -96 162 -299q0 -244 -274 -374q353 -105 353 -422q0 -237 -175 -381q-166 -134 -409 -134q-187 0 -415 82v195
q232 -118 428 -118q156 0 258 92q106 96 106 250z" />
    <glyph glyph-name="IIcyrillic" unicode="&#x418;" 
d="M1131 0h-191l5 1238h-5l-624 -1238h-187v1591h191l-4 -1229l624 1229h191v-1591z" />
    <glyph glyph-name="IIshortcyrillic" unicode="&#x419;" 
d="M1131 0h-191l5 1238h-5l-624 -1238h-187v1591h191l-4 -1229l624 1229h191v-1591zM459 2032q9 -67 54 -115q48 -51 119 -51q68 0 118 51q44 48 52 115h131q-13 -127 -90 -210q-84 -91 -211 -91q-130 0 -214 91q-74 82 -90 210h131z" />
    <glyph glyph-name="KAcyrillic" unicode="&#x41a;" 
d="M161 0v1591h207v-780l592 780h219l-571 -755l651 -836h-259l-632 811v-811h-207z" />
    <glyph glyph-name="ELcyrillic" unicode="&#x41b;" 
d="M1131 0h-206v1432h-319l-9 -265q-23 -660 -87 -878q-95 -321 -373 -321q-66 0 -135 16v177q50 -19 130 -19q139 0 198 274q42 193 59 636l20 539h722v-1591z" />
    <glyph glyph-name="EMcyrillic" unicode="&#x41c;" 
d="M225 0h-168v1591h209l367 -1048l367 1048h203v-1591h-191l5 1154h-5l-45 -140l-246 -696h-207l-249 696l-40 140h-6l6 -140v-1014z" />
    <glyph glyph-name="ENcyrillic" unicode="&#x41d;" 
d="M129 0v1591h207v-685h589v685h206v-1591h-206v748h-589v-748h-207z" />
    <glyph glyph-name="Ocyrillic" unicode="&#x41e;" 
d="M630 -48q-305 0 -447 287q-110 218 -110 557q0 337 110 556q143 287 447 287t447 -287q109 -218 109 -556q0 -340 -108 -558q-144 -286 -448 -286zM630 112q200 0 289 261q60 177 60 423t-60 422q-89 262 -289 262t-290 -262q-60 -176 -60 -422t60 -423q90 -261 290 -261
z" />
    <glyph glyph-name="PEcyrillic" unicode="&#x41f;" 
d="M129 0v1591h1002v-1591h-206v1432h-589v-1432h-207z" />
    <glyph glyph-name="ERcyrillic" unicode="&#x420;" 
d="M388 581v-581h-208v1591h396q244 0 356 -54q231 -114 231 -397q0 -157 -81.5 -287.5t-222 -201t-387.5 -70.5h-84zM388 739h89q192 0 285 51q194 102 194 344q0 180 -141 249q-99 48 -303 48h-124v-692z" />
    <glyph glyph-name="EScyrillic" unicode="&#x421;" 
d="M1116 18q-179 -66 -320 -66q-326 0 -512 264q-163 234 -163 580q0 345 164 579q185 265 511 265q141 0 320 -67v-189q-165 96 -328 96q-223 0 -350 -242q-103 -197 -103 -442t104 -442q126 -243 349 -243q162 0 328 95v-188z" />
    <glyph glyph-name="TEcyrillic" unicode="&#x422;" 
d="M526 0v1416h-477v175h1162v-175h-478v-1416h-207z" />
    <glyph glyph-name="Ucyrillic" unicode="&#x423;" 
d="M568 497l-527 1094h231l401 -836l342 836h212l-479 -1145q-93 -219 -180 -316q-146 -162 -379 -162q-67 0 -136 16v177q63 -19 131 -19q238 0 364 306z" />
    <glyph glyph-name="EFcyrillic" unicode="&#x424;" 
d="M1189 796q0 -280 -112 -467q-123 -202 -349 -237v-92h-197v92q-225 35 -348 237q-113 187 -113 467q0 275 114 465q125 207 347 240v90h197v-90q223 -33 348 -240q113 -190 113 -465zM985 794q0 178 -67 331q-73 167 -190 209v-1070q125 47 194 201q63 140 63 329z
M531 264v1070q-117 -42 -190 -209q-67 -153 -67 -331q0 -189 63 -329q69 -154 194 -201z" />
    <glyph glyph-name="KHAcyrillic" unicode="&#x425;" 
d="M265 0h-216l466 832l-421 759h235l305 -548l311 548h217l-421 -744l470 -847h-239l-350 635z" />
    <glyph glyph-name="TSEcyrillic" unicode="&#x426;" 
d="M1245 -445h-197v445h-937v1591h207v-1433h537v1433h206v-1433h184v-603z" />
    <glyph glyph-name="CHEcyrillic" unicode="&#x427;" 
d="M925 808q-199 -232 -425 -232q-186 0 -287 158q-84 133 -84 328v529h207v-503q0 -123 42 -212q56 -117 168 -117q104 0 219 98q93 80 160 193v541h206v-1591h-206v808z" />
    <glyph glyph-name="SHAcyrillic" unicode="&#x428;" 
d="M60 0v1591h191v-1433h285v1433h190v-1433h284v1433h191v-1591h-1141z" />
    <glyph glyph-name="SHCHAcyrillic" unicode="&#x429;" 
d="M1276 -445h-197v445h-1019v1591h191v-1433h275v1433h190v-1433h274v1433h190v-1433h96v-603z" />
    <glyph glyph-name="Hardsigncyrillic" unicode="&#x42a;" 
d="M1163 451q0 -283 -231 -396q-112 -55 -356 -55h-283v1432h-293v159h500v-592q285 -5 460 -128q203 -144 203 -420zM500 840v-682h22q260 0 347 77t87 220q0 106 -50 197q-58 110 -172 153q-87 34 -234 35z" />
    <glyph glyph-name="YERIcyrillic" unicode="&#x42b;" 
d="M867 439q0 -439 -555 -439h-238v1591h203v-595q237 0 408 -150q182 -160 182 -407zM277 838v-679q386 12 386 296q0 173 -106 273q-103 97 -280 110zM988 1591h198v-1591h-198v1591z" />
    <glyph glyph-name="Softsigncyrillic" unicode="&#x42c;" 
d="M1163 451q0 -283 -231 -396q-112 -55 -356 -55h-396v1591h208v-605h94q297 0 472 -113q209 -137 209 -422zM487 829h-99v-671h134q260 0 347 77t87 210q0 384 -469 384z" />
    <glyph glyph-name="Ereversedcyrillic" unicode="&#x42d;" 
d="M1139 796q0 -229 -74 -417q-87 -219 -257 -327q-157 -100 -343 -100q-142 0 -320 66v188q166 -95 328 -95q210 0 338 222q104 182 114 415h-589v158h585q-23 217 -126 378q-126 196 -322 196q-163 0 -328 -96v189q178 67 320 67q188 0 345 -102q169 -110 255 -327
q74 -188 74 -415z" />
    <glyph glyph-name="IUcyrillic" unicode="&#x42e;" 
d="M794 -48q-202 0 -302 218q-97 213 -103 578h-104v-748h-197v1591h197v-685h105q13 320 102 515q100 218 302 218q203 0 302 -218q104 -228 104 -625q0 -398 -104 -626q-99 -218 -302 -218zM794 112q91 0 145 160q59 169 59 524q0 354 -59 525q-54 159 -145 159
q-92 0 -146 -159q-58 -171 -58 -525q0 -355 58 -524q54 -160 146 -160z" />
    <glyph glyph-name="IAcyrillic" unicode="&#x42f;" 
d="M669 635l-397 -635h-246l433 698q-138 75 -222 210q-88 142 -88 306q0 110 59 199.5t160.5 133.5t313.5 44h425v-1591h-207v635h-231zM900 795v636h-155q-221 0 -309 -71t-88 -193q0 -232 257 -372h295z" />
    <glyph glyph-name="acyrillic" unicode="&#x430;" 
d="M911 257q-73 -119 -184 -199q-126 -90 -252 -90q-186 0 -287 165q-85 139 -85 336q0 288 152 483q164 210 441 210q38 0 214 -17h191v-809q0 -207 43 -336h-199q-20 88 -34 257zM911 484v491q-102 27 -190 27q-199 0 -312 -159q-99 -142 -99 -349q0 -124 43 -219
q56 -124 167 -124q109 0 230 120q92 91 161 213z" />
    <glyph glyph-name="becyrillic" unicode="&#x431;" 
d="M1166 553q0 -247 -140 -411q-147 -174 -390 -174q-288 0 -424 230q-107 183 -107 488q0 277 54 507q83 346 525 375q196 12 223 16q130 19 206 70v-193q-91 -43 -212 -57l-210 -16q-222 -18 -315 -130t-119 -399h7q133 277 403 277q220 0 359.5 -164.5t139.5 -418.5z
M959 553q0 171 -73 287q-87 137 -250 137q-164 0 -251 -137q-73 -116 -73 -287q0 -173 73 -288q87 -138 251 -138q163 0 250 138q73 115 73 288z" />
    <glyph glyph-name="vecyrillic" unicode="&#x432;" 
d="M178 0v1145h474q201 0 270 -30q136 -61 136 -227q0 -180 -193 -283q104 -32 168.5 -115t64.5 -195q0 -79 -42.5 -149.5t-113.5 -107.5q-73 -38 -236 -38h-528zM891 332q0 193 -280 193h-248v-372h317q88 0 146 44q65 49 65 135zM856 865q0 79 -62 107q-45 20 -151 20
h-280v-324h328q165 62 165 197z" />
    <glyph glyph-name="gecyrillic" unicode="&#x433;" 
d="M512 0h-207v1145h843v-159h-636v-986z" />
    <glyph glyph-name="decyrillic" unicode="&#x434;" 
d="M1213 -342h-187v342h-794v-342h-187v500q166 48 239 277q50 158 50 372v338h716v-987h163v-500zM859 158v828h-339v-243q0 -185 -38 -338q-45 -180 -129 -247h506z" />
    <glyph glyph-name="iecyrillic" unicode="&#x435;" 
d="M1112 76q-229 -109 -433 -109q-243 0 -399 185q-147 173 -147 418q0 247 148 423q156 184 396 184t356 -185q95 -153 95 -410v-41h-790q0 -173 96 -290q102 -124 269 -124q185 0 409 123v-174zM346 684h575v28q0 129 -62 212q-68 94 -194 94q-133 0 -221 -104
q-74 -90 -98 -230z" />
    <glyph glyph-name="zhecyrillic" unicode="&#x436;" 
d="M1262 0h-239l-290 596v-596h-206v596l-290 -596h-239l310 620l-292 525h210l301 -549v549h206v-549l302 549h209l-291 -525z" />
    <glyph glyph-name="zecyrillic" unicode="&#x437;" 
d="M1098 346q0 -177 -154 -284q-137 -96 -325 -96q-214 0 -446 91v202q207 -135 440 -135q107 0 188 56q89 63 89 156q0 124 -97 172q-69 33 -204 33h-142v142h170q92 0 150 44q67 50 67 145q0 146 -223 146q-203 0 -408 -140v193q213 106 411 106q169 0 283 -61
q144 -77 144 -231q0 -165 -158 -258q215 -81 215 -281z" />
    <glyph glyph-name="iicyrillic" unicode="&#x438;" 
d="M917 874l-567 -874h-191v1145h191v-703l-8 -159l569 862h190v-1145h-190z" />
    <glyph glyph-name="iishortcyrillic" unicode="&#x439;" 
d="M459 1591q9 -67 54 -114q48 -52 119 -52q68 0 118 52q44 47 52 114h131q-13 -127 -90 -210q-84 -91 -211 -91q-130 0 -214 91q-74 82 -90 210h131zM917 874l-567 -874h-191v1145h191v-703l-8 -159l569 862h190v-1145h-190z" />
    <glyph glyph-name="kacyrillic" unicode="&#x43a;" 
d="M210 0v1145h191v-540l551 540h254l-550 -540l564 -605h-262l-557 605v-605h-191z" />
    <glyph glyph-name="elcyrillic" unicode="&#x43b;" 
d="M1076 0h-191v986h-345l-3 -124q-11 -474 -54 -618q-81 -276 -351 -276q-57 0 -126 16v173q50 -20 125 -20q136 0 181 192q24 108 33 419l10 397h721v-1145z" />
    <glyph glyph-name="emcyrillic" unicode="&#x43c;" 
d="M225 0h-168v1145h209l367 -817l367 817h203v-1145h-191l5 840h-5l-45 -140l-246 -542h-199l-249 542l-48 140h-6l6 -140v-700z" />
    <glyph glyph-name="encyrillic" unicode="&#x43d;" 
d="M911 525h-561v-525h-191v1145h191v-461h561v461h190v-1145h-190v525z" />
    <glyph glyph-name="ocyrillic" unicode="&#x43e;" 
d="M631 -32q-253 0 -402 180q-140 168 -140 425q0 258 141 425q148 179 401 179q251 0 401 -179q139 -168 139 -425q0 -256 -139 -425q-150 -180 -401 -180zM631 127q172 0 260 144q73 119 73 302t-74 302q-88 143 -259 143q-173 0 -261 -142q-74 -119 -74 -303
q0 -183 74 -302q88 -144 261 -144z" />
    <glyph glyph-name="pecyrillic" unicode="&#x43f;" 
d="M911 986h-561v-986h-191v1145h942v-1145h-190v986z" />
    <glyph glyph-name="ercyrillic" unicode="&#x440;" 
d="M1143 677q0 -284 -150 -479q-166 -214 -444 -214q-38 0 -214 16v-445h-190v1590h190v-257q74 119 184 199q125 90 251 90q187 0 288 -165q85 -138 85 -335zM936 651q0 125 -43 220q-57 124 -168 124q-108 0 -229 -120q-91 -91 -161 -214v-491q104 -26 191 -26
q198 0 311 160q99 141 99 347z" />
    <glyph glyph-name="escyrillic" unicode="&#x441;" 
d="M1123 33q-192 -65 -365 -65q-262 0 -428 175q-162 171 -162 429q0 252 163 427q166 178 417 178q177 0 375 -67v-183q-200 91 -358 91q-181 0 -289 -133q-101 -123 -101 -306q0 -186 107 -307q111 -128 294 -128q132 0 347 72v-183z" />
    <glyph glyph-name="tecyrillic" unicode="&#x442;" 
d="M526 0v986h-436v159h1080v-159h-437v-986h-207z" />
    <glyph glyph-name="ucyrillic" unicode="&#x443;" 
d="M580 46l-529 1099h210l422 -859l353 859h191l-465 -1114q-103 -245 -192 -346q-145 -163 -381 -163q-87 0 -156 16v168q79 -25 151 -25q141 0 235 91q73 70 138 220z" />
    <glyph glyph-name="efcyrillic" unicode="&#x444;" 
d="M722 1013v-881q139 26 211 162q62 116 62 279t-62 278q-73 136 -211 162zM537 1012q-138 -26 -210 -161q-61 -115 -61 -278t61 -279q72 -135 210 -161v879zM537 -29q-223 24 -354 198q-125 165 -125 404t125 403q131 174 354 198v481h185v-481q223 -24 356 -198
q124 -164 124 -403t-124 -404q-133 -174 -356 -198v-416h-185v416z" />
    <glyph glyph-name="khacyrillic" unicode="&#x445;" 
d="M278 0h-221l451 600l-421 545h244l299 -384l290 384h216l-398 -527l473 -618h-245l-349 456z" />
    <glyph glyph-name="tsecyrillic" unicode="&#x446;" 
d="M149 0v1145h190v-987h521v987h191v-987h184v-500h-187v342h-899z" />
    <glyph glyph-name="checyrillic" unicode="&#x447;" 
d="M900 534q-204 -161 -379 -161q-189 0 -282 129q-80 111 -80 300v343h191v-318q0 -271 200 -271q179 0 350 163v426h191v-1145h-191v534z" />
    <glyph glyph-name="shacyrillic" unicode="&#x448;" 
d="M60 0v1145h191v-987h285v987h190v-987h284v987h191v-1145h-1141z" />
    <glyph glyph-name="shchacyrillic" unicode="&#x449;" 
d="M1255 158v-500h-187v342h-1008v1145h191v-987h275v987h190v-987h274v987h190v-987h75z" />
    <glyph glyph-name="hardsigncyrillic" unicode="&#x44a;" 
d="M1145 336q0 -211 -172 -295q-83 -41 -261 -41h-394v986h-310v159h500v-393h128q220 0 357 -99q152 -110 152 -317zM939 341q0 253 -315 253h-116v-436h142q144 0 208 33q81 42 81 150z" />
    <glyph glyph-name="yericyrillic" unicode="&#x44b;" 
d="M987 1145h191v-1145h-191v1145zM840 339q0 -211 -177 -297q-85 -42 -265 -42h-316v1145h190v-392h50q225 0 362 -95q156 -108 156 -319zM633 334q0 261 -307 261h-54v-437h80q141 0 204 33q77 40 77 143z" />
    <glyph glyph-name="softsigncyrillic" unicode="&#x44c;" 
d="M1115 336q0 -211 -173 -295q-83 -41 -261 -41h-478v1145h190v-393h212q220 0 357 -99q153 -110 153 -317zM908 341q0 253 -314 253h-201v-436h226q144 0 208 33q81 42 81 150z" />
    <glyph glyph-name="ereversedcyrillic" unicode="&#x44d;" 
d="M884 525h-558v159h551q-32 153 -128 242q-103 92 -254 92q-158 0 -358 -91v183q198 67 376 67q250 0 416 -178q163 -175 163 -427q0 -262 -166 -433t-424 -171q-173 0 -365 65v183q215 -72 347 -72q170 0 278 107q102 103 122 274z" />
    <glyph glyph-name="iucyrillic" unicode="&#x44e;" 
d="M775 -32q-200 0 -308 162q-105 155 -115 395h-110v-525h-180v1145h180v-461h114q20 199 111 332q108 161 308 161q199 0 308 -161q116 -171 116 -443t-116 -443q-109 -162 -308 -162zM775 127q108 0 164 109q61 119 61 337t-61 337q-56 108 -164 108t-165 -108
q-60 -119 -60 -337t60 -337q57 -109 165 -109z" />
    <glyph glyph-name="iacyrillic" unicode="&#x44f;" 
d="M681 454l-342 -454h-251l386 487q-125 47 -201 147q-81 106 -81 239q0 142 108 213q92 59 239 59h562v-1145h-190v454h-230zM911 612v375h-277q-235 0 -235 -148q0 -139 155 -227h357z" />
    <glyph glyph-name="uni0450" unicode="&#x450;" 
d="M1112 76q-229 -109 -433 -109q-243 0 -399 185q-147 173 -147 418q0 247 148 423q156 184 396 184t356 -185q95 -153 95 -410v-41h-790q0 -173 96 -290q102 -124 269 -124q185 0 409 123v-174zM346 684h575v28q0 129 -62 212q-68 94 -194 94q-133 0 -221 -104
q-74 -90 -98 -230zM893 1282h-174l-351 334h222z" />
    <glyph glyph-name="iocyrillic" unicode="&#x451;" 
d="M462 1321q-53 0 -90 37t-37 90q0 52 37.5 89.5t89.5 37.5q53 0 90.5 -37.5t37.5 -89.5q0 -53 -37 -90t-91 -37zM908 1321q-53 0 -90.5 37t-37.5 90q0 52 38 89.5t90 37.5q53 0 90.5 -37.5t37.5 -89.5t-37.5 -89.5t-90.5 -37.5zM1112 76q-229 -109 -433 -109
q-243 0 -399 185q-147 173 -147 418q0 247 148 423q156 184 396 184t356 -185q95 -153 95 -410v-41h-790q0 -173 96 -290q102 -124 269 -124q185 0 409 123v-174zM346 684h575v28q0 129 -62 212q-68 94 -194 94q-133 0 -221 -104q-74 -90 -98 -230z" />
    <glyph glyph-name="djecyrillic" unicode="&#x452;" 
d="M380 -147q104 -26 191 -26q198 0 311 160q99 141 99 347q0 125 -43 220q-57 124 -168 124q-108 0 -229 -120q-91 -90 -161 -213v-345h-190v986h-180v159h180v510h190v-510h627v-159h-627v-415q74 119 184 199q125 90 251 90q187 0 288 -165q85 -138 85 -335
q0 -288 -152 -483q-166 -210 -442 -210q-38 0 -214 16v170z" />
    <glyph glyph-name="gjecyrillic" unicode="&#x453;" 
d="M512 0h-207v1145h843v-160h-636v-985zM451 1321l304 334h221l-351 -334h-174z" />
    <glyph glyph-name="ecyrillic" unicode="&#x454;" 
d="M1123 33q-192 -65 -365 -65q-258 0 -424 171t-166 433q0 252 163 427q166 178 417 178q177 0 375 -67v-183q-200 91 -358 91q-151 0 -253 -92q-97 -89 -129 -242h551v-159h-558q20 -171 122 -274q108 -107 278 -107q132 0 347 72v-183z" />
    <glyph glyph-name="dzecyrillic" unicode="&#x455;" 
d="M172 60v203q208 -136 461 -136q271 0 271 163q0 63 -61 105q-30 20 -116 55l-198 79q-163 66 -222 112q-103 81 -103 212q0 178 152 260q118 64 312 64q183 0 347 -53v-173q-189 67 -355 67q-92 0 -162 -28q-95 -40 -95 -120q0 -69 95 -121q34 -19 155 -63l129 -47
q151 -56 221 -114q100 -85 100 -216q0 -185 -156 -272q-123 -69 -324 -69q-219 0 -451 92z" />
    <glyph glyph-name="icyrillic" unicode="&#x456;" 
d="M480 0v986h-318v159h509v-986h319v-159h-510zM448 1559q0 53 37 90.5t90 37.5q54 0 91 -37.5t37 -90.5t-37 -90.5t-91 -37.5q-52 0 -89.5 37.5t-37.5 90.5z" />
    <glyph glyph-name="yicyrillic" unicode="&#x457;" 
d="M479 0v986h-318v159h509v-986h318v-159h-509zM352 1321q-54 0 -90.5 37t-36.5 90q0 52 37 89.5t90 37.5q52 0 89.5 -37.5t37.5 -89.5q0 -53 -37 -90t-90 -37zM798 1321q-54 0 -91 37t-37 90q0 52 37.5 89.5t90.5 37.5q52 0 89.5 -37.5t37.5 -89.5t-37.5 -89.5
t-89.5 -37.5z" />
    <glyph glyph-name="jecyrillic" unicode="&#x458;" 
d="M176 -449v178q160 -47 270 -47q197 0 267 146q37 79 37 275v883h-486v159h676v-1007q0 -291 -68 -405q-74 -121 -183 -169q-94 -42 -250 -42q-122 0 -263 29zM718 1559q0 53 37 90.5t90 37.5t90 -37.5t37 -90.5t-37 -90.5t-90 -37.5t-90 37.5t-37 90.5z" />
    <glyph glyph-name="ljecyrillic" unicode="&#x459;" 
d="M1206 314q0 -197 -160 -276q-78 -38 -251 -38h-239v986h-183v-226q0 -413 -52 -567q-77 -225 -314 -225v169q107 0 149 141q34 115 34 367v500h550v-439q299 -7 410 -191q56 -93 56 -201zM1005 324q0 67 -28 118q-56 105 -237 105v-389q265 0 265 166z" />
    <glyph glyph-name="njecyrillic" unicode="&#x45a;" 
d="M1202 314q0 -197 -160 -276q-78 -38 -251 -38h-239v548h-300v-548h-184v1145h184v-439h300v439h184v-439q299 -7 410 -191q56 -93 56 -201zM1001 324q0 67 -28 118q-56 105 -237 105v-389q265 0 265 166z" />
    <glyph glyph-name="tshecyrillic" unicode="&#x45b;" 
d="M1007 1145v-159h-627v-409q75 120 181 196q122 86 249 86q131 0 218.5 -78.5t106.5 -206.5q9 -61 9 -252v-322h-190v346q0 165 -16 217t-56 86q-43 35 -96 35q-114 0 -239 -116q-102 -94 -167 -218v-350h-190v986h-180v159h180v510h190v-510h627z" />
    <glyph glyph-name="kjecyrillic" unicode="&#x45c;" 
d="M210 0v1145h191v-540l551 540h254l-550 -540l564 -605h-262l-557 605v-605h-191zM410 1321l304 334h221l-351 -334h-174z" />
    <glyph glyph-name="uni045D" unicode="&#x45d;" 
d="M917 874l-567 -874h-191v1145h191v-703l-8 -159l569 862h190v-1145h-190zM892 1250h-174l-351 334h222z" />
    <glyph glyph-name="ushortcyrillic" unicode="&#x45e;" 
d="M510 1591q8 -67 53 -114q48 -52 119 -52q69 0 118 52q44 47 52 114h131q-13 -127 -90 -210q-84 -91 -211 -91q-129 0 -213 91q-75 82 -91 210h132zM580 46l-529 1099h210l422 -859l353 859h191l-465 -1114q-103 -245 -192 -346q-145 -163 -381 -163q-87 0 -156 16v168
q79 -25 151 -25q141 0 235 91q73 70 138 220z" />
    <glyph glyph-name="dzhecyrillic" unicode="&#x45f;" 
d="M723 0v-342h-187v342h-377v1145h191v-987h561v987h190v-1145h-378z" />
    <glyph glyph-name="afii10050" unicode="&#x490;" 
d="M1165 1431h-668v-1431h-207v1591h678v420h197v-580z" />
    <glyph glyph-name="afii10098" unicode="&#x491;" 
d="M1148 986h-636v-986h-207v1145h657v358h186v-517z" />
    <glyph glyph-name="palochkacyrillic" unicode="&#x4c0;" 
d="M176 0v159h350v1272h-350v160h907v-160h-350v-1272h350v-159h-907z" />
    <glyph glyph-name="zhebrevecyrillic" unicode="&#x4c2;" 
d="M1262 0h-239l-290 596v-596h-206v596l-290 -596h-239l310 620l-292 525h210l301 -549v549h206v-549l302 549h209l-291 -525zM458 1584q10 -79 60 -139t113 -60q62 0 111.5 61t58.5 138h131q-12 -114 -57.5 -184t-110.5 -110t-133 -40q-69 0 -134 40t-111 110t-59 184h131
z" />
    <glyph glyph-name="Abrevecyrillic" unicode="&#x4d0;" 
d="M233 0h-199l490 1591h210l493 -1591h-213l-110 350h-564zM390 509h464l-237 764l-40 -160zM459 2030q10 -79 60 -139t113 -60q62 0 111.5 61t58.5 138h131q-12 -114 -57.5 -184t-110.5 -110t-133 -40q-69 0 -134 40t-111 110t-59 184h131z" />
    <glyph glyph-name="abrevecyrillic" unicode="&#x4d1;" 
d="M911 257q-73 -119 -184 -199q-126 -90 -252 -90q-186 0 -287 165q-85 139 -85 336q0 288 152 483q164 210 441 210q38 0 214 -17h191v-809q0 -207 43 -336h-199q-20 88 -34 257zM911 484v491q-102 27 -190 27q-199 0 -312 -159q-99 -142 -99 -349q0 -124 43 -219
q56 -124 167 -124q109 0 230 120q92 91 161 213zM452 1601q9 -79 59.5 -139t112.5 -60q63 0 112 61t59 138h131q-12 -114 -58 -184.5t-110.5 -110.5t-133.5 -40q-68 0 -133 40t-111 110.5t-59 184.5h131z" />
    <glyph glyph-name="Adieresiscyrillic" unicode="&#x4d2;" 
d="M233 0h-199l490 1591h210l493 -1591h-213l-110 350h-564zM390 509h464l-237 764l-40 -160zM408 1696q-52 0 -89.5 37t-37.5 90t38 90t89 37t89 -37t38 -90t-37.5 -90t-89.5 -37zM854 1696q-52 0 -90 37t-38 90t38.5 90t89.5 37t89 -37t38 -90t-38 -90t-89 -37z" />
    <glyph glyph-name="adieresiscyrillic" unicode="&#x4d3;" 
d="M911 257q-73 -119 -184 -199q-126 -90 -252 -90q-186 0 -287 165q-85 139 -85 336q0 288 152 483q164 210 441 210q38 0 214 -17h191v-809q0 -207 43 -336h-199q-20 88 -34 257zM911 484v491q-102 27 -190 27q-199 0 -312 -159q-99 -142 -99 -349q0 -124 43 -219
q56 -124 167 -124q109 0 230 120q92 91 161 213zM401 1266q-52 0 -89.5 37t-37.5 91q0 53 38 90t89 37t89 -37t38 -90q0 -54 -37.5 -91t-89.5 -37zM847 1266q-52 0 -90 37t-38 91q0 53 38.5 90t89.5 37t89 -37t38 -90q0 -54 -38 -91t-89 -37z" />
    <glyph glyph-name="Aiecyrillic" unicode="&#x4d4;" 
d="M654 0v381h-322l-156 -381h-174l652 1591h557v-160h-366v-548h351v-159h-351v-549h366v-175h-557zM391 525h263v638z" />
    <glyph glyph-name="aiecyrillic" unicode="&#x4d5;" 
d="M607 232q-53 -134 -123 -199t-135 -65q-115 0 -199 148t-84 379q0 205 56.5 358.5t151.5 238.5t204 85q36 0 76.5 -7.5t72.5 -19.5t82 -46q74 56 115 64.5t73 8.5q130 0 214.5 -116.5t84.5 -460.5v-51h-415v-86q0 -151 23 -213t66.5 -92.5t96.5 -30.5q104 0 229 81v-174
q-145 -66 -261 -66q-76 0 -139.5 26.5t-110 78.5t-78.5 159zM591 482v501q-25 18 -48.5 26.5t-46.5 8.5q-120 0 -180 -169t-60 -374q0 -121 34 -208q34 -88 86 -84q108 7 215 299zM781 684h223v33q0 180 -28 240.5t-81 60.5q-56 0 -85 -75.5t-29 -225.5v-33z" />
    <glyph glyph-name="iebrevecyrillic" unicode="&#x4d7;" 
d="M1112 76q-229 -109 -433 -109q-243 0 -399 185q-147 173 -147 418q0 247 148 423q156 184 396 184t356 -185q95 -153 95 -410v-41h-790q0 -173 96 -290q102 -124 269 -124q185 0 409 123v-174zM346 684h575v28q0 129 -62 212q-68 94 -194 94q-133 0 -221 -104
q-74 -90 -98 -230zM459 1616q10 -79 60 -139t113 -60q62 0 111.5 61t58.5 138h131q-12 -114 -57.5 -184t-110.5 -110t-133 -40q-69 0 -134 40t-111 110t-59 184h131z" />
    <glyph glyph-name="zhedieresiscyrillic" unicode="&#x4dd;" 
d="M1262 0h-239l-290 596v-596h-206v596l-290 -596h-239l310 620l-292 525h210l301 -549v549h206v-549l302 549h209l-291 -525zM407 1250q-52 0 -89.5 37t-37.5 90t38 90t89 37t89 -37t38 -90t-37.5 -90t-89.5 -37zM853 1250q-52 0 -90 37t-38 90t38.5 90t89.5 37t89 -37
t38 -90t-38 -90t-89 -37z" />
    <glyph glyph-name="zedieresiscyrillic" unicode="&#x4df;" 
d="M1098 346q0 -177 -154 -284q-137 -96 -325 -96q-214 0 -446 91v202q207 -135 440 -135q107 0 188 56q89 63 89 156q0 124 -97 172q-69 33 -204 33h-142v142h170q92 0 150 44q67 50 67 145q0 146 -223 146q-203 0 -408 -140v193q213 106 411 106q169 0 283 -61
q144 -77 144 -231q0 -165 -158 -258q215 -81 215 -281zM413 1282q-52 0 -89.5 37t-37.5 90t38 90t89 37q52 0 89.5 -37t37.5 -90t-37 -90t-90 -37zM859 1282q-52 0 -90 37t-38 90t38.5 90t89.5 37q52 0 89.5 -37t37.5 -90t-37.5 -90t-89.5 -37z" />
    <glyph glyph-name="imacroncyrillic" unicode="&#x4e3;" 
d="M917 874l-567 -874h-191v1145h191v-703l-8 -159l569 862h190v-1145h-190zM344 1250v127h573v-127h-573z" />
    <glyph glyph-name="idieresiscyrillic" unicode="&#x4e5;" 
d="M917 874l-567 -874h-191v1145h191v-703l-8 -159l569 862h190v-1145h-190zM407 1250q-52 0 -89.5 37t-37.5 90t38 90t89 37t89 -37t38 -90t-37.5 -90t-89.5 -37zM853 1250q-52 0 -90 37t-38 90t38.5 90t89.5 37t89 -37t38 -90t-38 -90t-89 -37z" />
    <glyph glyph-name="Odieresiscyrillic" unicode="&#x4e6;" 
d="M630 -48q-305 0 -447 287q-110 218 -110 557q0 337 110 556q143 287 447 287t447 -287q109 -218 109 -556q0 -340 -108 -558q-144 -286 -448 -286zM630 112q200 0 289 261q60 177 60 423t-60 422q-89 262 -289 262t-290 -262q-60 -176 -60 -422t60 -423q90 -261 290 -261
zM407 1743q-52 0 -89.5 37t-37.5 90q0 54 38 90.5t89 36.5t89 -36.5t38 -90.5q0 -53 -37.5 -90t-89.5 -37zM853 1743q-52 0 -90 37t-38 90q0 54 38.5 90.5t89.5 36.5t89 -36.5t38 -90.5q0 -53 -38 -90t-89 -37z" />
    <glyph glyph-name="odieresiscyrillic" unicode="&#x4e7;" 
d="M631 -32q-253 0 -402 180q-140 168 -140 425q0 258 141 425q148 179 401 179q251 0 401 -179q139 -168 139 -425q0 -256 -139 -425q-150 -180 -401 -180zM631 127q172 0 260 144q73 119 73 302t-74 302q-88 143 -259 143q-173 0 -261 -142q-74 -119 -74 -303
q0 -183 74 -302q88 -144 261 -144zM407 1282q-52 0 -89.5 37t-37.5 90t38 90t89 37t89 -37t38 -90t-37.5 -90t-89.5 -37zM853 1282q-52 0 -90 37t-38 90t38.5 90t89.5 37t89 -37t38 -90t-38 -90t-89 -37z" />
    <glyph glyph-name="uni04EC" unicode="&#x4ec;" 
d="M1139 796q0 -229 -74 -417q-87 -219 -257 -327q-157 -100 -343 -100q-142 0 -320 66v188q166 -95 328 -95q210 0 338 222q104 182 114 415h-589v158h585q-23 217 -126 378q-126 196 -322 196q-163 0 -328 -96v189q178 67 320 67q188 0 345 -102q169 -110 255 -327
q74 -188 74 -415zM419 1744q-52 0 -89.5 37t-37.5 90q0 54 38 90.5t89 36.5q52 0 90 -36.5t38 -90.5q0 -53 -37.5 -90t-90.5 -37zM865 1744q-52 0 -90 37t-38 90q0 54 38.5 90.5t89.5 36.5q52 0 90 -36.5t38 -90.5q0 -53 -38 -90t-90 -37z" />
    <glyph glyph-name="uni04ED" unicode="&#x4ed;" 
d="M884 525h-558v159h551q-32 153 -128 242q-103 92 -254 92q-158 0 -358 -91v183q198 67 376 67q250 0 416 -178q163 -175 163 -427q0 -262 -166 -433t-424 -171q-173 0 -365 65v183q215 -72 347 -72q170 0 278 107q102 103 122 274zM392 1282q-53 0 -90 37t-37 90t37.5 90
t89.5 37q51 0 89 -37t38 -90t-37.5 -90t-89.5 -37zM838 1282q-53 0 -90.5 37t-37.5 90t38 90t90 37q51 0 89 -37t38 -90t-38 -90t-89 -37z" />
    <glyph glyph-name="Umacroncyrillic" unicode="&#x4ee;" 
d="M568 497l-527 1094h231l401 -836l342 836h212l-479 -1145q-93 -219 -180 -316q-146 -162 -379 -162q-67 0 -136 16v177q63 -19 131 -19q238 0 364 306zM348 1696v127h573v-127h-573z" />
    <glyph glyph-name="umacroncyrillic" unicode="&#x4ef;" 
d="M580 46l-529 1099h210l422 -859l353 859h191l-465 -1114q-103 -245 -192 -346q-145 -163 -381 -163q-87 0 -156 16v168q79 -25 151 -25q141 0 235 91q73 70 138 220zM344 1250v127h573v-127h-573z" />
    <glyph glyph-name="Udieresiscyrillic" unicode="&#x4f0;" 
d="M568 497l-527 1094h231l401 -836l342 836h212l-479 -1145q-93 -219 -180 -316q-146 -162 -379 -162q-67 0 -136 16v177q63 -19 131 -19q238 0 364 306zM411 1696q-52 0 -89.5 37t-37.5 90t38 90t89 37t89 -37t38 -90t-37.5 -90t-89.5 -37zM857 1696q-52 0 -90 37t-38 90
t38.5 90t89.5 37t89 -37t38 -90t-38 -90t-89 -37z" />
    <glyph glyph-name="udieresiscyrillic" unicode="&#x4f1;" 
d="M580 46l-529 1099h210l422 -859l353 859h191l-465 -1114q-103 -245 -192 -346q-145 -163 -381 -163q-87 0 -156 16v168q79 -25 151 -25q141 0 235 91q73 70 138 220zM407 1250q-52 0 -89.5 37t-37.5 90t38 90t89 37t89 -37t38 -90t-37.5 -90t-89.5 -37zM853 1250
q-52 0 -90 37t-38 90t38.5 90t89.5 37t89 -37t38 -90t-38 -90t-89 -37z" />
    <glyph glyph-name="Uhungarumlautcyrillic" unicode="&#x4f2;" 
d="M568 497l-527 1094h231l401 -836l342 836h212l-479 -1145q-93 -219 -180 -316q-146 -162 -379 -162q-67 0 -136 16v177q63 -19 131 -19q238 0 364 306zM475 1696h-119l145 334h127zM756 1696h-121l148 334h130z" />
    <glyph glyph-name="uhungarumlautcyrillic" unicode="&#x4f3;" 
d="M580 46l-529 1099h210l422 -859l353 859h191l-465 -1114q-103 -245 -192 -346q-145 -163 -381 -163q-87 0 -156 16v168q79 -25 151 -25q141 0 235 91q73 70 138 220zM471 1250h-119l145 334h126zM752 1250h-121l148 334h129z" />
    <glyph glyph-name="chedieresiscyrillic" unicode="&#x4f5;" 
d="M900 534q-204 -161 -379 -161q-189 0 -282 129q-80 111 -80 300v343h191v-318q0 -271 200 -271q179 0 350 163v426h191v-1145h-191v534zM402 1250q-52 0 -89.5 37t-37.5 90t38 90t89 37t89 -37t38 -90t-37.5 -90t-89.5 -37zM848 1250q-52 0 -90 37t-38 90t38.5 90
t89.5 37t89 -37t38 -90t-38 -90t-89 -37z" />
    <glyph glyph-name="yerudieresiscyrillic" unicode="&#x4f9;" 
d="M987 1145h191v-1145h-191v1145zM840 339q0 -211 -177 -297q-85 -42 -265 -42h-316v1145h190v-392h50q225 0 362 -95q156 -108 156 -319zM633 334q0 261 -307 261h-54v-437h80q141 0 204 33q77 40 77 143zM407 1250q-52 0 -89.5 37t-37.5 90t38 90t89 37t89 -37t38 -90
t-37.5 -90t-89.5 -37zM853 1250q-52 0 -90 37t-38 90t38.5 90t89.5 37t89 -37t38 -90t-38 -90t-89 -37z" />
    <glyph glyph-name="kokaithai" unicode="&#xe01;" horiz-adv-x="1248" 
d="M250 0v574q0 33 6 60q18 56 58 91q14 9 38 29q-31 17 -87 44q-52 17 -103 36v76q116 116 262 162q100 32 192 32q305 0 386 -162q36 -73 36 -158v-784h-164v776q0 127 -97 176q-55 28 -157 28q-83 0 -158 -30q-60 -24 -108 -66q35 -13 107 -49q42 -26 71 -49l34 -30
q-18 -7 -55 -26q-35 -23 -60 -50q-35 -37 -35 -134v-546h-166z" />
    <glyph glyph-name="khokhaithai" unicode="&#xe02;" horiz-adv-x="1248" 
d="M454 436q0 50 27 98q35 63 71 127q34 72 34 139q0 116 -70 167q-38 28 -98 28q-45 0 -76 -27q-15 -11 -28 -36q3 0 10 1t11 1q25 0 45 -7q37 -11 69 -41q53 -47 53 -130q0 -94 -61 -143q-57 -47 -129 -47q-137 0 -179 122q-17 49 -17 106q0 65 32 130q46 94 117 136
q77 46 153 46q136 0 218 -66q85 -69 98 -156q4 -27 4 -70v-38q-5 -32 -24 -101q-29 -59 -79 -180q-15 -43 -15 -67v-302h162q22 0 44.5 12.5t29.5 40.5q3 12 4 21v904h166v-920q0 -78 -38 -121q-24 -29 -58.5 -46t-83.5 -17h-500v126h108v310zM310 834q-76 0 -76 -82
q0 -84 80 -84q74 0 74 86q0 80 -78 80z" />
    <glyph glyph-name="khokhuatthai" unicode="&#xe03;" horiz-adv-x="1248" 
d="M618 126h196q12 0 22 10q18 12 18 32v936h164v-958q0 -29 -6 -56q-5 -40 -40 -67q-30 -23 -94 -23h-522v126h98v282q0 35 14 74q40 62 106 169q58 102 58 177q0 114 -60 155q-20 14 -26 11l-90 -66l-92 66q-18 0 -35 -11q-21 -14 -30 -26q-27 -38 -33 -73q18 3 33 3
q120 0 160 -97q15 -37 15 -76q0 -103 -63 -146q-59 -40 -123 -40q-130 0 -159 77q-32 88 -32 162q0 111 52 196q38 60 87 98q62 47 97 47q5 0 9 -2l114 -80l118 80q16 11 70 -27q44 -30 64 -52q70 -82 70 -183q0 -142 -71 -249q-54 -80 -75 -127q-14 -32 -14 -60v-282z
M284 792q-72 0 -72 -80q0 -86 78 -86q74 0 74 90q0 76 -80 76z" />
    <glyph glyph-name="khokhwaithai" unicode="&#xe04;" horiz-adv-x="1248" 
d="M198 312q-25 93 -65 279q-9 62 -9 110q0 86 31 178q41 120 207 192q90 39 236 39q260 0 387 -144q63 -73 63 -194v-772h-164v754q0 144 -132 204q-62 28 -158 28q-115 0 -202 -57q-102 -66 -102 -171q0 -96 13 -167.5t23 -108.5q22 157 105 271q48 66 117 89q32 11 69 11
q68 0 113 -34q75 -59 75 -165q0 -70 -35 -116q-55 -71 -150 -71q-70 0 -117 45q-18 18 -31 34q-40 -109 -57 -214q-8 -47 -21 -142q-4 -34 -4 -98v-92h-166v9v8q1 7 1 11q2 62 -15 198q-4 35 -12 86zM612 742q-74 0 -74 -82q0 -86 80 -86t80 90q0 78 -86 78z" />
    <glyph glyph-name="khokhonthai" unicode="&#xe05;" horiz-adv-x="1248" 
d="M460 500q-32 -95 -40 -180q-3 -27 -4 -100l-4 -220h-160q-1 7 0 30q0 5 1 27t1 37v138q-4 47 -23 114q-12 46 -54 146q-53 130 -53 232q0 109 61 200q49 74 113 120q58 41 132 66l178 -94l176 94q60 -10 117 -48q73 -50 108 -117q31 -61 31 -151v-794h-166v770q0 -7 1 29
q2 68 -23 104q-24 33 -59 56q-19 12 -25 9l-160 -88l-160 94q-25 15 -100 -75q-72 -86 -72 -165q0 -120 35 -185q12 -23 23 -39q10 45 29 96q33 88 74 131q62 67 171 67q73 0 134 -68q34 -38 34 -112q0 -122 -96 -169q-33 -17 -72 -17q-52 0 -92 20q-23 11 -48 38zM594 696
q-32 0 -52 -24.5t-20 -57.5q0 -76 72 -76q74 0 74 74q0 84 -74 84z" />
    <glyph glyph-name="khorakhangthai" unicode="&#xe06;" horiz-adv-x="1248" 
d="M544 390l26 -10q15 -5 58 -24l98 -44q43 -19 141 -86q57 -39 57 -46v924h166v-1104h-180q-64 76 -115 119q-57 47 -168 100q-31 10 -91 33q5 -23 5 -57q0 -33 -8 -69q-23 -100 -122 -125q-37 -9 -79 -9q-91 0 -139 68q-38 55 -38 132q0 125 87 179q46 29 77 30q4 1 17 2
q10 1 16 1q18 0 26 -2v30q0 36 34 76q44 49 130 148q34 41 51 99q15 49 15 115q0 51 -27 87q-36 48 -59 37l-90 -66l-94 66q-35 -10 -60 -35q-26 -28 -38 -67q12 3 29 3q68 0 120 -44q59 -51 59 -143q0 -94 -63 -140q-55 -40 -120 -40q-19 0 -81 13q-89 17 -106 164
q-6 45 -6 103q11 86 53 154q37 60 115 119q55 41 78 25l114 -80l118 80q4 2 11 2q64 0 127 -66q66 -70 66 -156q0 -183 -74 -274q-37 -42 -110 -128q-26 -32 -26 -52v-42zM260 792q-74 0 -74 -80q0 -86 78 -86q74 0 74 84q0 82 -78 82zM276 196q-1 -6 -1 -15q0 -64 65 -63
q38 1 38 54v110q-14 2 -21 2q-67 0 -81 -88z" />
    <glyph glyph-name="ngonguthai" unicode="&#xe07;" horiz-adv-x="1248" 
d="M860 246v478q-11 -6 -31 -4l-25 2q-52 4 -93 37q-67 54 -67 173q0 69 74 137q42 37 120 37q80 0 132 -52q56 -56 56 -140v-914h-166q-110 159 -216 270.5t-173 168.5q-75 64 -159 112q-62 36 -146 63l58 94q56 -12 120 -37q78 -29 175 -93q53 -35 132 -110
q26 -25 113 -116q96 -100 96 -106zM752 908q0 -80 78 -80q80 0 80 80q0 86 -80 86q-78 0 -78 -86z" />
    <glyph glyph-name="chochanthai" unicode="&#xe08;" horiz-adv-x="1248" 
d="M648 466q-15 -39 -71 -64q-39 -17 -89 -17q-72 0 -126 45q-64 53 -64 134q0 102 55 155q58 57 127 57q128 0 205 -99q47 -61 101 -196q21 -57 62 -169l22 436q3 51 -24 121q-29 79 -162 110q-42 9 -94 9q-125 0 -227 -42q-93 -39 -153 -93q-31 -28 -52 -51l28 168
q60 65 174 106q69 26 159 32q38 2 99 2q104 0 208 -39q166 -64 203 -209q13 -56 11 -98l-44 -764h-194q-2 0 -43 143l-18 61q-4 13 -19 56l-38 106q-6 17 -19 56q-6 15 -17 44zM492 654q-80 0 -80 -74q-3 -38 19.5 -62t60.5 -24q78 0 78 80t-78 80z" />
    <glyph glyph-name="chochingthai" unicode="&#xe09;" horiz-adv-x="1248" 
d="M958 380q72 -9 117 -65t45 -123q0 -76 -43 -131q-51 -67 -149 -67q-104 0 -166 82q-31 42 -31 108q0 20 3 40l-60 -36q-76 -46 -129 -104q-38 -41 -59 -78h-164v362q-24 -6 -54 -6q-72 0 -120 58q-45 53 -45 127q0 114 95 165q56 29 103 26l35 -2q82 -5 128 -85
q24 -41 24 -111v-330q75 75 158 118l104 54q52 27 95 58q25 18 25 68v264q0 69 -35 116q-46 60 -149 86q-57 14 -134 14q-133 0 -247 -45q-100 -39 -147 -94q-25 -28 -40 -51v162q69 72 183 111t251 39q119 0 261 -38q167 -43 208 -195q13 -48 13 -99v-340zM296 630
q-33 0 -57.5 -21.5t-24.5 -54.5q0 -94 78 -94q84 0 84 86q0 84 -80 84zM924 274q-33 0 -58.5 -20.5t-25.5 -53.5q0 -96 84 -96t84 86q0 84 -84 84z" />
    <glyph glyph-name="chochangthai" unicode="&#xe0a;" horiz-adv-x="1248" 
d="M814 126q38 0 38 42v712q0 22 -12 44q-20 38 -42 57q-28 25 -54 34q-11 5 -20 7q118 27 195 66q53 27 83 68q26 36 32 66q3 13 4 22h198q-9 -47 -39.5 -95t-85.5 -82q-68 -43 -130 -56l-39 -7l26 -24q30 -27 44 -94q6 -24 6 -60v-720q-4 -21 -31 -68q-34 -38 -109 -38
h-534v126h108v335q0 18 2 29q5 27 68 156q15 30 26 56q18 56 18 98q0 91 -32 132q-38 51 -92 57q-27 4 -46 4q-45 0 -74 -23q-17 -13 -30 -38q11 1 18 1q23 0 40 -5q42 -8 94 -54q38 -34 38 -114q0 -94 -62 -147q-54 -45 -128 -45q-137 0 -176 120q-16 49 -16 106
q0 104 75 205q81 107 223 107q158 0 254 -105q50 -56 61 -126q5 -33 5 -65q0 -41 -13 -97q-3 -12 -67 -163q-13 -32 -18 -69q-2 -16 -2 -26v-329h196zM290 834q-73 0 -76 -78q-4 -88 78 -88q78 0 78 86q0 80 -80 80z" />
    <glyph glyph-name="sosothai" unicode="&#xe0b;" horiz-adv-x="1248" 
d="M812 126q24 0 35 24q3 7 3 18v712q0 35 -8 59q-12 37 -53 73q-13 7 -37 22q77 19 123 38q73 30 108 72q37 46 43 85q1 11 2 15h192q-6 -44 -33 -81q-33 -44 -75 -73q-52 -36 -140 -67q-26 -10 -38 -15l28 -26q13 -12 30 -45q15 -27 20 -76q2 -19 2 -39v-689
q0 -46 -27 -83q-38 -50 -115 -50h-532v126h108v282q0 65 57 145q49 68 76 119q30 58 41 104q4 18 6 52q1 9 1 21q0 47 -19 85q-7 14 -29 36q-26 26 -37 20l-94 -66l-94 66q-34 -2 -62 -36q-24 -29 -34 -68q21 3 39 3q70 0 116 -43q51 -48 51 -138q0 -131 -118 -172
q-30 -11 -61 -11q-48 0 -94 20q-53 24 -69 63q-33 80 -33 153q0 71 21 134q35 102 114 160q90 67 112 51l112 -80l120 80q20 13 87 -38q57 -45 87 -103t30 -121q0 -118 -41 -199q-33 -51 -93 -155q-26 -49 -26 -82v-282h198zM280 792q-74 0 -74 -80q0 -86 78 -86q74 0 74 84
q0 82 -78 82z" />
    <glyph glyph-name="chochoethai" unicode="&#xe0c;" horiz-adv-x="1248" 
d="M1016 0l-45 60q-33 46 -97 100q-20 17 -62 50q3 -12 3 -43t-9 -64q-13 -52 -65 -91q-31 -23 -77 -23q-91 0 -136 79q-28 51 -28 117q0 5 4 46q8 72 63 116q39 31 79 33v392q0 56 -18 102q-32 81 -127 101q-30 7 -67 7q-70 0 -138 -30q-49 -21 -96 -68l44 -22l50 -32
l42 -34q14 -14 44 -40q-24 -6 -42 -22q-21 -20 -35 -42q-17 -30 -25 -72q-2 -15 -2 -31v-205q35 2 66 -14q47 -24 69.5 -69t22.5 -129q-6 -68 -44 -118q-42 -56 -120 -56q-67 0 -113.5 55.5t-46.5 136.5v384q0 36 6 61q7 37 51 90q10 12 29 25q-55 39 -162 84v82l45 45
q98 90 228 129q56 16 123 16q164 0 260 -70q122 -87 122 -242v-438q28 -14 48 -30l52 -42q37 -30 78 -74v894h166v-1104h-140zM664 268q-62 0 -62 -84q0 -88 60 -88q58 0 58 86t-56 86zM344 196q0 80 -64 80q-72 0 -72 -80q0 -86 72 -86q64 0 64 86z" />
    <glyph glyph-name="yoyingthai" unicode="&#xe0d;" horiz-adv-x="1248" 
d="M1014 -220q12 41 14 74l2 60h130q-2 -33 -3 -66q-25 -197 -168 -266q-80 -38 -155 -38q-112 0 -172 83q-32 44 -32 116q0 53 23 99q27 54 74 67q40 11 61 11q47 0 88 -33.5t49 -78.5q7 -40 7 -60q0 -46 -24 -82q83 37 106 114zM906 126q43 0 68 32q20 22 20 80v866h166
v-916q0 -43 -7 -70q-12 -44 -38 -71q-46 -47 -113 -47h-382v776q0 128 -63 169q-59 37 -129 37q-118 0 -188 -61q-20 -18 -34 -33q18 -9 52 -30l40 -28l44 -32q25 -18 42 -42q-24 -12 -43 -27q-27 -23 -44.5 -51.5t-17.5 -67.5v-37v-13q1 -9 1 -14v-162h20q23 0 57 -20
q41 -23 62 -70q23 -54 19 -122q-4 -74 -47 -122q-45 -52 -117 -52q-56 0 -120 64q-40 40 -40 128v384q0 54 24 104l24 36q7 11 36 34l-28 22q-13 9 -40 24l-52 24q-13 5 -40 16v80q72 81 171 134q110 58 223 58q88 0 168 -29q96 -35 133 -100q53 -94 53 -193v-658h120z
M348 192q0 80 -64 80q-72 0 -72 -80q0 -86 72 -86q64 0 64 86zM778 -176q-59 0 -59 -75q0 -81 65 -81q62 0 62 75q0 81 -68 81z" />
    <glyph glyph-name="dochadathai" unicode="&#xe0e;" horiz-adv-x="1248" 
d="M896 -312v1088q0 102 -57 152q-61 54 -197 54q-80 0 -161 -31q-57 -21 -107 -65q29 -11 84 -39q15 -9 30 -17l50 -34q13 -9 35 -27q6 -7 13 -13q-20 -13 -59 -43q-17 -14 -47 -46q-44 -60 -44 -121v-356q0 -76 -46 -130q-53 -62 -142 -62q-124 0 -179 110q-15 30 -15 64
q0 120 71 175q39 30 85 37q21 4 35 4q15 0 25 -2v188q0 29 8 54q21 58 63 93q13 8 37 25l-32 20q-21 11 -56 28l-60 22q-10 3 -29 10l-19 8v74q123 116 276 168q86 30 184 30q259 0 351 -122q69 -93 69 -200v-1262h-194q-29 37 -59 69q-29 29 -62 54q-16 12 -49 33
q-12 -31 -54 -86q-35 -45 -106 -65q-42 -11 -86 -11q-127 0 -181 94q-26 45 -26 99q0 52 29.5 101.5t76.5 67.5q70 28 127 28q58 0 107 -23q8 -4 11 -7q11 20 15 53q1 16 4 49v15q0 5 -1 9l152 -58q-5 -68 -22 -114q-4 -13 -8 -20l36 -20q62 -35 124 -102zM240 110
q80 0 80 86q0 80 -80 80q-78 0 -78 -80q0 -86 78 -86zM446 -218q-68 -16 -68 -77v-9q0 -26 26 -42t60 -16h11q19 3 55 25q11 11 24 41q16 35 8 42q-19 17 -47 30q-19 9 -46 9q-10 0 -23 -3z" />
    <glyph glyph-name="topatakthai" unicode="&#xe0f;" horiz-adv-x="1248" 
d="M518 -230l112 -88l122 160l158 -138v1072q0 134 -96 177q-63 29 -156 29q-132 0 -227 -58q-28 -16 -47 -32l17 -7q65 -26 126 -70l26 -19q26 -19 47 -40q-32 -20 -88 -69q-34 -40 -52 -78q-12 -23 -12 -63v-356q0 -82 -53.5 -137t-134.5 -55q-117 0 -173 100
q-19 34 -19 74q0 118 66 172q37 30 102 40h50v190q0 29 9 57q18 53 56 84q15 10 41 31l-40 24l-52 26l-56 20q-17 6 -50 18v76q157 157 372 189q43 7 90 7q139 0 255 -47q78 -31 123 -112q40 -74 40 -163v-1262h-156l-152 142l-120 -160l-196 146q-20 -37 -48 -65
q-67 -69 -153 -69q-54 0 -135 47q-59 35 -66 130v18q0 99 72 159q53 44 129 44h15q19 -2 55 -10q47 -15 78 -36q13 -10 19 -14l62 108l130 -42zM252 110q80 0 80 86q0 80 -80 80q-78 0 -78 -80q0 -86 78 -86zM228 -216q-54 -10 -54 -68q0 -78 80 -74q33 2 61 42q19 27 25 54
q-47 47 -97 47q-9 0 -15 -1z" />
    <glyph glyph-name="thothanthai" unicode="&#xe10;" horiz-adv-x="1248" 
d="M828 -552l-92 64l-104 -66q-15 0 -26 22q-17 31 -21 35q-14 14 -41 37q-9 -30 -25 -50q-33 -42 -81 -42h-13q-55 0 -101 42q-34 30 -34 96q0 77 62 118q30 20 69 20h13q27 0 54 -12q11 11 11 45q-1 8 -1 12v9q-6 31 -29 65q-16 24 -33 41l116 28q22 -30 33 -51
q21 -43 21 -77q0 -72 -19 -112q-6 -12 -11 -20l21 -19l23 -23q30 -30 44 -48l76 36l92 -64v104q-4 0 -12 -1t-12 -1q-34 0 -68 14q-84 34 -84 131v15q13 136 160 136q89 0 123 -58q27 -46 27 -86v-340h-138zM740 0q-8 0 -62 109q-8 19 -22 51l-32 76l-34 84q-23 -35 -66 -50
q-31 -12 -61 -12q-47 0 -96 32q-53 33 -62 77t-10 61l-1 18q0 126 100 172q35 16 78 16q69 0 121 -34q58 -38 107 -188l44 -134q25 -76 30 -76q14 0 14 68l40 320q7 54 -52 103q-34 27 -113 48q-57 16 -179 36q-109 17 -182 17h-80l-12 92q42 70 134 137q23 16 64 37
q73 37 172 44q28 2 52 2q48 0 129 -15l201 -37q38 0 65 14.5t35 41.5l52 -130q-18 -26 -50 -40q-39 -18 -84 -18q-68 0 -139 18q-40 10 -133 32q-42 9 -103 9q-56 0 -109 -18q-65 -22 -104 -75l59 -5q68 -5 191 -25q83 -15 173 -42q79 -25 125 -67q53 -51 53 -124
q0 -10 -1 -17l-90 -608h-162zM468 524q-78 0 -78 -66q0 -90 78 -90q74 0 74 80q0 76 -74 76zM808 -146q-70 0 -70 -68q-7 -82 76 -82q66 0 66 78q0 72 -72 72zM418 -354q-52 0 -52 -56q0 -68 56 -68q62 0 54 68q0 56 -58 56z" />
    <glyph glyph-name="thonangmonthothai" unicode="&#xe11;" horiz-adv-x="1248" 
d="M372 0v434q0 76 54 146l57 73q69 89 69 175q0 113 -57 154q-22 15 -25 12l-94 -66l-92 66q-9 -1 -31 -9q-21 -13 -32 -27q-21 -28 -32 -53q-3 -7 -5 -13h10q6 0 15 1q29 0 59 -9q40 -12 71 -39q55 -46 55 -127q0 -105 -62 -150q-57 -39 -121 -39q-21 0 -64 10
q-73 17 -112 99q-20 43 -20 120q0 125 52 206q33 50 88 95q19 16 52 33q43 22 55 14l114 -80l118 80q3 2 6 2q37 0 94 -49q52 -45 85 -116q19 -42 19 -99q0 -103 -84 -231q-39 -60 -45 -70q-26 -45 -29 -78q-2 -13 -2 -31v-92l-8 -110l30 110l346 676q23 44 55 66
q36 23 72 23q40 0 67 -16q41 -25 55 -74q5 -20 5 -37v-980h-166v852q0 22 -12 22q-18 0 -18 -18l-414 -856h-178zM206 792q-76 0 -76 -80q0 -86 80 -86q72 0 72 80q0 86 -76 86z" />
    <glyph glyph-name="thophuthaothai" unicode="&#xe12;" horiz-adv-x="1248" 
d="M936 276l36 -34l28 -36v898h166v-1104h-148q-1 1 -43 67q-32 51 -87 100q-10 9 -60 49q-1 -30 -9 -92q-17 -68 -66 -106q-32 -24 -83 -24q-92 0 -139 88q-20 39 -20 98q0 16 1 24q0 96 66 149q45 37 84 37q10 0 16 -2v426q-2 23 -13 69q-16 45 -53 78q-12 10 -16 7
l-134 -88l-138 94q-12 8 -60 -53q-43 -54 -58 -135q-6 -28 -6 -54q0 -120 33 -231q17 -51 46 -153q10 -40 15 -56l60 88q24 35 37 49l19 23q-29 9 -52 28q-25 25 -42 69q-11 29 -11 76q0 100 57 143q47 34 100 34q69 0 110 -52q38 -47 38 -118q0 -83 -37 -145
q-26 -43 -86 -115q-64 -77 -88 -115q-45 -70 -71 -141q-19 -52 -34 -116h-150q-2 9 -2 15q0 15 1 44.5t1 44.5v45q0 98 -18 174q-29 97 -75 293q-7 50 -7 108q0 193 160 325q48 39 110 63l148 -96l148 94q52 -15 91 -44q48 -36 77 -74q53 -70 63 -145q3 -22 3 -53v-444
l50 -38zM456 696q-58 0 -58 -70v-12q0 -76 58 -76q62 -6 62 71v11q0 76 -62 76zM666 278q-60 0 -60 -84q0 -90 58 -90t58 90q0 84 -56 84z" />
    <glyph glyph-name="nonenthai" unicode="&#xe13;" horiz-adv-x="1248" 
d="M882 302q5 5 47 43q14 12 51 39v720h164v-732q44 -22 66 -68q16 -33 22 -86q0 -98 -29 -151q-37 -69 -105 -75q-26 -3 -36 -3q-43 0 -82 24q-42 25 -56 64q-18 48 -18 76q0 15 4 23l-36 -44q-14 -14 -32 -40l-32 -46q-9 -12 -28 -46h-162v776q0 88 -32 136q-29 44 -95 62
q-29 8 -65 8q-130 0 -200 -63q-20 -18 -28 -27l100 -64q21 -13 47 -38l24 -23q10 -10 9 -11q-15 -7 -46 -26q-42 -31 -54 -93q-6 -30 -6 -76v-173q51 -3 77 -17q48 -25 73 -75q12 -24 16 -54q6 -42 4 -70q-4 -66 -36 -106q-54 -68 -136 -68q-63 0 -112.5 53.5t-49.5 138.5
v384q0 26 8 58q5 24 16.5 47.5t30.5 43.5q4 5 31 27l-36 24l-40 24l-40 18l-42 18v74q58 75 151 133q105 65 239 65q165 0 256 -86q73 -68 90 -146q8 -39 8 -90v-590q7 11 48 54zM344 196q0 80 -64 80q-68 0 -68 -80q0 -86 68 -86q64 0 64 86zM1064 268q-66 0 -66 -88
q0 -84 64 -84q66 0 66 90q0 82 -64 82z" />
    <glyph glyph-name="dodekthai" unicode="&#xe14;" horiz-adv-x="1248" 
d="M546 478q-36 11 -65 31q-64 45 -64 138q0 102 85 154q40 25 102 25q56 0 109 -33q60 -37 64 -89q4 -39 4 -46v-12q0 -57 -23 -102q-12 -22 -61 -84q-38 -47 -112 -140q-54 -67 -95 -144q-34 -63 -59 -137q-12 -37 -15 -39h-160q4 36 4 104v128q0 32 -13.5 87.5
t-26.5 88.5q-26 62 -70 167q-26 66 -26 131q0 170 115 273q139 125 365 125q140 0 263 -56q179 -81 179 -306v-742h-166v742q0 127 -82 187q-77 57 -194 57q-148 0 -232 -72q-88 -75 -88 -180q0 -95 32 -174q22 -51 55 -128q18 -46 45 -140l30 52q11 18 19 30l19 24l36 46
q12 15 26 34zM596 724q-68 0 -68 -74q-7 -84 68 -84q76 0 76 78q0 80 -76 80z" />
    <glyph glyph-name="totaothai" unicode="&#xe15;" horiz-adv-x="1248" 
d="M826 938q-38 33 -52 30l-160 -88l-160 94q-12 7 -56 -33q-34 -31 -50 -52q-64 -82 -64 -155q0 -119 60 -244q27 -57 42 -98q6 -16 14 -40l18 -60q24 29 72 88q20 25 66 72q-33 10 -54 25q-38 26 -59 68q-14 30 -14 75q0 104 72 148q53 32 112 32q77 0 127 -46t50 -122
q0 -81 -35 -131.5t-105 -121.5q-75 -74 -112 -127q-45 -64 -78 -139q-2 -5 -42 -113h-160q0 17 1 52t1 52v128q0 48 -23 116q-34 92 -69 184q-38 108 -38 192q0 148 109 263q74 78 197 123l178 -94l176 94q72 -7 156 -81q17 -14 40 -41q52 -61 58 -141q2 -26 2 -53v-794
h-164v810q0 79 -56 128zM606 696q-70 0 -70 -70q0 -88 70 -88q78 0 74 82q-4 76 -74 76z" />
    <glyph glyph-name="thothungthai" unicode="&#xe16;" horiz-adv-x="1248" 
d="M224 574q0 30 8 58q18 63 60 97q16 14 34 21l-40 22l-52 26q-27 13 -49 20q-48 13 -49 16v82q16 26 134 95q107 63 234 87q43 8 90 8q136 0 251 -43q79 -30 125 -114q42 -76 42 -165v-784h-164v776q0 35 -12 72q-22 69 -69 93q-83 41 -177 41q-75 0 -161 -36
q-37 -16 -97 -58l60 -30l50 -28q7 -4 56 -38l42 -36q-29 -10 -87 -44q-54 -44 -61 -119q-2 -20 -2 -47v-162q4 0 12.5 1t12.5 1q112 0 164 -92q25 -44 25 -122q0 -66 -50 -122t-142 -56q-74 0 -131 53t-57 143v384zM496 196q0 80 -76 80q-80 0 -80 -80q0 -86 80 -86
q76 0 76 86z" />
    <glyph glyph-name="thothahanthai" unicode="&#xe17;" horiz-adv-x="1248" 
d="M406 300l34 126l208 524q35 89 79 122.5t153 33.5q68 0 128 -57q36 -34 36 -103v-946h-166v930q0 19 -10.5 34.5t-27.5 17.5q-16 2 -37 -16q-9 -8 -25 -38l-364 -928h-162v726q-10 -5 -32 -5q-34 0 -71 13q-52 17 -89 78q-22 35 -22 120q10 80 76 139q40 35 116 35
q128 0 174 -121q14 -37 14 -71v-488zM144 908q0 -80 78 -80q80 0 80 80q0 86 -80 86q-78 0 -78 -86z" />
    <glyph glyph-name="thothongthai" unicode="&#xe18;" horiz-adv-x="1248" 
d="M800 126q18 0 34 20q12 15 12 43v443q0 39 -70 66q-52 21 -152 38q-68 13 -203 31q-17 1 -53 1q-130 0 -196 14q-2 9 -2 15q0 42 18 97q24 72 73 119q62 59 137 82t200 23q42 0 176 -23q91 -15 150 -15q37 0 72 12q30 11 48 26l30 -124q0 -16 -39 -34t-79 -18
q-73 0 -198 25q-140 28 -203 28q-88 0 -133 -31q-41 -29 -58 -68q24 -3 67 -8l123 -12q134 -15 261 -49q143 -38 181 -107q16 -29 16 -68v-512q0 -47 -19 -78t-53 -48q-22 -14 -58 -14h-674v126h72v566h164v-566h356z" />
    <glyph glyph-name="nonuthai" unicode="&#xe19;" horiz-adv-x="1248" 
d="M708 224q-38 -30 -110 -92l-76 -72l-56 -60h-160v724q-8 -4 -30 -4q-75 0 -126 43q-45 40 -55 100q-5 30 -5 69q13 124 125 163q30 11 65 11q131 0 178 -121q14 -38 14 -71v-726q30 30 94 80l92 72q47 37 117 79q35 21 107 61v624h166v-648l-94 -54q48 -7 99 -47
q65 -51 65 -157q0 -92 -52 -145q-58 -59 -150 -59q-71 0 -129 40t-74 112q-7 30 -7 54v12q2 8 2 12zM196 908q0 -80 76 -80q80 0 80 80q0 86 -80 86q-76 0 -76 -86zM912 292q-92 0 -92 -92t92 -92t92 98q0 86 -92 86z" />
    <glyph glyph-name="bobaimaithai" unicode="&#xe1a;" horiz-adv-x="1248" 
d="M184 0v126h102v606q-18 -9 -44 -9q-63 0 -107 36q-65 53 -65 173q0 80 80 142q42 32 114 32q85 0 137 -62q49 -57 49 -130v-788h326q37 0 80 20q33 14 40 50q4 27 4 64v844h166v-880q0 -46 -8 -74q-25 -85 -118 -130q-40 -20 -108 -20h-648zM174 908q0 -80 78 -80
q82 0 82 80q0 86 -82 86q-78 0 -78 -86z" />
    <glyph glyph-name="poplathai" unicode="&#xe1b;" horiz-adv-x="1248" 
d="M182 0v126h88v600q-10 -5 -33 -5q-73 0 -122 43q-39 34 -55 93q-6 21 -6 48q0 6 5 45q7 70 81 125q40 31 108 31q89 0 141 -63q47 -58 47 -129v-788h328q23 0 59 11.5t55 44.5q10 19 10 39v1279h166v-1252q0 -49 -8 -89q-10 -53 -42 -85q-58 -58 -123 -70q-25 -4 -61 -4
h-638zM160 908q0 -80 78 -80q82 0 82 80q0 86 -82 86q-78 0 -78 -86z" />
    <glyph glyph-name="phophungthai" unicode="&#xe1c;" horiz-adv-x="1248" 
d="M202 0v914q0 85 57 138.5t133 53.5q85 0 135.5 -48.5t58.5 -121.5q0 -77 -22 -122q-30 -59 -90 -80q-46 -16 -86 -16q-14 0 -20 2v-554l256 352l260 -352v938h164v-1104h-204l-214 298l-218 -298h-210zM400 994q-80 0 -80 -86q0 -80 80 -80q78 0 78 80q0 86 -78 86z" />
    <glyph glyph-name="fofathai" unicode="&#xe1d;" horiz-adv-x="1248" 
d="M186 0v914q0 84 54 138t136 54q115 0 171 -99q19 -33 23 -75q0 -80 -28 -127q-32 -54 -87 -71q-47 -16 -83 -16q-14 0 -20 2v-554l256 352l260 -352v1334h164v-1500h-204l-220 304l-212 -304h-210zM384 994q-80 0 -80 -86q0 -82 80 -82q78 0 78 82q0 86 -78 86z" />
    <glyph glyph-name="phophanthai" unicode="&#xe1e;" horiz-adv-x="1248" 
d="M672 1106l284 -730v728h164v-1104h-178l-266 702l-8 56l-6 -56l-258 -702h-178v726q-10 -5 -33 -5q-32 0 -72 14q-60 19 -93 89q-17 36 -17 87q0 14 1 21q0 76 78 139q43 35 114 35q92 0 144 -65q44 -55 44 -127v-538zM116 908q0 -80 78 -80q80 0 80 80q0 86 -80 86
q-78 0 -78 -86z" />
    <glyph glyph-name="fofanthai" unicode="&#xe1f;" horiz-adv-x="1248" 
d="M666 1106l284 -730v1124h164v-1500h-178l-266 702l-8 56l-6 -56l-258 -702h-178v726q-10 -5 -33 -5q-71 0 -120 41q-61 51 -61 170q0 80 82 142q42 32 110 32q90 0 141 -64q47 -60 47 -128v-538zM110 908q0 -80 78 -80q80 0 80 80q0 86 -80 86q-78 0 -78 -86z" />
    <glyph glyph-name="phosamphaothai" unicode="&#xe20;" horiz-adv-x="1248" 
d="M434 546v-356q0 -75 -48 -131q-54 -65 -140 -65q-118 0 -175 107q-17 32 -17 71q0 117 63 169q21 18 47 29q46 14 78 14q20 0 30 -4v194q0 36 10 60q9 54 52 84q24 18 40 32l-36 22l-44 22q-30 11 -88 31q-15 6 -22 9v82q83 75 194 127q84 38 160 53q48 10 92 10
q145 0 268 -52q117 -49 152 -187q10 -39 10 -83v-784h-164v776q0 125 -92 174q-60 32 -162 32q-80 0 -158 -31q-58 -22 -104 -63l52 -24l58 -34l56 -40q10 -8 31 -23q5 -6 11 -11q-33 -14 -54 -27q-40 -25 -63 -54q-37 -45 -37 -129zM238 110q80 0 80 86q0 80 -80 80
q-76 0 -76 -80q0 -86 76 -86z" />
    <glyph glyph-name="momathai" unicode="&#xe21;" horiz-adv-x="1248" 
d="M674 326l122 -80q33 -21 98 -64v922h166v-1104h-166q-28 28 -90 80q-35 29 -108 84q-26 16 -62 38l-64 38q-32 18 -96 52q0 -16 1 -49t1 -49q0 -112 -83 -168q-46 -31 -111 -31q-42 0 -85 23q-103 55 -103 195q0 78 37 139q33 54 97 76q31 12 61 13q16 0 21 1v282
q-8 -4 -30 -4q-34 0 -78 14q-55 24 -90 81q-20 33 -20 117q0 73 78 139q43 35 118 35q67 0 119 -43q67 -56 67 -149v-486q59 -24 102 -48zM198 908q0 -80 78 -80q82 0 82 80q0 86 -82 86q-78 0 -78 -86zM288 318q-78 0 -78 -108q0 -94 78 -94q72 0 72 102q0 100 -72 100z
" />
    <glyph glyph-name="yoyakthai" unicode="&#xe22;" horiz-adv-x="1248" 
d="M250 -2v338q0 57 29 108q20 33 44 51q31 24 67 32q14 4 20 5l-64 32q-30 15 -72 51q-47 42 -65 103q-11 38 -11 140q0 109 94 200q49 48 146 48q124 0 176 -98q18 -34 18 -76q0 -144 -93 -182q-53 -22 -92 -22q-42 0 -68 16q-12 8 -17 12q0 -32 11 -58q27 -62 84 -82
q42 -14 89 -14h110v-120h-108q-26 0 -54 -10q-53 -25 -70 -78q-8 -27 -8 -68v-200h338q35 0 78 20q18 8 33 36q13 23 13 57v865h164v-889q0 -36 -8 -63q-35 -125 -170 -148q-26 -4 -56 -4zM446 994q-84 0 -84 -80q0 -86 75 -86h9q78 0 78 80q0 86 -78 86z" />
    <glyph glyph-name="roruathai" unicode="&#xe23;" horiz-adv-x="1248" 
d="M494 756q-61 11 -183 30q-37 5 -84 10l-75 8q21 95 75 160q120 145 340 145q58 0 277 -35q57 -9 86 -9q56 0 105 26q39 20 39 27l20 -128q-38 -41 -96 -46q-47 -4 -65 -4q-77 0 -210 26l-111 21q-46 8 -80 8q-91 0 -135 -42q-31 -28 -47 -55q70 -11 209 -35
q51 -9 167 -33q51 -12 134 -39q101 -33 135 -90q19 -30 19 -69v-438q0 -86 -52.5 -141t-137.5 -55q-78 0 -136 48.5t-58 125.5q0 159 110 198q45 16 87 16q15 0 21 -2v246q0 49 -150 84q-47 11 -112 24zM814 110q80 0 80 86q0 80 -80 80q-76 0 -76 -80q0 -35 20 -59
q22 -27 56 -27z" />
    <glyph glyph-name="ruthai" unicode="&#xe24;" horiz-adv-x="1248" 
d="M244 574q0 31 6 58q18 56 55 87q15 10 41 31l-32 20l-52 24l-60 22q-46 17 -46 18v80q65 56 124 90q124 72 249 94q42 8 85 8q138 0 262 -52q156 -64 156 -270v-1210h-164v1202q0 133 -88 172q-75 34 -166 34q-78 0 -158 -32q-57 -22 -108 -62q39 -18 62 -30l52 -28
l56 -40q10 -8 31 -23q5 -6 11 -11q-82 -41 -118 -84q-32 -38 -32 -126v-166q12 6 31 6q32 0 84 -20q99 -37 99 -194q0 -76 -59 -126q-55 -48 -133 -48q-82 0 -135 55t-53 137v384zM520 196q0 80 -78 80q-82 0 -82 -80q0 -86 82 -86q78 0 78 86z" />
    <glyph glyph-name="lolingthai" unicode="&#xe25;" horiz-adv-x="1248" 
d="M178 946q25 47 173 111q119 53 233 53q153 0 281 -60q78 -37 123 -123q42 -80 42 -171v-756h-166q-10 0 -47 100q-54 145 -56 150q-79 185 -186 347q-47 71 -97 63t-63 -82q-4 -23 -9 -68q0 -76 -2 -134q18 5 44 5q38 0 86 -16t77 -83q25 -56 25 -114q0 -65 -63 -133
q-38 -41 -125 -41q-77 0 -129.5 47.5t-66.5 124.5q-20 104 -20 226q0 197 59 297q64 109 201 109q86 0 168 -98q28 -33 114 -173q90 -145 90 -191v422q0 125 -94 180q-83 48 -172 48q-115 0 -241 -60q-108 -50 -179 -148v168zM528 194q0 80 -78 80q-80 0 -80 -80
q0 -86 80 -86q78 0 78 86z" />
    <glyph glyph-name="luthai" unicode="&#xe26;" horiz-adv-x="1248" 
d="M422 546v-356q0 -81 -53 -136.5t-133 -55.5q-118 0 -175 104q-19 33 -19 70q0 117 68 173q31 26 82 35q20 4 34 4q17 0 32 -6v196q0 33 6 56q20 75 98 124l-38 20l-44 20l-60 22q-20 7 -52 18v86q119 105 287 157q91 29 175 29q207 0 321 -95q99 -81 99 -227v-1210h-166
v1202q0 89 -44 141q-56 65 -210 65q-80 0 -161 -31q-61 -22 -109 -65q44 -15 68 -28l50 -28l50 -36q29 -21 46 -38q-18 -8 -52 -25q-36 -20 -60 -48q-40 -45 -40 -137zM226 110q80 0 80 86q0 80 -80 80q-76 0 -76 -80q0 -35 20 -59q22 -27 56 -27z" />
    <glyph glyph-name="wowaenthai" unicode="&#xe27;" horiz-adv-x="1248" 
d="M1036 190q0 -82 -53 -137t-135 -55q-78 0 -132.5 48.5t-61.5 125.5q0 59 23 112q27 63 76 80q53 20 86 20q16 0 31 -6v404q0 88 -110 162q-64 42 -188 42q-96 0 -175 -31q-69 -27 -138 -81q-87 -71 -99 -110v176q66 75 153 112q127 54 273 54q278 0 401 -161
q49 -65 49 -145v-610zM840 110q80 0 80 86q0 80 -80 80t-80 -80q0 -86 80 -86z" />
    <glyph glyph-name="sosalathai" unicode="&#xe28;" horiz-adv-x="1248" 
d="M498 1106q100 14 172 14q101 13 169 45q63 30 87 61q10 13 16 24l222 -24q-5 -12 -9 -24q-44 -62 -122 -97q-52 -24 -89 -34q-20 -5 -84 -17q39 -11 72 -38q76 -61 100 -148q16 -57 16 -96v-772h-166v754q0 150 -130 206q-60 26 -144 26q-194 0 -277 -118
q-25 -36 -30 -108v-11q0 -70 35 -199q7 -28 14 -50q15 109 46 175q45 95 99 136t124 41h15l52 -8q21 -6 48 -27q69 -55 69 -159q0 -27 -7 -54q-16 -61 -65.5 -98.5t-112.5 -37.5q-76 0 -119 44q-17 18 -29 34q-33 -104 -44 -177q-24 -166 -24 -297v-72h-166q-1 95 -12 284
q-7 67 -33 200q-12 40 -35 118q-16 59 -16 127q0 66 25 146q30 97 127 159q85 55 206 72zM608 742q-72 0 -72 -78q0 -90 78 -90q75 0 78 78q4 90 -84 90z" />
    <glyph glyph-name="sorusithai" unicode="&#xe29;" horiz-adv-x="1248" 
d="M162 0v126h94v600q-10 -5 -32 -5q-33 0 -71 13q-60 21 -93 90q-17 36 -17 87q0 17 1 21q4 77 73 138q41 36 117 36q85 0 138 -62q50 -58 50 -130v-788h379q32 0 50 13q14 11 19 30q4 13 4 35v152q-30 4 -94 4q-126 12 -201 56q-80 45 -96 108q-11 41 -11 74q0 117 98 163
q35 17 80 17q184 0 184 -192q-8 -72 -50 -94q22 -10 48 -10h42v622h166v-572q53 37 78 68q38 47 54 81q11 24 16 41l6 26l48 -202q-31 -51 -69 -83q-63 -52 -114 -71q-11 -4 -19 -6v-242l-8 -44q-6 -21 -23 -40q-33 -38 -71 -50q-31 -10 -102 -10h-674zM650 674
q-68 0 -68 -72q0 -84 72 -84q74 0 74 80q0 76 -78 76zM148 908q0 -80 78 -80q80 0 80 80q0 86 -80 86q-78 0 -78 -86z" />
    <glyph glyph-name="sosuathai" unicode="&#xe2a;" horiz-adv-x="1248" 
d="M180 964q48 62 172 106q112 40 264 40h62q158 0 230 72l20 40l222 -16q-1 -6 -1 -12q-18 -48 -84 -93q-62 -42 -177 -75q17 -10 51 -37q55 -55 75 -134q12 -45 12 -99v-756h-166q-10 0 -47 100q-54 145 -56 150q-80 187 -185 346q-47 73 -98 64q-49 -8 -62 -75
q-3 -13 -10 -75q0 -76 -2 -134q21 8 50 8q36 0 84 -23q98 -45 98 -193q0 -72 -66 -139q-36 -35 -122 -35q-81 0 -134 56.5t-68 156.5q-10 64 -10 185q0 193 76 322q49 84 180 84q78 0 145 -70q35 -36 98 -136q44 -72 129 -256v422q0 140 -115 193q-66 31 -151 31
q-121 0 -241 -56q-93 -43 -173 -128v166zM524 194q0 80 -78 80q-80 0 -80 -80q0 -86 80 -86q78 0 78 86z" />
    <glyph glyph-name="hohipthai" unicode="&#xe2b;" horiz-adv-x="1248" 
d="M540 608q39 61 58 86q36 47 73 74q10 7 69 32q-20 10 -34 32q-30 46 -30 96q0 92 57 138t139 46q89 0 141.5 -49.5t52.5 -142.5q0 -65 -38 -112q-30 -37 -68 -50q22 -7 39 -20q22 -17 36 -40q10 -16 15 -32q6 -32 6 -72v-594h-164v610q0 32 -16 58q-18 37 -57 37
q-32 0 -78 -46q-38 -37 -103 -143q-41 -67 -84 -164q-53 -121 -101 -275q-15 -47 -25 -77h-164v724q-12 -4 -29 -4q-36 0 -88 18q-48 18 -75 82q-22 52 -22 112q0 76 58 126q55 48 132 48q117 0 166 -102q24 -48 24 -94v-518q33 74 110 216zM154 908q0 -80 78 -80
q80 0 80 80q0 86 -80 86q-78 0 -78 -86zM870 1016q-84 0 -84 -80q0 -92 88 -92t84 94q-3 78 -88 78z" />
    <glyph glyph-name="lochulathai" unicode="&#xe2c;" horiz-adv-x="1248" 
d="M744 1000q-14 44 -12 82q4 71 48 113q64 61 166 61q125 0 164 -121q9 -31 9 -42q0 -4 -1 -5q21 10 40 49q5 10 7 23.5t8 42.5q0 12 3 33h138q-5 -87 -38 -165q-30 -70 -96 -128q-26 -23 -60 -37v-906h-174l-284 610l-14 66l-12 -66l-254 -610h-174v726q-12 -5 -34 -5
q-99 0 -150 80q-32 51 -32 131q0 77 57 127q54 47 133 47q96 0 146 -63q44 -55 44 -127v-566l264 624l320 -648v544q-11 -1 -19 -1q-36 0 -76 13q-87 26 -117 118zM96 908q0 -80 78 -80q80 0 80 80q0 86 -80 86q-78 0 -78 -86zM928 1150q-31 0 -51.5 -24t-20.5 -56
q0 -84 74 -84q78 0 74 86q-3 78 -76 78z" />
    <glyph glyph-name="oangthai" unicode="&#xe2d;" horiz-adv-x="1248" 
d="M170 0v126h80v434q0 92 64 144q56 46 126 46q81 0 131 -41q63 -51 63 -129q0 -73 -20 -117q-28 -62 -90 -83q-49 -11 -83 -11q-19 0 -25 3v-246h336q23 0 59.5 11.5t53.5 46.5q11 21 11 37v537q0 49 -20 92q-62 132 -248 132q-119 0 -226 -57q-91 -48 -138 -100
q-25 -27 -42 -49v170q56 70 149 108q126 52 247 52q312 0 406 -190q38 -77 38 -160v-520q0 -56 -12 -103t-81 -93q-27 -18 -41 -24q-40 -16 -100 -16h-638zM448 640q-80 0 -80 -86q0 -80 80 -80q78 0 78 80q0 86 -78 86z" />
    <glyph glyph-name="honokhukthai" unicode="&#xe2e;" horiz-adv-x="1248" 
d="M172 0v126h66v346q0 82 54 136q58 58 136 58q121 0 176 -104q16 -32 16 -70q0 -118 -64 -172q-54 -45 -124 -45q-27 0 -30 3v-152h340q36 0 79 20q39 17 43 64q2 24 2 50v511q0 38 -11 56q-4 6 -5 9q-84 -51 -205 -79q-42 -9 -95 -9q-145 0 -231 26q-123 37 -123 136
q0 88 110.5 142t229.5 54q113 0 176 -9q109 -16 170 -65q18 -14 24 -20l34 28q22 18 65 56q19 20 53 72l44 -142q-30 -40 -56 -58l-58 -40q-1 -1 16 -30q28 -67 28 -142v-532q0 -48 -11 -86q-15 -53 -74.5 -95.5t-148.5 -42.5h-626zM436 552q-80 0 -80 -86q0 -80 80 -80
q78 0 78 80q0 86 -78 86zM798 922q-72 55 -173 66q-36 4 -62 4h-25q-10 -2 -14 -2q-88 0 -130 -28q-36 -25 -36 -52q0 -31 48 -42q36 -7 81 -7h26q59 0 102 5q99 13 183 56z" />
    <glyph glyph-name="paiyannoithai" unicode="&#xe2f;" horiz-adv-x="1248" 
d="M832 1104h166v-867q0 -7 1 -16q0 -98 -37 -147q-28 -37 -88 -76l-140 80q55 30 76.5 67.5t21.5 98.5v592q-87 -106 -195 -124q-60 -11 -110 -11q-98 0 -171 29q-152 59 -152 190q0 86 46 132q52 52 116 52q5 0 14 1t14 1q61 0 123 -42q50 -35 50 -125q0 -75 -69 -111
q8 0 24.5 -1.5t24.5 -1.5q77 0 126.5 25.5t86.5 68.5q34 38 59 105q13 36 13 80zM384 1016q-72 0 -72 -80q0 -74 72 -74q74 0 74 78q0 76 -74 76z" />
    <glyph glyph-name="saraathai" unicode="&#xe30;" horiz-adv-x="1248" 
d="M821 896q20 42 20 96q0 18 -3 36h154q1 -11 1 -26q0 -58 -21 -114q-30 -83 -115 -139q-117 -77 -295 -77q-150 0 -229 45q-103 58 -103 161q0 80 49.5 128t122.5 48q72 0 120 -42q50 -45 50 -106q0 -90 -40 -122q46 -6 75 -6h28q27 5 92 28q66 32 94 90zM821 291
q20 45 20 96q0 17 -3 35h154q1 -10 1 -24q0 -47 -18 -106q-26 -88 -116 -147q-118 -79 -297 -79q-150 0 -229 45q-103 58 -103 161q0 78 49 127t123 49q72 0 120 -42q50 -45 50 -106q0 -90 -40 -122q46 -6 75 -6h28q27 5 92 29q68 32 94 90zM404 966q-74 0 -74 -80
q0 -76 74 -76t74 82q0 74 -74 74zM404 360q-74 0 -74 -80q0 -76 74 -76t74 78t-74 78z" />
    <glyph glyph-name="maihanakatthai" unicode="&#xe31;" horiz-adv-x="0" 
d="M-210 1342h-58q-64 0 -118 11q-96 19 -154 72q-62 57 -69 121q-2 23 -2 35q0 111 104 160q31 15 73 15q150 0 185 -111q11 -33 11 -75q0 -95 -66 -118q82 -4 122 -4q126 11 224 81q82 59 133 142q27 43 41 79v-204q-33 -49 -72 -79q-107 -80 -245 -113q-50 -12 -109 -12z
M-424 1668q-84 0 -84 -84q0 -82 80 -82q84 0 84 88q0 78 -80 78z" />
    <glyph glyph-name="saraaathai" unicode="&#xe32;" horiz-adv-x="1248" 
d="M586 1106q278 0 401 -161q49 -65 49 -145v-800h-166v782q0 88 -110 162q-64 42 -188 42q-96 0 -175 -31q-69 -27 -138 -81q-87 -71 -99 -110v176q66 75 153 112q127 54 273 54z" />
    <glyph glyph-name="saraamthai" unicode="&#xe33;" horiz-adv-x="1248" 
d="M-244 1380q-91 0 -146.5 56.5t-55.5 147.5q0 85 55.5 139.5t140.5 54.5q89 0 146.5 -55t57.5 -143t-55 -144t-143 -56zM586 1106q278 0 401 -161q49 -65 49 -145v-800h-166v782q0 88 -110 162q-64 42 -188 42q-96 0 -175 -31q-69 -27 -138 -81q-87 -71 -99 -110v176
q66 75 153 112q127 54 273 54zM-244 1672q-89 0 -92 -86q-2 -43 23.5 -72.5t68.5 -29.5q92 0 92 96q0 92 -92 92z" />
    <glyph glyph-name="saraithai" unicode="&#xe34;" horiz-adv-x="0" 
d="M-206 1316q-237 52 -456 52q-221 0 -428 -44q0 81 47 162q59 101 168 137q98 33 185 33q132 0 233 -52q88 -44 156 -126q22 -27 59 -87q43 -68 36 -75zM-924 1436q117 16 256 16q154 0 270 -20q-44 60 -106 86q-84 36 -174 36q-82 0 -150 -30q-34 -15 -60 -40z" />
    <glyph glyph-name="saraiithai" unicode="&#xe35;" horiz-adv-x="0" 
d="M-372 1556v200h162v-346l36 -94q-117 27 -253 43q-83 9 -201 9q-229 0 -428 -44q0 71 46 152q53 93 156 146q65 34 198 34q162 0 243 -66q29 -23 41 -34zM-890 1436q22 4 54 7q26 1 86 3l116 6q6 0 152 -8q26 -1 70 -4q28 -4 48 -8q-41 62 -107 87q-88 35 -175 35
q-80 0 -148 -30q-34 -15 -60 -40z" />
    <glyph glyph-name="sarauethai" unicode="&#xe36;" horiz-adv-x="0" 
d="M-791 1643q49 11 99 11q88 0 130 -12q-1 4 -1 14q0 43 31 80q49 59 140 59q65 0 108 -28q78 -49 78 -141q0 -41 -28 -78q-33 -44 -66 -44q29 -26 60 -78q44 -75 44 -110q-260 52 -454 52q-217 0 -432 -44q0 88 54 160q37 49 71 77q77 63 166 82zM-914 1436q20 4 50 7
q23 1 80 3l128 6q10 0 75 -2l55 -2q76 0 140 -16q-45 60 -110 88q-79 34 -174 34q-90 0 -152 -31q-33 -16 -58 -41zM-388 1714q-76 0 -76 -72q0 -80 76 -80t76 76t-76 76z" />
    <glyph glyph-name="saraueethai" unicode="&#xe37;" horiz-adv-x="0" 
d="M-184 1316q-123 27 -261 43q-85 9 -203 9q-167 0 -318 -24q-40 -7 -110 -20q0 92 45 161q49 76 132 125t205 49q26 0 44 -3v100h160v-124q22 -11 67 -31q11 -5 63 -45v200h156v-392zM-910 1436q22 4 53 7q24 1 81 3l122 6q21 1 58 -1q42 -3 58 -3q86 0 158 -16
q-48 66 -117 92q-79 30 -167 30q-94 0 -159 -36q-31 -16 -55 -40z" />
    <glyph glyph-name="sarauthai" unicode="&#xe38;" horiz-adv-x="0" 
d="M-376 -482q-27 -5 -46 -5q-99 0 -139 91q-15 35 -15 74q0 59 28 108q32 57 105 68q29 5 48 5q107 0 156 -83q25 -41 25 -96v-354h-162v192zM-402 -240q-74 0 -74 -66q0 -92 74 -92q76 0 76 80q0 78 -76 78z" />
    <glyph glyph-name="sarauuthai" unicode="&#xe39;" horiz-adv-x="0" 
d="M-676 -486q-10 -2 -33 -2q-67 0 -113 39q-58 48 -58 153q0 70 71 134q39 36 111 36q91 0 149 -69q31 -38 31 -115v-178q0 -14 5.5 -27t24.5 -13h82q10 0 27 17q3 3 3 23v358h156v-433q-2 -8 -11 -28q-6 -12 -35 -33q-16 -10 -34 -10h-286q-19 0 -30 4q-14 2 -33 19
t-24 48q-3 14 -3 19v58zM-704 -226q-29 0 -51.5 -20.5t-22.5 -49.5q0 -94 78 -94q74 0 74 82t-78 82z" />
    <glyph glyph-name="phinthuthai" unicode="&#xe3a;" horiz-adv-x="0" 
d="M-320 -402q-52 0 -83 33t-31 85q0 48 33 78t81 30q49 0 81.5 -29.5t32.5 -78.5q0 -118 -114 -118z" />
    <glyph glyph-name="bahtthai" unicode="&#xe3f;" horiz-adv-x="1248" 
d="M520 0h-402v1324h402v200h150v-200h56q133 0 244 -54q154 -75 154 -270q0 -129 -51 -197q-45 -59 -167 -101q96 -25 170 -86q94 -77 94 -208q0 -169 -88 -283q-97 -125 -356 -125h-56v-216h-150v216zM520 1148h-222v-378h222v378zM520 172v430h-222v-430h222zM670 602
v-430h56q122 0 191 59.5t69 170.5q0 148 -190 188q-55 12 -116 12h-10zM670 770h14q123 0 189 40q74 45 74 147q0 78 -33 121q-42 56 -144 65q-46 5 -100 5v-378z" />
    <glyph glyph-name="saraethai" unicode="&#xe40;" horiz-adv-x="1248" 
d="M630 1104v-720q11 2 20 2q43 0 88 -16q110 -39 110 -198q0 -77 -58 -125.5t-136 -48.5q-86 0 -140 63q-50 58 -50 129v914h166zM740 196q0 80 -78 80q-80 0 -80 -80q0 -86 80 -86q78 0 78 86z" />
    <glyph glyph-name="saraaethai" unicode="&#xe41;" horiz-adv-x="1248" 
d="M392 1104v-720q11 2 20 2q43 0 88 -16q110 -39 110 -198q0 -76 -60 -127q-56 -47 -134 -47q-86 0 -142 65q-48 56 -48 127v914h166zM914 1104v-720q12 3 26 3q36 0 91 -21q102 -38 102 -170q0 -16 -1 -24q0 -76 -60 -127q-56 -47 -134 -47q-84 0 -136 57.5t-52 134.5v914
h164zM1026 196q0 80 -78 80q-82 0 -82 -80q0 -86 82 -86q78 0 78 86zM502 196q0 80 -78 80q-80 0 -80 -80q0 -86 80 -86q78 0 78 86z" />
    <glyph glyph-name="saraothai" unicode="&#xe42;" horiz-adv-x="1248" 
d="M696 1426v-1042q10 2 21 2q43 0 87 -16q111 -40 111 -175q-1 -9 -1 -14v-9q-7 -80 -61 -127t-135 -47q-82 0 -136 62q-50 56 -50 130v1218q0 90 -100 118q-60 16 -116 26q-70 12 -202 12q45 165 178 246q80 49 212 49q63 0 163 -22l110 -24q51 -11 97 -11h33q21 1 75 23
q26 16 48 33l18 -136q-26 -38 -124 -38q-83 0 -212.5 37.5t-197.5 37.5q-89 0 -145 -44q-41 -32 -61 -65q57 0 187 -35q107 -29 164 -86q37 -37 37 -103zM808 196q0 80 -78 80q-82 0 -82 -80q0 -86 82 -86q78 0 78 86z" />
    <glyph glyph-name="saraaimaimuanthai" unicode="&#xe43;" horiz-adv-x="1248" 
d="M491 1750q-91 0 -154 -38q-29 -18 -45 -42h12q51 0 97 -28q65 -39 72 -109q2 -28 2 -42q0 -77 -56 -124q-52 -43 -131 -43q-65 0 -113 40t-58 104q-10 58 -10 82q0 80 39 150q41 74 111 108q111 56 263 56q161 0 253 -79q62 -55 87 -119q13 -35 13 -85q0 -74 -37 -165
l-32 -78q-20 -50 -20 -68v-886q12 3 25 3q36 0 91 -21q50 -18 78 -81q24 -53 24 -113q0 -72 -52 -123.5t-124 -51.5q-152 0 -196 123q-12 35 -12 70v1080q0 39 14 72q28 47 76 146q12 30 12 70q0 50 -29 101q-53 91 -200 91zM894 196q0 80 -76 80q-84 0 -84 -80
q0 -86 84 -86q76 0 76 86zM298 1582q-78 0 -78 -82q0 -84 78 -84q76 0 76 82q0 84 -76 84z" />
    <glyph glyph-name="saraaimaimalaithai" unicode="&#xe44;" horiz-adv-x="1248" 
d="M396 1506l186 296q8 14 36 41q30 19 62 19q120 0 120 -140v-1344q15 5 38 5q34 0 81 -17.5t74 -81.5q23 -53 23 -112q-7 -77 -61.5 -125.5t-132.5 -48.5q-84 0 -136 54t-52 138v1478l-174 -266h-164l-102 298q-6 18 -23 38q-12 15 -32 25q-13 6 -31 9h-32l110 106
q29 0 70 -24q30 -21 53 -72q2 -7 9 -28zM910 196q0 80 -76 80q-84 0 -84 -80q0 -86 84 -86q76 0 76 86z" />
    <glyph glyph-name="lakkhangyaothai" unicode="&#xe45;" horiz-adv-x="1248" 
d="M586 1106q278 0 401 -161q49 -65 49 -145v-1180h-166v1162q0 88 -110 162q-64 42 -188 42q-96 0 -175 -31q-69 -27 -138 -81q-87 -71 -99 -110v176q66 75 153 112q127 54 273 54z" />
    <glyph glyph-name="maiyamokthai" unicode="&#xe46;" horiz-adv-x="1248" 
d="M356 916q18 3 32 3q36 0 85 -22q68 -31 79 -116q4 -31 4 -40q0 -100 -64 -143q-52 -35 -118 -35q-115 0 -166 80q-40 60 -40 177q0 80 43 146q40 61 110 104q86 53 115 36l126 -74l130 72q17 9 104 -34q79 -39 128.5 -103t49.5 -155v-1212h-162v1194q0 42 -10 72
q-18 55 -64 90q-11 8 -30 21l-18 9l-130 -70l-124 78q-6 3 -12 3q-15 0 -44 -25q-24 -27 -24 -56zM368 822q-68 0 -68 -72q0 -84 68 -84q76 -8 76 78q0 78 -76 78z" />
    <glyph glyph-name="maitaikhuthai" unicode="&#xe47;" horiz-adv-x="0" 
d="M-560 1516q9 56 43 82q48 38 101 38q125 0 159 -97q11 -33 11 -73q0 -56 -48 -118q-30 -40 -116 -40q-80 0 -140 49q-34 34 -104 99q-20 18 -40 22q-45 9 -71.5 -37t-40.5 -121h-146q-2 38 -2 86l-12 92q-4 31 -4 58q0 163 117 246q83 58 259 58h98q129 0 178 34
q53 38 90 102l40 -146q-10 -24 -47 -50q-69 -48 -150 -59q-32 -5 -68 -5q-28 0 -90 6q-80 6 -91 6q-53 0 -95 -18q-65 -27 -81 -105q-4 -22 -4 -39v-10l6 -52q23 40 47 53t55 13q67 0 125 -51q17 -15 21 -23zM-410 1552q-70 0 -70 -80q0 -78 70 -78q70 -7 70 78q0 80 -70 80
z" />
    <glyph glyph-name="maiekthai" unicode="&#xe48;" horiz-adv-x="0" 
d="M-364 2194h162v-350h-162v350z" />
    <glyph glyph-name="maithothai" unicode="&#xe49;" horiz-adv-x="0" 
d="M-378 2004q-15 -3 -25 -3q-43 0 -79 24q-45 31 -45 94q0 73 59 104q34 18 77 18q87 0 121 -69q16 -31 16 -70q0 -73 -43 -136q-16 -23 -29 -32q58 11 151 69q80 50 137 120q64 79 64 105l16 -172q-28 -34 -67 -63q-98 -74 -209 -116q-93 -35 -192 -51q-50 -8 -74 -8v84
q11 0 40 16l36 20q34 19 44 52q2 8 2 14zM-396 2062q62 0 54 60q0 52 -58 52q-54 0 -54 -58q0 -54 58 -54z" />
    <glyph glyph-name="maitrithai" unicode="&#xe4a;" horiz-adv-x="0" 
d="M-550 2036q21 6 40 6q56 0 85 -41q17 -23 17 -58q0 -46 -29.5 -75.5t-74.5 -29.5q-102 0 -130 72q-16 43 -16 90v19q11 67 17 81q14 32 56 59q55 35 109 41l68 -52l76 52q32 -4 64 -22q35 -21 53.5 -51t24.5 -61q2 -18 2 -26q0 -21 -6 -48q21 10 39 38q23 37 36 82
q11 34 12 57q0 17 1 23h108q-6 -73 -42 -140q-28 -53 -70 -94q-78 -75 -186 -114l-34 38q49 28 54 100q2 27 2 32q0 43 -20 72q-21 24 -46 36l-70 -46l-66 46q-15 -2 -31 -10q-10 -5 -24 -24q-19 -23 -19 -52zM-520 1992q-50 0 -50 -50q0 -48 50 -48q52 0 52 46q0 52 -52 52
z" />
    <glyph glyph-name="maichattawathai" unicode="&#xe4b;" horiz-adv-x="0" 
d="M-370 1832v136h-146v96h146v136h164v-136h146v-96h-146v-136h-164z" />
    <glyph glyph-name="thanthakhatthai" unicode="&#xe4c;" horiz-adv-x="0" 
d="M-218 1922q15 -21 29 -41q13 -29 13 -65q0 -166 -172 -166q-72 0 -121.5 46t-49.5 118q0 64 42 114q50 58 205 82q57 7 176 40q88 34 115 85q12 22 17 39l138 -68q-29 -88 -173 -133q-89 -28 -168 -42q-29 -5 -51 -9zM-348 1890q-64 0 -64 -76q0 -72 64 -72q70 0 70 76
q0 78 -70 72z" />
    <glyph glyph-name="nikhahitthai" unicode="&#xe4d;" horiz-adv-x="0" 
d="M-308 1368q-76 0 -133 43q-69 54 -69 159q0 89 55.5 142.5t140.5 53.5q91 0 159 -67q41 -41 41 -121q0 -85 -44 -141q-54 -69 -150 -69zM-308 1662q-39 0 -73 -31q-21 -20 -21 -55q0 -47 31 -81q20 -21 63 -21q92 0 92 102q0 38 -27 62t-65 24z" />
    </font>
</defs>
</svg>
